<svg xmlns="http://www.w3.org/2000/svg" xmlns:xlink="http://www.w3.org/1999/xlink" width="1351.2" height="1122.298" version="1.1" viewBox="0 0 1013.4 841.723"><metadata><rdf:RDF xmlns:cc="http://creativecommons.org/ns#" xmlns:dc="http://purl.org/dc/elements/1.1/" xmlns:rdf="http://www.w3.org/1999/02/22-rdf-syntax-ns#"><cc:Work><dc:type rdf:resource="http://purl.org/dc/dcmitype/StillImage"/><dc:date>2026-02-27T18:40:14.551350</dc:date><dc:format>image/svg+xml</dc:format><dc:creator><cc:Agent><dc:title>Matplotlib v3.10.8, https://matplotlib.org/</dc:title></cc:Agent></dc:creator></cc:Work></rdf:RDF></metadata><defs><style type="text/css">*{stroke-linejoin:round;stroke-linecap:butt}</style></defs><g id="figure_1"><g id="patch_1"><path d="M 0 841.723437 L 1013.4 841.723437 L 1013.4 0 L 0 0 z" style="fill:#f5f2ed"/></g><g id="axes_1"><g id="patch_2"><path d="M 69.4632 772.260237 L 584.316 772.260237 L 584.316 645.487437 L 69.4632 645.487437 z" clip-path="url(#p073a825331)" style="fill:#d4c8b0"/></g><g id="patch_3"><path d="M 592.0776 772.260237 L 943.9368 772.260237 L 943.9368 645.487437 L 592.0776 645.487437 z" clip-path="url(#p073a825331)" style="fill:#c8bca8"/></g><g id="patch_4"><path d="M 69.4632 637.725837 L 584.316 637.725837 L 584.316 322.087438 L 69.4632 322.087438 z" clip-path="url(#p073a825331)" style="fill:#d4c8b0"/></g><g id="patch_5"><path d="M 592.0776 637.725837 L 830.1 637.725837 L 830.1 322.087438 L 592.0776 322.087438 z" clip-path="url(#p073a825331)" style="fill:#d4c8b0"/></g><g id="patch_6"><path d="M 837.8616 637.725837 L 943.9368 637.725837 L 943.9368 516.127437 L 837.8616 516.127437 z" clip-path="url(#p073a825331)" style="fill:#e0e0e0"/></g><g id="patch_7"><path d="M 837.8616 508.365837 L 943.9368 508.365837 L 943.9368 322.087437 L 837.8616 322.087437 z" clip-path="url(#p073a825331)" style="fill:#d4c8b0"/></g><g id="patch_8"><path d="M 69.4632 314.325837 L 364.404 314.325837 L 364.404 91.826637 L 69.4632 91.826637 z" clip-path="url(#p073a825331)" style="fill:#e8e2d5"/></g><g id="patch_9"><path d="M 372.1656 314.325837 L 480.828 314.325837 L 480.828 91.826637 L 372.1656 91.826637 z" clip-path="url(#p073a825331)" style="fill:#e0e0e0"/></g><g id="patch_10"><path d="M 488.5896 314.325837 L 943.9368 314.325837 L 943.9368 91.826637 L 488.5896 91.826637 z" clip-path="url(#p073a825331)" style="fill:#c0b8a8"/></g><g id="text_1"><g style="fill:#3a3a3a" transform="translate(425.7 35.963437) scale(0.18 -0.18)"><defs><path id="NotoSansCJKsc-Bold-4e00" d="M 243 2912 L 243 2074 L 6170 2074 L 6170 2912 L 243 2912 z" transform="scale(0.015625)"/><path id="NotoSansCJKsc-Bold-5c42" d="M 1978 2931 L 1978 2272 L 5619 2272 L 5619 2931 L 1978 2931 z M 1504 4518 L 4998 4518 L 4998 3981 L 1504 3981 L 1504 4518 z M 730 5165 L 730 3270 C 730 2266 685 813 134 -173 C 326 -243 672 -429 826 -557 C 1414 506 1504 2170 1504 3277 L 1504 3328 L 5773 3328 L 5773 5165 L 730 5165 z M 4358 870 L 4666 358 L 2842 243 C 3072 518 3296 832 3488 1146 L 5037 1146 L 4358 870 z M 1990 -550 C 2240 -461 2592 -429 4998 -237 C 5075 -390 5146 -531 5197 -646 L 5926 -314 C 5734 64 5338 691 5037 1146 L 6054 1146 L 6054 1811 L 1626 1811 L 1626 1146 L 2547 1146 C 2362 794 2150 493 2067 397 C 1946 250 1830 147 1715 122 C 1805 -70 1946 -410 1990 -550 z" transform="scale(0.015625)"/><path id="NotoSansCJKsc-Bold-5ba4" d="M 934 1485 L 934 826 L 2797 826 L 2797 275 L 371 275 L 371 -397 L 6067 -397 L 6067 275 L 3584 275 L 3584 826 L 5555 826 L 5555 1485 L 3584 1485 L 3584 1971 L 2797 1971 L 2797 1485 L 934 1485 z M 2688 5312 C 2746 5197 2803 5062 2854 4928 L 384 4928 L 384 3693 L 1101 3693 L 1101 3181 L 2048 3181 C 1792 2950 1562 2771 1453 2701 C 1280 2573 1146 2496 998 2470 C 1075 2285 1184 1946 1222 1811 C 1472 1907 1824 1933 4698 2163 C 4838 2016 4960 1875 5043 1760 L 5645 2170 C 5408 2464 4960 2867 4563 3181 L 5325 3181 L 5325 3693 L 6010 3693 L 6010 4928 L 3718 4928 C 3648 5120 3539 5344 3430 5530 L 2688 5312 z M 3814 2970 L 4154 2682 L 2278 2560 C 2541 2752 2803 2963 3034 3181 L 4147 3181 L 3814 2970 z M 1139 3834 L 1139 4230 L 5229 4230 L 5229 3834 L 1139 3834 z" transform="scale(0.015625)"/><path id="NotoSansCJKsc-Bold-5185" d="M 570 4371 L 570 -589 L 1338 -589 L 1338 1229 C 1523 1082 1766 813 1875 659 C 2573 1075 3002 1594 3251 2144 C 3718 1670 4205 1152 4461 794 L 5094 1293 C 4749 1741 4051 2400 3507 2893 C 3558 3142 3584 3386 3597 3622 L 5094 3622 L 5094 314 C 5094 205 5050 173 4934 166 C 4806 166 4378 160 4000 179 C 4109 -19 4224 -365 4256 -582 C 4826 -582 5229 -570 5498 -448 C 5766 -326 5856 -109 5856 301 L 5856 4371 L 3603 4371 L 3603 5440 L 2810 5440 L 2810 4371 L 570 4371 z M 1338 1254 L 1338 3622 L 2803 3622 C 2771 2835 2554 1882 1338 1254 z" transform="scale(0.015625)"/><path id="NotoSansCJKsc-Bold-4fef" d="M 3821 2080 C 4038 1664 4307 1107 4429 749 L 4954 1043 C 4826 1389 4557 1920 4320 2336 L 3821 2080 z M 3571 5331 L 3750 4864 L 1933 4864 L 1933 2547 C 1933 1696 1914 576 1549 -186 C 1709 -256 2016 -454 2138 -576 C 2496 154 2592 1261 2605 2150 C 2688 1990 2790 1741 2835 1594 C 2899 1670 2963 1747 3027 1837 L 3027 -525 L 3661 -525 L 3661 3053 C 3776 3360 3878 3674 3955 3981 L 3328 4128 C 3219 3514 2976 2733 2611 2246 L 2611 2547 L 2611 4198 L 6195 4198 L 6195 4864 L 4518 4864 C 4442 5062 4346 5306 4262 5498 L 3571 5331 z M 5024 4026 L 5024 3258 L 3866 3258 L 3866 2624 L 5024 2624 L 5024 211 C 5024 134 4998 115 4922 109 C 4838 102 4602 102 4358 115 C 4442 -70 4518 -346 4544 -525 C 4947 -525 5229 -506 5427 -403 C 5626 -301 5677 -122 5677 205 L 5677 2624 L 6138 2624 L 6138 3258 L 5677 3258 L 5677 4026 L 5024 4026 z M 1312 5427 C 1043 4493 595 3552 96 2944 C 218 2752 397 2330 461 2150 C 570 2285 672 2426 774 2579 L 774 -563 L 1491 -563 L 1491 3904 C 1683 4339 1856 4794 1990 5229 L 1312 5427 z" transform="scale(0.015625)"/><path id="NotoSansCJKsc-Bold-89c6" d="M 2771 5152 L 2771 1741 L 3507 1741 L 3507 4486 L 5171 4486 L 5171 1741 L 5946 1741 L 5946 5152 L 2771 5152 z M 3968 4115 L 3968 3098 C 3968 2112 3795 832 2163 -19 C 2310 -128 2566 -422 2656 -576 C 3443 -160 3936 397 4243 992 L 4243 205 C 4243 -339 4454 -493 4979 -493 L 5421 -493 C 6067 -493 6176 -186 6240 813 C 6061 851 5818 954 5645 1094 C 5626 256 5587 70 5427 70 L 5126 70 C 4998 70 4954 122 4954 294 L 4954 1760 L 4538 1760 C 4666 2221 4704 2675 4704 3078 L 4704 4115 L 3968 4115 z M 832 5094 C 1011 4883 1203 4595 1318 4365 L 346 4365 L 346 3674 L 1690 3674 C 1338 2944 768 2259 179 1875 C 269 1722 429 1299 480 1075 C 666 1216 851 1376 1037 1562 L 1037 -570 L 1766 -570 L 1766 1933 C 1933 1690 2099 1427 2202 1248 L 2675 1850 C 2573 1978 2170 2445 1926 2707 C 2202 3149 2432 3629 2598 4115 L 2195 4390 L 2061 4365 L 1594 4365 L 2010 4614 C 1907 4851 1664 5184 1434 5427 L 832 5094 z" transform="scale(0.015625)"/><path id="NotoSansCJKsc-Bold-6548" d="M 1235 5229 C 1363 5024 1498 4762 1568 4550 L 294 4550 L 294 3866 L 2509 3866 L 2029 3610 C 2227 3354 2438 3027 2592 2739 L 1984 2848 C 1933 2618 1862 2394 1786 2176 L 1350 2624 L 877 2272 C 1152 2682 1427 3194 1619 3654 L 966 3859 C 762 3341 435 2784 115 2419 C 269 2304 525 2061 640 1933 L 819 2182 C 1030 1965 1248 1722 1466 1472 C 1146 902 710 442 160 115 C 307 -13 576 -301 672 -448 C 1178 -109 1606 339 1946 883 C 2176 582 2374 294 2502 58 L 3117 538 C 2938 838 2650 1216 2323 1594 C 2458 1901 2573 2227 2669 2579 C 2714 2483 2752 2394 2778 2317 L 3072 2483 C 3219 2330 3443 2035 3520 1888 C 3616 2010 3706 2144 3789 2285 C 3917 1875 4070 1498 4250 1146 C 3885 634 3398 243 2746 -38 C 2906 -173 3181 -467 3277 -608 C 3834 -326 4288 32 4653 474 C 4954 45 5306 -314 5728 -582 C 5850 -390 6086 -109 6259 32 C 5798 294 5414 678 5094 1139 C 5459 1811 5690 2624 5837 3610 L 6144 3610 L 6144 4320 L 4557 4320 C 4634 4646 4698 4986 4755 5331 L 4038 5446 C 3904 4480 3674 3546 3290 2874 C 3130 3187 2874 3565 2630 3866 L 3360 3866 L 3360 4550 L 1862 4550 L 2291 4717 C 2221 4928 2054 5229 1894 5459 L 1235 5229 z M 4358 3610 L 5101 3610 C 5011 2957 4870 2387 4666 1894 C 4480 2304 4326 2746 4218 3200 L 4358 3610 z" transform="scale(0.015625)"/><path id="NotoSansCJKsc-Bold-679c" d="M 973 5139 L 973 2451 L 2810 2451 L 2810 2067 L 346 2067 L 346 1370 L 2246 1370 C 1702 883 909 461 147 237 C 320 77 550 -218 672 -403 C 1440 -122 2221 378 2810 966 L 2810 -576 L 3622 -576 L 3622 998 C 4218 422 4998 -77 5741 -365 C 5856 -166 6086 128 6259 288 C 5530 506 4749 909 4186 1370 L 6074 1370 L 6074 2067 L 3622 2067 L 3622 2451 L 5478 2451 L 5478 5139 L 973 5139 z M 1773 3501 L 2810 3501 L 2810 3091 L 1773 3091 L 1773 3501 z M 3622 3501 L 4640 3501 L 4640 3091 L 3622 3091 L 3622 3501 z M 1773 4499 L 2810 4499 L 2810 4096 L 1773 4096 L 1773 4499 z M 3622 4499 L 4640 4499 L 4640 4096 L 3622 4096 L 3622 4499 z" transform="scale(0.015625)"/><path id="NotoSansCJKsc-Bold-56fe" d="M 461 5190 L 461 -576 L 1197 -576 L 1197 -346 L 5178 -346 L 5178 -576 L 5952 -576 L 5952 5190 L 461 5190 z M 1702 890 C 2560 794 3616 550 4256 326 L 1197 326 L 1197 2234 C 1306 2080 1421 1862 1472 1715 C 1824 1798 2176 1907 2528 2042 L 2291 1709 C 2829 1600 3507 1370 3885 1190 L 4198 1664 C 3834 1824 3232 2010 2720 2118 C 2893 2195 3072 2272 3238 2362 C 3731 2112 4282 1920 4838 1798 C 4909 1939 5050 2138 5178 2278 L 5178 326 L 4339 326 L 4666 845 C 4006 1062 2925 1299 2048 1389 L 1702 890 z M 2586 4506 C 2278 4038 1741 3578 1222 3290 C 1370 3181 1613 2957 1728 2829 C 1856 2912 1984 3008 2118 3117 C 2259 2989 2413 2867 2573 2752 C 2138 2579 1658 2438 1197 2349 L 1197 4506 L 2586 4506 z M 2656 4506 L 5178 4506 L 5178 2381 C 4736 2464 4288 2586 3885 2739 C 4320 3040 4691 3392 4954 3789 L 4525 4045 L 4416 4013 L 3008 4013 C 3085 4109 3162 4211 3226 4307 L 2656 4506 z M 3213 3046 C 2982 3168 2778 3302 2605 3450 L 3840 3450 C 3661 3302 3443 3168 3213 3046 z" transform="scale(0.015625)"/></defs><use xlink:href="#NotoSansCJKsc-Bold-4e00"/><use transform="translate(99.999985 0)" xlink:href="#NotoSansCJKsc-Bold-5c42"/><use transform="translate(199.999969 0)" xlink:href="#NotoSansCJKsc-Bold-5ba4"/><use transform="translate(299.999954 0)" xlink:href="#NotoSansCJKsc-Bold-5185"/><use transform="translate(399.999939 0)" xlink:href="#NotoSansCJKsc-Bold-4fef"/><use transform="translate(499.999924 0)" xlink:href="#NotoSansCJKsc-Bold-89c6"/><use transform="translate(599.999908 0)" xlink:href="#NotoSansCJKsc-Bold-6548"/><use transform="translate(699.999893 0)" xlink:href="#NotoSansCJKsc-Bold-679c"/><use transform="translate(799.999878 0)" xlink:href="#NotoSansCJKsc-Bold-56fe"/></g></g><g id="patch_11"><path d="M 105.684 593.743438 L 286.788 593.743438 L 286.788 548.467438 L 105.684 548.467438 z" clip-path="url(#p073a825331)" style="fill:#8ba87a;stroke:#6a8a5a;stroke-width:.5;stroke-linejoin:miter"/></g><g id="patch_12"><path d="M 108.918 590.509437 L 163.896 590.509437 L 163.896 552.995037 L 108.918 552.995037 z" clip-path="url(#p073a825331)" style="fill:#8ba87a;stroke:#6a8a5a;stroke-width:.5;stroke-linejoin:miter"/></g><g id="patch_13"><path d="M 167.13 590.509437 L 222.108 590.509437 L 222.108 552.995037 L 167.13 552.995037 z" clip-path="url(#p073a825331)" style="fill:#8ba87a;stroke:#6a8a5a;stroke-width:.5;stroke-linejoin:miter"/></g><g id="patch_14"><path d="M 286.788 600.211437 L 332.064 600.211437 L 332.064 548.467437 L 286.788 548.467437 z" clip-path="url(#p073a825331)" style="fill:#8ba87a;stroke:#6a8a5a;stroke-width:.5;stroke-linejoin:miter"/></g><g id="patch_15"><path d="M 118.62 624.789837 L 280.32 624.789837 L 280.32 617.028237 L 118.62 617.028237 z" clip-path="url(#p073a825331)" style="fill:#5a5a5a;stroke:#3a3a3a;stroke-width:.4;stroke-linejoin:miter"/></g><g id="patch_16"><path d="M 409.68 512.893438 C 419.114335 512.893438 428.163534 509.145136 434.834617 502.474054 C 441.505699 495.802972 445.254 486.753773 445.254 477.319437 C 445.254 467.885102 441.505699 458.835903 434.834617 452.164821 C 428.163534 445.493739 419.114335 441.745437 409.68 441.745437 C 400.245665 441.745437 391.196466 445.493739 384.525383 452.164821 C 377.854301 458.835903 374.106 467.885102 374.106 477.319437 C 374.106 486.753773 377.854301 495.802972 384.525383 502.474054 C 391.196466 509.145136 400.245665 512.893438 409.68 512.893438 z" clip-path="url(#p073a825331)" style="fill:#f0e8d8;stroke:#c0b8a0;stroke-width:.6;stroke-linejoin:miter"/></g><g id="patch_17"><path d="M 458.19 485.081037 C 460.2484 485.081037 462.222771 484.263226 463.67828 482.807717 C 465.133789 481.352209 465.9516 479.377838 465.9516 477.319437 C 465.9516 475.261037 465.133789 473.286666 463.67828 471.831158 C 462.222771 470.375649 460.2484 469.557838 458.19 469.557838 C 456.1316 469.557838 454.157229 470.375649 452.70172 471.831158 C 451.246211 473.286666 450.4284 475.261037 450.4284 477.319437 C 450.4284 479.377838 451.246211 481.352209 452.70172 482.807717 C 454.157229 484.263226 456.1316 485.081037 458.19 485.081037 z" clip-path="url(#p073a825331)" style="fill:#a0a0a0;stroke:gray;stroke-width:.3;stroke-linejoin:miter"/></g><g id="patch_18"><path d="M 443.98175 450.779288 C 446.04015 450.779288 448.014521 449.961476 449.47003 448.505968 C 450.925539 447.050459 451.74335 445.076088 451.74335 443.017688 C 451.74335 440.959287 450.925539 438.984916 449.47003 437.529408 C 448.014521 436.073899 446.04015 435.256088 443.98175 435.256088 C 441.92335 435.256088 439.948979 436.073899 438.49347 437.529408 C 437.037961 438.984916 436.22015 440.959287 436.22015 443.017688 C 436.22015 445.076088 437.037961 447.050459 438.49347 448.505968 C 439.948979 449.961476 441.92335 450.779288 443.98175 450.779288 z" clip-path="url(#p073a825331)" style="fill:#a0a0a0;stroke:gray;stroke-width:.3;stroke-linejoin:miter"/></g><g id="patch_19"><path d="M 409.68 436.571037 C 411.7384 436.571037 413.712771 435.753226 415.16828 434.297717 C 416.623789 432.842209 417.4416 430.867838 417.4416 428.809438 C 417.4416 426.751037 416.623789 424.776666 415.16828 423.321158 C 413.712771 421.865649 411.7384 421.047838 409.68 421.047838 C 407.6216 421.047838 405.647229 421.865649 404.19172 423.321158 C 402.736211 424.776666 401.9184 426.751037 401.9184 428.809438 C 401.9184 430.867838 402.736211 432.842209 404.19172 434.297717 C 405.647229 435.753226 407.6216 436.571037 409.68 436.571037 z" clip-path="url(#p073a825331)" style="fill:#a0a0a0;stroke:gray;stroke-width:.3;stroke-linejoin:miter"/></g><g id="patch_20"><path d="M 375.37825 450.779288 C 377.43665 450.779288 379.411021 449.961476 380.86653 448.505968 C 382.322039 447.050459 383.13985 445.076088 383.13985 443.017688 C 383.13985 440.959287 382.322039 438.984916 380.86653 437.529408 C 379.411021 436.073899 377.43665 435.256088 375.37825 435.256088 C 373.31985 435.256088 371.345479 436.073899 369.88997 437.529408 C 368.434461 438.984916 367.61665 440.959287 367.61665 443.017688 C 367.61665 445.076088 368.434461 447.050459 369.88997 448.505968 C 371.345479 449.961476 373.31985 450.779288 375.37825 450.779288 z" clip-path="url(#p073a825331)" style="fill:#a0a0a0;stroke:gray;stroke-width:.3;stroke-linejoin:miter"/></g><g id="patch_21"><path d="M 361.17 485.081037 C 363.2284 485.081037 365.202771 484.263226 366.65828 482.807717 C 368.113789 481.352209 368.9316 479.377838 368.9316 477.319437 C 368.9316 475.261037 368.113789 473.286666 366.65828 471.831158 C 365.202771 470.375649 363.2284 469.557838 361.17 469.557838 C 359.1116 469.557838 357.137229 470.375649 355.68172 471.831158 C 354.226211 473.286666 353.4084 475.261037 353.4084 477.319437 C 353.4084 479.377838 354.226211 481.352209 355.68172 482.807717 C 357.137229 484.263226 359.1116 485.081037 361.17 485.081037 z" clip-path="url(#p073a825331)" style="fill:#a0a0a0;stroke:gray;stroke-width:.3;stroke-linejoin:miter"/></g><g id="patch_22"><path d="M 375.37825 519.382787 C 377.43665 519.382787 379.411021 518.564976 380.86653 517.109467 C 382.322039 515.653959 383.13985 513.679588 383.13985 511.621187 C 383.13985 509.562787 382.322039 507.588416 380.86653 506.132907 C 379.411021 504.677399 377.43665 503.859587 375.37825 503.859587 C 373.31985 503.859587 371.345479 504.677399 369.88997 506.132907 C 368.434461 507.588416 367.61665 509.562787 367.61665 511.621187 C 367.61665 513.679588 368.434461 515.653959 369.88997 517.109467 C 371.345479 518.564976 373.31985 519.382787 375.37825 519.382787 z" clip-path="url(#p073a825331)" style="fill:#a0a0a0;stroke:gray;stroke-width:.3;stroke-linejoin:miter"/></g><g id="patch_23"><path d="M 409.68 533.591038 C 411.7384 533.591038 413.712771 532.773226 415.16828 531.317717 C 416.623789 529.862209 417.4416 527.887838 417.4416 525.829438 C 417.4416 523.771037 416.623789 521.796666 415.16828 520.341158 C 413.712771 518.885649 411.7384 518.067837 409.68 518.067837 C 407.6216 518.067837 405.647229 518.885649 404.19172 520.341158 C 402.736211 521.796666 401.9184 523.771037 401.9184 525.829438 C 401.9184 527.887838 402.736211 529.862209 404.19172 531.317717 C 405.647229 532.773226 407.6216 533.591038 409.68 533.591038 z" clip-path="url(#p073a825331)" style="fill:#a0a0a0;stroke:gray;stroke-width:.3;stroke-linejoin:miter"/></g><g id="patch_24"><path d="M 443.98175 519.382787 C 446.04015 519.382787 448.014521 518.564976 449.47003 517.109467 C 450.925539 515.653959 451.74335 513.679588 451.74335 511.621187 C 451.74335 509.562787 450.925539 507.588416 449.47003 506.132907 C 448.014521 504.677399 446.04015 503.859587 443.98175 503.859587 C 441.92335 503.859587 439.948979 504.677399 438.49347 506.132907 C 437.037961 507.588416 436.22015 509.562787 436.22015 511.621187 C 436.22015 513.679588 437.037961 515.653959 438.49347 517.109467 C 439.948979 518.564976 441.92335 519.382787 443.98175 519.382787 z" clip-path="url(#p073a825331)" style="fill:#a0a0a0;stroke:gray;stroke-width:.3;stroke-linejoin:miter"/></g><g id="patch_25"><path d="M 75.9312 307.857837 L 354.0552 307.857837 L 354.0552 272.283838 L 111.5052 272.283838 L 111.5052 98.294637 L 75.9312 98.294637 z" clip-path="url(#p073a825331)" style="fill:#d8d0c0;stroke:#a8a098;stroke-width:.5;stroke-linejoin:miter"/></g><g id="patch_26"><path d="M 624.4176 560.109837 L 740.8416 560.109837 L 740.8416 430.749837 L 624.4176 430.749837 z" clip-path="url(#p073a825331)" style="fill:#e8e0d5;stroke:#b0a898;stroke-width:.6;stroke-linejoin:miter"/></g><g id="patch_27"><path d="M 628.2984 453.387837 L 680.6892 453.387837 L 680.6892 435.277437 L 628.2984 435.277437 z" clip-path="url(#p073a825331)" style="fill:#f5f0e8;stroke:#c0b8a8;stroke-width:.4;stroke-linejoin:miter"/></g><g id="patch_28"><path d="M 684.57 453.387837 L 736.9608 453.387837 L 736.9608 435.277437 L 684.57 435.277437 z" clip-path="url(#p073a825331)" style="fill:#f5f0e8;stroke:#c0b8a8;stroke-width:.4;stroke-linejoin:miter"/></g><g id="patch_29"><path d="M 844.3296 495.429838 L 937.4688 495.429838 L 937.4688 463.089838 L 844.3296 463.089838 z" clip-path="url(#p073a825331)" style="fill:#c8b8a0;stroke:#a8a088;stroke-width:.5;stroke-linejoin:miter"/></g><g id="patch_30"><path d="M 863.7336 613.147438 C 866.3066 613.147438 868.774564 612.329626 870.59395 610.874117 C 872.413336 609.418609 873.4356 607.444238 873.4356 605.385837 C 873.4356 603.327437 872.413336 601.353066 870.59395 599.897558 C 868.774564 598.442049 866.3066 597.624237 863.7336 597.624237 C 861.1606 597.624237 858.692636 598.442049 856.87325 599.897558 C 855.053864 601.353066 854.0316 603.327437 854.0316 605.385837 C 854.0316 607.444238 855.053864 609.418609 856.87325 610.874117 C 858.692636 612.329626 861.1606 613.147438 863.7336 613.147438 z" clip-path="url(#p073a825331)" style="fill:#fff;stroke:#b0b0b0;stroke-width:.5;stroke-linejoin:miter"/></g><g id="patch_31"><path d="M 852.738 618.321837 L 874.7292 618.321837 L 874.7292 609.266637 L 852.738 609.266637 z" clip-path="url(#p073a825331)" style="fill:#fff;stroke:#b0b0b0;stroke-width:.4;stroke-linejoin:miter"/></g><g id="patch_32"><path d="M 857.2656 548.467437 L 886.3716 548.467437 L 886.3716 525.829438 L 857.2656 525.829438 z" clip-path="url(#p073a825331)" style="fill:#fff;stroke:#b0b0b0;stroke-width:.4;stroke-linejoin:miter"/></g><g id="patch_33"><path d="M 871.8186 541.676038 C 873.019334 541.676038 874.17105 541.198981 875.020097 540.349934 C 875.869144 539.500887 876.3462 538.349171 876.3462 537.148438 C 876.3462 535.947704 875.869144 534.795988 875.020097 533.946941 C 874.17105 533.097894 873.019334 532.620837 871.8186 532.620837 C 870.617866 532.620837 869.46615 533.097894 868.617103 533.946941 C 867.768056 534.795988 867.291 535.947704 867.291 537.148438 C 867.291 538.349171 867.768056 539.500887 868.617103 540.349934 C 869.46615 541.198981 870.617866 541.676038 871.8186 541.676038 z" clip-path="url(#p073a825331)" style="fill:#d0d0d0;stroke:#a0a0a0;stroke-width:.3;stroke-linejoin:miter"/></g><g id="patch_34"><path d="M 889.6056 624.789837 L 941.3496 624.789837 L 941.3496 573.045837 L 889.6056 573.045837 z" clip-path="url(#p073a825331)" style="fill:#e8e8e8;stroke:#b0b0b0;stroke-width:.5;stroke-linejoin:miter"/></g><g id="patch_35"><path d="M 915.4776 609.266637 C 918.222134 609.266637 920.854628 608.176223 922.795307 606.235544 C 924.735985 604.294866 925.8264 601.662371 925.8264 598.917837 C 925.8264 596.173304 924.735985 593.540809 922.795307 591.600131 C 920.854628 589.659452 918.222134 588.569037 915.4776 588.569037 C 912.733066 588.569037 910.100572 589.659452 908.159893 591.600131 C 906.219215 593.540809 905.1288 596.173304 905.1288 598.917837 C 905.1288 601.662371 906.219215 604.294866 908.159893 606.235544 C 910.100572 608.176223 912.733066 609.266637 915.4776 609.266637 z" clip-path="url(#p073a825331)" style="fill:#d0d0d0;stroke:#a0a0a0;stroke-width:.4;stroke-linejoin:miter"/></g><g id="patch_36"><path d="M 398.0376 289.747437 C 400.6106 289.747437 403.078564 288.929626 404.89795 287.474117 C 406.717336 286.018609 407.7396 284.044238 407.7396 281.985837 C 407.7396 279.927437 406.717336 277.953066 404.89795 276.497558 C 403.078564 275.042049 400.6106 274.224237 398.0376 274.224237 C 395.4646 274.224237 392.996636 275.042049 391.17725 276.497558 C 389.357864 277.953066 388.3356 279.927437 388.3356 281.985837 C 388.3356 284.044238 389.357864 286.018609 391.17725 287.474117 C 392.996636 288.929626 395.4646 289.747437 398.0376 289.747437 z" clip-path="url(#p073a825331)" style="fill:#fff;stroke:#b0b0b0;stroke-width:.5;stroke-linejoin:miter"/></g><g id="patch_37"><path d="M 387.042 294.921837 L 409.0332 294.921837 L 409.0332 285.866637 L 387.042 285.866637 z" clip-path="url(#p073a825331)" style="fill:#fff;stroke:#b0b0b0;stroke-width:.4;stroke-linejoin:miter"/></g><g id="patch_38"><path d="M 391.5696 130.634637 L 420.6756 130.634637 L 420.6756 107.996637 L 391.5696 107.996637 z" clip-path="url(#p073a825331)" style="fill:#fff;stroke:#b0b0b0;stroke-width:.4;stroke-linejoin:miter"/></g><g id="patch_39"><path d="M 406.1226 123.843237 C 407.323334 123.843237 408.47505 123.366181 409.324097 122.517134 C 410.173144 121.668087 410.6502 120.516371 410.6502 119.315637 C 410.6502 118.114904 410.173144 116.963188 409.324097 116.114141 C 408.47505 115.265094 407.323334 114.788037 406.1226 114.788037 C 404.921866 114.788037 403.77015 115.265094 402.921103 116.114141 C 402.072056 116.963188 401.595 118.114904 401.595 119.315637 C 401.595 120.516371 402.072056 121.668087 402.921103 122.517134 C 403.77015 123.366181 404.921866 123.843237 406.1226 123.843237 z" clip-path="url(#p073a825331)" style="fill:#d0d0d0;stroke:#a0a0a0;stroke-width:.3;stroke-linejoin:miter"/></g><g id="patch_40"><path d="M 514.4616 294.921837 L 695.5656 294.921837 L 695.5656 100.881837 L 514.4616 100.881837 z" clip-path="url(#p073a825331)" style="fill:#c0b8a8;stroke:#a0a098;stroke-width:.6;stroke-linejoin:miter"/></g><g id="line2d_1"><path d="M 514.4616 281.061837 L 695.5656 281.061837" clip-path="url(#p073a825331)" style="fill:none;stroke:#a0a098;stroke-width:.3;stroke-linecap:square"/></g><g id="line2d_2"><path d="M 514.4616 267.201838 L 695.5656 267.201838" clip-path="url(#p073a825331)" style="fill:none;stroke:#a0a098;stroke-width:.3;stroke-linecap:square"/></g><g id="line2d_3"><path d="M 514.4616 253.341837 L 695.5656 253.341837" clip-path="url(#p073a825331)" style="fill:none;stroke:#a0a098;stroke-width:.3;stroke-linecap:square"/></g><g id="line2d_4"><path d="M 514.4616 239.481837 L 695.5656 239.481837" clip-path="url(#p073a825331)" style="fill:none;stroke:#a0a098;stroke-width:.3;stroke-linecap:square"/></g><g id="line2d_5"><path d="M 514.4616 225.621837 L 695.5656 225.621837" clip-path="url(#p073a825331)" style="fill:none;stroke:#a0a098;stroke-width:.3;stroke-linecap:square"/></g><g id="line2d_6"><path d="M 514.4616 211.761837 L 695.5656 211.761837" clip-path="url(#p073a825331)" style="fill:none;stroke:#a0a098;stroke-width:.3;stroke-linecap:square"/></g><g id="line2d_7"><path d="M 514.4616 197.901837 L 695.5656 197.901837" clip-path="url(#p073a825331)" style="fill:none;stroke:#a0a098;stroke-width:.3;stroke-linecap:square"/></g><g id="line2d_8"><path d="M 514.4616 184.041837 L 695.5656 184.041837" clip-path="url(#p073a825331)" style="fill:none;stroke:#a0a098;stroke-width:.3;stroke-linecap:square"/></g><g id="line2d_9"><path d="M 514.4616 170.181838 L 695.5656 170.181838" clip-path="url(#p073a825331)" style="fill:none;stroke:#a0a098;stroke-width:.3;stroke-linecap:square"/></g><g id="line2d_10"><path d="M 514.4616 156.321837 L 695.5656 156.321837" clip-path="url(#p073a825331)" style="fill:none;stroke:#a0a098;stroke-width:.3;stroke-linecap:square"/></g><g id="line2d_11"><path d="M 514.4616 142.461838 L 695.5656 142.461838" clip-path="url(#p073a825331)" style="fill:none;stroke:#a0a098;stroke-width:.3;stroke-linecap:square"/></g><g id="line2d_12"><path d="M 514.4616 128.601837 L 695.5656 128.601837" clip-path="url(#p073a825331)" style="fill:none;stroke:#a0a098;stroke-width:.3;stroke-linecap:square"/></g><g id="line2d_13"><path d="M 514.4616 114.741837 L 695.5656 114.741837" clip-path="url(#p073a825331)" style="fill:none;stroke:#a0a098;stroke-width:.3;stroke-linecap:square"/></g><g id="patch_41"><path d="M 53.94 787.783437 L 959.46 787.783437 L 959.46 772.260237 L 53.94 772.260237 z" clip-path="url(#p073a825331)" style="fill:#3a3a3a;stroke:#2a2a2a;stroke-width:.8;stroke-linejoin:miter"/></g><g id="patch_42"><path d="M 53.94 91.826637 L 959.46 91.826637 L 959.46 76.303437 L 53.94 76.303437 z" clip-path="url(#p073a825331)" style="fill:#3a3a3a;stroke:#2a2a2a;stroke-width:.8;stroke-linejoin:miter"/></g><g id="patch_43"><path d="M 53.94 787.783437 L 69.4632 787.783437 L 69.4632 76.303437 L 53.94 76.303437 z" clip-path="url(#p073a825331)" style="fill:#3a3a3a;stroke:#2a2a2a;stroke-width:.8;stroke-linejoin:miter"/></g><g id="patch_44"><path d="M 943.9368 787.783437 L 959.46 787.783437 L 959.46 76.303437 L 943.9368 76.303437 z" clip-path="url(#p073a825331)" style="fill:#3a3a3a;stroke:#2a2a2a;stroke-width:.8;stroke-linejoin:miter"/></g><g id="patch_45"><path d="M 69.4632 645.487437 L 584.316 645.487437 L 584.316 637.725837 L 69.4632 637.725837 z" clip-path="url(#p073a825331)" style="fill:#3a3a3a;stroke:#2a2a2a;stroke-width:.3;stroke-linejoin:miter"/></g><g id="patch_46"><path d="M 592.0776 645.487437 L 943.9368 645.487437 L 943.9368 637.725837 L 592.0776 637.725837 z" clip-path="url(#p073a825331)" style="fill:#3a3a3a;stroke:#2a2a2a;stroke-width:.3;stroke-linejoin:miter"/></g><g id="patch_47"><path d="M 69.4632 322.087437 L 943.9368 322.087437 L 943.9368 314.325837 L 69.4632 314.325837 z" clip-path="url(#p073a825331)" style="fill:#3a3a3a;stroke:#2a2a2a;stroke-width:.3;stroke-linejoin:miter"/></g><g id="patch_48"><path d="M 837.8616 516.127437 L 943.9368 516.127437 L 943.9368 508.365837 L 837.8616 508.365837 z" clip-path="url(#p073a825331)" style="fill:#3a3a3a;stroke:#2a2a2a;stroke-width:.3;stroke-linejoin:miter"/></g><g id="patch_49"><path d="M 584.316 772.260237 L 592.0776 772.260237 L 592.0776 322.087437 L 584.316 322.087437 z" clip-path="url(#p073a825331)" style="fill:#3a3a3a;stroke:#2a2a2a;stroke-width:.3;stroke-linejoin:miter"/></g><g id="patch_50"><path d="M 830.1 637.725837 L 837.8616 637.725837 L 837.8616 322.087438 L 830.1 322.087438 z" clip-path="url(#p073a825331)" style="fill:#3a3a3a;stroke:#2a2a2a;stroke-width:.3;stroke-linejoin:miter"/></g><g id="patch_51"><path d="M 364.404 314.325837 L 372.1656 314.325837 L 372.1656 91.826637 L 364.404 91.826637 z" clip-path="url(#p073a825331)" style="fill:#3a3a3a;stroke:#2a2a2a;stroke-width:.3;stroke-linejoin:miter"/></g><g id="patch_52"><path d="M 480.828 314.325837 L 488.5896 314.325837 L 488.5896 91.826637 L 480.828 91.826637 z" clip-path="url(#p073a825331)" style="fill:#3a3a3a;stroke:#2a2a2a;stroke-width:.3;stroke-linejoin:miter"/></g><g id="patch_53"><path d="M 118.62 790.370637 L 442.02 790.370637 L 442.02 785.196237 L 118.62 785.196237 z" clip-path="url(#p073a825331)" style="fill:#a8c8d8;stroke:#7098a8;stroke-width:.8;stroke-linejoin:miter"/></g><g id="patch_54"><path d="M 105.684 78.890637 L 267.384 78.890637 L 267.384 73.716237 L 105.684 73.716237 z" clip-path="url(#p073a825331)" style="fill:#a8c8d8;stroke:#7098a8;stroke-width:.8;stroke-linejoin:miter"/></g><g id="patch_55"><path d="M 385.1016 78.890637 L 449.7816 78.890637 L 449.7816 73.716237 L 385.1016 73.716237 z" clip-path="url(#p073a825331)" style="fill:#a8c8d8;stroke:#7098a8;stroke-width:.8;stroke-linejoin:miter"/></g><g id="patch_56"><path d="M 585.6096 78.890637 L 811.9896 78.890637 L 811.9896 73.716237 L 585.6096 73.716237 z" clip-path="url(#p073a825331)" style="fill:#a8c8d8;stroke:#7098a8;stroke-width:.8;stroke-linejoin:miter"/></g><g id="patch_57"><path d="M 51.3528 593.743438 L 56.5272 593.743438 L 56.5272 367.363438 L 51.3528 367.363438 z" clip-path="url(#p073a825331)" style="fill:#a8c8d8;stroke:#7098a8;stroke-width:.8;stroke-linejoin:miter"/></g><g id="patch_58"><path d="M 51.3528 281.985837 L 56.5272 281.985837 L 56.5272 120.285837 L 51.3528 120.285837 z" clip-path="url(#p073a825331)" style="fill:#a8c8d8;stroke:#7098a8;stroke-width:.8;stroke-linejoin:miter"/></g><g id="patch_59"><path d="M 956.8728 605.385837 L 962.0472 605.385837 L 962.0472 379.005837 L 956.8728 379.005837 z" clip-path="url(#p073a825331)" style="fill:#a8c8d8;stroke:#7098a8;stroke-width:.8;stroke-linejoin:miter"/></g><g id="patch_60"><path d="M 956.8728 281.985837 L 962.0472 281.985837 L 962.0472 152.625837 L 956.8728 152.625837 z" clip-path="url(#p073a825331)" style="fill:#a8c8d8;stroke:#7098a8;stroke-width:.8;stroke-linejoin:miter"/></g><g id="patch_61"><path d="M 747.3096 772.260237 C 747.3096 751.683089 739.126641 731.927679 724.5764 717.377438 C 710.026159 702.827196 690.270748 694.644237 669.6936 694.644237" clip-path="url(#p073a825331)" style="fill:none;stroke:#5a5a5a;stroke-width:.6;stroke-linejoin:miter"/></g><g id="patch_62"><path d="M 280.32 703.699437 C 295.752861 703.699437 310.569419 697.562218 321.4821 686.649537 C 332.394781 675.736857 338.532 660.920299 338.532 645.487437" clip-path="url(#p073a825331)" style="fill:none;stroke:#5a5a5a;stroke-width:.6;stroke-linejoin:miter"/></g><g id="patch_63"><path d="M 273.852 314.325837 C 273.852 298.892976 267.714781 284.076418 256.8021 273.163738 C 245.889419 262.251057 231.072861 256.113837 215.64 256.113837" clip-path="url(#p073a825331)" style="fill:none;stroke:#5a5a5a;stroke-width:.6;stroke-linejoin:miter"/></g><g id="patch_64"><path d="M 605.0136 286.455879 Q 605.0136 197.901748 605.0136 110.465652" style="fill:none;stroke:#c00;stroke-linecap:round"/><path d="M 603.0136 114.465652 L 605.0136 110.465652 L 607.0136 114.465652" style="fill:none;stroke:#c00;stroke-linecap:round"/></g><g id="patch_65"><path d="M 312.66 714.048238 C 313.6892 714.048238 314.676386 713.639332 315.40414 712.911577 C 316.131894 712.183823 316.5408 711.196638 316.5408 710.167438 C 316.5408 709.138237 316.131894 708.151052 315.40414 707.423298 C 314.676386 706.695543 313.6892 706.286637 312.66 706.286637 C 311.6308 706.286637 310.643614 706.695543 309.91586 707.423298 C 309.188106 708.151052 308.7792 709.138237 308.7792 710.167438 C 308.7792 711.196638 309.188106 712.183823 309.91586 712.911577 C 310.643614 713.639332 311.6308 714.048238 312.66 714.048238 z" clip-path="url(#p073a825331)" style="fill:gold;opacity:.7;stroke:#c90;stroke-width:.3;stroke-linejoin:miter"/></g><g id="patch_66"><path d="M 765.42 714.048238 C 766.4492 714.048238 767.436386 713.639332 768.16414 712.911577 C 768.891894 712.183823 769.3008 711.196638 769.3008 710.167438 C 769.3008 709.138237 768.891894 708.151052 768.16414 707.423298 C 767.436386 706.695543 766.4492 706.286637 765.42 706.286637 C 764.3908 706.286637 763.403614 706.695543 762.67586 707.423298 C 761.948106 708.151052 761.5392 709.138237 761.5392 710.167438 C 761.5392 711.196638 761.948106 712.183823 762.67586 712.911577 C 763.403614 713.639332 764.3908 714.048238 765.42 714.048238 z" clip-path="url(#p073a825331)" style="fill:gold;opacity:.7;stroke:#c90;stroke-width:.3;stroke-linejoin:miter"/></g><g id="patch_67"><path d="M 312.66 487.668237 C 313.6892 487.668237 314.676386 487.259332 315.40414 486.531577 C 316.131894 485.803823 316.5408 484.816638 316.5408 483.787437 C 316.5408 482.758237 316.131894 481.771052 315.40414 481.043298 C 314.676386 480.315543 313.6892 479.906637 312.66 479.906637 C 311.6308 479.906637 310.643614 480.315543 309.91586 481.043298 C 309.188106 481.771052 308.7792 482.758237 308.7792 483.787437 C 308.7792 484.816638 309.188106 485.803823 309.91586 486.531577 C 310.643614 487.259332 311.6308 487.668237 312.66 487.668237 z" clip-path="url(#p073a825331)" style="fill:gold;opacity:.7;stroke:#c90;stroke-width:.3;stroke-linejoin:miter"/></g><g id="patch_68"><path d="M 409.68 520.008237 C 410.7092 520.008237 411.696386 519.599332 412.42414 518.871577 C 413.151894 518.143823 413.5608 517.156638 413.5608 516.127437 C 413.5608 515.098237 413.151894 514.111052 412.42414 513.383298 C 411.696386 512.655543 410.7092 512.246637 409.68 512.246637 C 408.6508 512.246637 407.663614 512.655543 406.93586 513.383298 C 406.208106 514.111052 405.7992 515.098237 405.7992 516.127437 C 405.7992 517.156638 406.208106 518.143823 406.93586 518.871577 C 407.663614 519.599332 408.6508 520.008237 409.68 520.008237 z" clip-path="url(#p073a825331)" style="fill:gold;opacity:.7;stroke:#c90;stroke-width:.3;stroke-linejoin:miter"/></g><g id="patch_69"><path d="M 215.64 209.544237 C 216.6692 209.544237 217.656386 209.135332 218.38414 208.407577 C 219.111894 207.679823 219.5208 206.692638 219.5208 205.663437 C 219.5208 204.634237 219.111894 203.647052 218.38414 202.919298 C 217.656386 202.191543 216.6692 201.782637 215.64 201.782637 C 214.6108 201.782637 213.623614 202.191543 212.89586 202.919298 C 212.168106 203.647052 211.7592 204.634237 211.7592 205.663437 C 211.7592 206.692638 212.168106 207.679823 212.89586 208.407577 C 213.623614 209.135332 214.6108 209.544237 215.64 209.544237 z" clip-path="url(#p073a825331)" style="fill:gold;opacity:.7;stroke:#c90;stroke-width:.3;stroke-linejoin:miter"/></g><g id="patch_70"><path d="M 422.616 209.544237 C 423.6452 209.544237 424.632386 209.135332 425.36014 208.407577 C 426.087894 207.679823 426.4968 206.692638 426.4968 205.663437 C 426.4968 204.634237 426.087894 203.647052 425.36014 202.919298 C 424.632386 202.191543 423.6452 201.782637 422.616 201.782637 C 421.5868 201.782637 420.599614 202.191543 419.87186 202.919298 C 419.144106 203.647052 418.7352 204.634237 418.7352 205.663437 C 418.7352 206.692638 419.144106 207.679823 419.87186 208.407577 C 420.599614 209.135332 421.5868 209.544237 422.616 209.544237 z" clip-path="url(#p073a825331)" style="fill:gold;opacity:.7;stroke:#c90;stroke-width:.3;stroke-linejoin:miter"/></g><g id="patch_71"><path d="M 733.08 209.544237 C 734.1092 209.544237 735.096386 209.135332 735.82414 208.407577 C 736.551894 207.679823 736.9608 206.692638 736.9608 205.663437 C 736.9608 204.634237 736.551894 203.647052 735.82414 202.919298 C 735.096386 202.191543 734.1092 201.782637 733.08 201.782637 C 732.0508 201.782637 731.063614 202.191543 730.33586 202.919298 C 729.608106 203.647052 729.1992 204.634237 729.1992 205.663437 C 729.1992 206.692638 729.608106 207.679823 730.33586 208.407577 C 731.063614 209.135332 732.0508 209.544237 733.08 209.544237 z" clip-path="url(#p073a825331)" style="fill:gold;opacity:.7;stroke:#c90;stroke-width:.3;stroke-linejoin:miter"/></g><g id="patch_72"><path d="M 700.74 487.668237 C 701.7692 487.668237 702.756386 487.259332 703.48414 486.531577 C 704.211894 485.803823 704.6208 484.816638 704.6208 483.787437 C 704.6208 482.758237 704.211894 481.771052 703.48414 481.043298 C 702.756386 480.315543 701.7692 479.906637 700.74 479.906637 C 699.7108 479.906637 698.723614 480.315543 697.99586 481.043298 C 697.268106 481.771052 696.8592 482.758237 696.8592 483.787437 C 696.8592 484.816638 697.268106 485.803823 697.99586 486.531577 C 698.723614 487.259332 699.7108 487.668237 700.74 487.668237 z" clip-path="url(#p073a825331)" style="fill:gold;opacity:.7;stroke:#c90;stroke-width:.3;stroke-linejoin:miter"/></g><g id="patch_73"><path d="M 894.78 584.688237 C 895.8092 584.688237 896.796386 584.279332 897.52414 583.551577 C 898.251894 582.823823 898.6608 581.836638 898.6608 580.807437 C 898.6608 579.778237 898.251894 578.791052 897.52414 578.063298 C 896.796386 577.335543 895.8092 576.926637 894.78 576.926637 C 893.7508 576.926637 892.763614 577.335543 892.03586 578.063298 C 891.308106 578.791052 890.8992 579.778237 890.8992 580.807437 C 890.8992 581.836638 891.308106 582.823823 892.03586 583.551577 C 892.763614 584.279332 893.7508 584.688237 894.78 584.688237 z" clip-path="url(#p073a825331)" style="fill:gold;opacity:.7;stroke:#c90;stroke-width:.3;stroke-linejoin:miter"/></g><g id="patch_74"><path d="M 86.28 760.617837 C 87.652267 760.617837 88.968514 760.07263 89.938853 759.102291 C 90.909193 758.131952 91.4544 756.815704 91.4544 755.443437 C 91.4544 754.071171 90.909193 752.754923 89.938853 751.784584 C 88.968514 750.814245 87.652267 750.269037 86.28 750.269037 C 84.907733 750.269037 83.591486 750.814245 82.621147 751.784584 C 81.650807 752.754923 81.1056 754.071171 81.1056 755.443437 C 81.1056 756.815704 81.650807 758.131952 82.621147 759.102291 C 83.591486 760.07263 84.907733 760.617837 86.28 760.617837 z" clip-path="url(#p073a825331)" style="fill:#4a8a3a;stroke:#3a6a2a;stroke-width:.3;stroke-linejoin:miter"/></g><g id="patch_75"><path d="M 539.04 760.617837 C 540.412267 760.617837 541.728514 760.07263 542.698853 759.102291 C 543.669193 758.131952 544.2144 756.815704 544.2144 755.443437 C 544.2144 754.071171 543.669193 752.754923 542.698853 751.784584 C 541.728514 750.814245 540.412267 750.269037 539.04 750.269037 C 537.667733 750.269037 536.351486 750.814245 535.381147 751.784584 C 534.410807 752.754923 533.8656 754.071171 533.8656 755.443437 C 533.8656 756.815704 534.410807 758.131952 535.381147 759.102291 C 536.351486 760.07263 537.667733 760.617837 539.04 760.617837 z" clip-path="url(#p073a825331)" style="fill:#4a8a3a;stroke:#3a6a2a;stroke-width:.3;stroke-linejoin:miter"/></g><g id="patch_76"><path d="M 86.28 372.537837 C 87.652267 372.537837 88.968514 371.99263 89.938853 371.022291 C 90.909193 370.051952 91.4544 368.735704 91.4544 367.363437 C 91.4544 365.991171 90.909193 364.674923 89.938853 363.704584 C 88.968514 362.734245 87.652267 362.189037 86.28 362.189037 C 84.907733 362.189037 83.591486 362.734245 82.621147 363.704584 C 81.650807 364.674923 81.1056 365.991171 81.1056 367.363437 C 81.1056 368.735704 81.650807 370.051952 82.621147 371.022291 C 83.591486 371.99263 84.907733 372.537837 86.28 372.537837 z" clip-path="url(#p073a825331)" style="fill:#4a8a3a;stroke:#3a6a2a;stroke-width:.3;stroke-linejoin:miter"/></g><g id="text_2"><g style="fill:#5a5a5a" transform="translate(318.8896 711.205712) scale(0.08 -0.08)"><defs><path id="NotoSansCJKsc-Bold-5ba2" d="M 2483 3232 L 3936 3232 C 3731 3027 3482 2842 3206 2675 C 2912 2829 2656 3008 2451 3206 L 2483 3232 z M 2624 5331 L 2829 4915 L 448 4915 L 448 3494 L 1197 3494 L 1197 4218 L 2400 4218 C 2080 3744 1485 3258 595 2925 C 762 2803 998 2534 1101 2355 C 1389 2490 1651 2630 1888 2784 C 2061 2611 2253 2451 2458 2304 C 1766 2010 966 1805 173 1690 C 307 1517 467 1203 538 1005 C 819 1056 1094 1120 1370 1190 L 1370 -576 L 2118 -576 L 2118 -378 L 4288 -378 L 4288 -563 L 5075 -563 L 5075 1235 C 5293 1190 5523 1152 5754 1120 C 5856 1338 6074 1677 6240 1856 C 5414 1939 4640 2099 3974 2336 C 4435 2669 4826 3066 5107 3526 L 4582 3840 L 4454 3802 L 3027 3802 L 3226 4070 L 2509 4218 L 5178 4218 L 5178 3494 L 5965 3494 L 5965 4915 L 3718 4915 C 3616 5114 3494 5338 3392 5517 L 2624 5331 z M 3194 1862 C 3533 1696 3898 1549 4288 1434 L 2182 1434 C 2534 1555 2874 1702 3194 1862 z M 2118 256 L 2118 800 L 4288 800 L 4288 256 L 2118 256 z" transform="scale(0.015625)"/><path id="NotoSansCJKsc-Bold-5385" d="M 742 5094 L 742 2662 C 742 1779 704 659 154 -96 C 326 -186 659 -448 787 -589 C 1414 262 1510 1664 1510 2662 L 1510 4358 L 6112 4358 L 6112 5094 L 742 5094 z M 1773 3584 L 1773 2861 L 3648 2861 L 3648 371 C 3648 269 3603 243 3475 237 C 3347 230 2854 237 2458 256 C 2566 38 2688 -301 2726 -525 C 3322 -531 3750 -518 4051 -403 C 4358 -288 4454 -77 4454 352 L 4454 2861 L 6003 2861 L 6003 3584 L 1773 3584 z" transform="scale(0.015625)"/></defs><use xlink:href="#NotoSansCJKsc-Bold-5ba2"/><use transform="translate(99.999985 0)" xlink:href="#NotoSansCJKsc-Bold-5385"/></g></g><g id="text_3"><g style="fill:#5a5a5a" transform="translate(763.888 711.205712) scale(0.08 -0.08)"><defs><path id="NotoSansCJKsc-Bold-7384" d="M 2502 5229 C 2605 5043 2720 4813 2816 4602 L 352 4602 L 352 3846 L 2362 3846 C 1965 3341 1472 2899 1293 2771 C 1101 2618 960 2515 794 2483 C 890 2266 1011 1882 1050 1715 C 1229 1786 1478 1818 2829 1901 C 2278 1453 1798 1114 1555 973 C 1133 698 896 563 627 512 C 730 294 864 -96 909 -250 C 1229 -122 1670 -83 5088 192 C 5254 -70 5395 -314 5491 -518 L 6195 -96 C 5920 442 5363 1222 4838 1818 L 4173 1466 C 4333 1274 4499 1050 4659 826 L 2374 685 C 3322 1286 4288 2035 5152 2938 L 4429 3418 C 4173 3130 3898 2848 3610 2579 L 2099 2515 C 2522 2848 2938 3251 3283 3648 L 2918 3846 L 6048 3846 L 6048 4602 L 3680 4602 C 3565 4858 3392 5190 3226 5459 L 2502 5229 z" transform="scale(0.015625)"/><path id="NotoSansCJKsc-Bold-5173" d="M 1306 5094 C 1517 4813 1747 4435 1875 4141 L 813 4141 L 813 3379 L 2803 3379 L 2803 2566 L 2803 2502 L 384 2502 L 384 1741 L 2650 1741 C 2394 1152 1747 570 192 122 C 397 -58 653 -390 762 -570 C 2234 -115 2989 499 3366 1146 C 3904 326 4653 -237 5722 -538 C 5837 -307 6080 45 6266 224 C 5158 461 4365 992 3872 1741 L 6035 1741 L 6035 2502 L 3706 2502 L 3706 2547 L 3706 3379 L 5702 3379 L 5702 4141 L 4627 4141 C 4838 4448 5056 4813 5261 5158 L 4422 5434 C 4275 5037 4019 4518 3776 4141 L 2240 4141 L 2630 4358 C 2502 4659 2227 5101 1952 5421 L 1306 5094 z" transform="scale(0.015625)"/></defs><use xlink:href="#NotoSansCJKsc-Bold-7384"/><use transform="translate(99.999985 0)" xlink:href="#NotoSansCJKsc-Bold-5173"/></g></g><g id="text_4"><g style="fill:#5a5a5a" transform="translate(306.0696 486.119312) scale(0.08 -0.08)"><defs><path id="NotoSansCJKsc-Bold-9910" d="M 915 3584 C 1018 3520 1133 3443 1235 3360 C 934 3200 608 3078 288 2989 C 410 2874 582 2662 659 2522 C 1632 2829 2611 3418 3078 4326 L 2656 4550 L 2541 4525 L 2131 4525 L 2131 4730 L 3174 4730 L 3174 5184 L 2131 5184 L 2131 5440 L 1485 5440 L 1485 4608 L 1094 4678 C 902 4403 589 4096 147 3866 C 275 3782 461 3597 550 3462 C 864 3661 1114 3872 1325 4109 L 2208 4109 C 2067 3942 1888 3782 1690 3642 C 1568 3731 1427 3821 1306 3885 L 915 3584 z M 1350 -538 C 1498 -474 1747 -442 3386 -262 C 3398 -141 3430 83 3469 237 C 4154 -6 4902 -333 5312 -582 L 5715 -109 C 5549 -19 5344 83 5107 179 C 5331 333 5562 506 5779 678 L 5248 1018 L 5024 794 L 5024 1965 C 5293 1875 5562 1805 5830 1754 C 5926 1926 6112 2202 6259 2336 C 5261 2483 4218 2816 3590 3251 L 3712 3373 C 3770 3283 3821 3200 3853 3130 C 4122 3226 4371 3347 4608 3501 C 4960 3283 5274 3066 5478 2880 L 5946 3354 C 5741 3526 5446 3718 5126 3910 C 5440 4211 5690 4589 5850 5037 L 5427 5216 L 5306 5190 L 3379 5190 L 3379 4672 L 4966 4672 C 4851 4512 4710 4358 4550 4224 C 4275 4371 3994 4499 3744 4608 L 3322 4192 C 3533 4096 3757 3981 3987 3859 C 3827 3776 3654 3706 3482 3654 C 3526 3610 3578 3546 3629 3482 L 3181 3712 C 2554 3014 1338 2483 218 2202 C 378 2048 544 1811 634 1638 C 896 1722 1158 1811 1421 1914 L 1421 429 C 1421 160 1242 45 1114 -13 C 1203 -122 1312 -390 1350 -538 z M 4832 621 L 4576 403 L 3981 621 L 4832 621 z M 4301 1248 L 4301 1018 L 2157 1018 L 2157 1248 L 4301 1248 z M 4301 1587 L 2157 1587 L 2157 1798 L 4301 1798 L 4301 1587 z M 2746 2490 C 2803 2406 2861 2304 2918 2202 L 2061 2202 C 2464 2400 2842 2630 3181 2893 C 3520 2624 3936 2394 4384 2202 L 3635 2202 C 3558 2342 3456 2496 3373 2618 L 2746 2490 z M 2989 403 L 3366 275 L 2157 160 L 2157 621 L 3187 621 L 2989 403 z" transform="scale(0.015625)"/><path id="NotoSansCJKsc-Bold-20" transform="scale(0.015625)"/><path id="NotoSansCJKsc-Bold-4c" d="M 582 0 L 3456 0 L 3456 794 L 1530 794 L 1530 4742 L 582 4742 L 582 0 z" transform="scale(0.015625)"/><path id="NotoSansCJKsc-Bold-44" d="M 582 0 L 1933 0 C 3334 0 4224 794 4224 2394 C 4224 3987 3334 4742 1882 4742 L 582 4742 L 582 0 z M 1530 768 L 1530 3981 L 1818 3981 C 2707 3981 3258 3546 3258 2394 C 3258 1242 2707 768 1818 768 L 1530 768 z" transform="scale(0.015625)"/><path id="NotoSansCJKsc-Bold-4b" d="M 582 0 L 1530 0 L 1530 1331 L 2150 2131 L 3379 0 L 4416 0 L 2714 2874 L 4160 4742 L 3117 4742 L 1549 2682 L 1530 2682 L 1530 4742 L 582 4742 L 582 0 z" transform="scale(0.015625)"/></defs><use xlink:href="#NotoSansCJKsc-Bold-5ba2"/><use transform="translate(99.999985 0)" xlink:href="#NotoSansCJKsc-Bold-9910"/><use transform="translate(199.999969 0)" xlink:href="#NotoSansCJKsc-Bold-5385"/><use transform="translate(299.999954 0)" xlink:href="#NotoSansCJKsc-Bold-20"/><use transform="translate(322.699951 0)" xlink:href="#NotoSansCJKsc-Bold-4c"/><use transform="translate(380.499939 0)" xlink:href="#NotoSansCJKsc-Bold-44"/><use transform="translate(451.899933 0)" xlink:href="#NotoSansCJKsc-Bold-4b"/></g></g><g id="text_5"><g style="fill:#5a5a5a" transform="translate(696.848 486.119312) scale(0.08 -0.08)"><defs><path id="NotoSansCJKsc-Bold-4e3b" d="M 2208 5005 C 2522 4787 2893 4486 3162 4230 L 608 4230 L 608 3475 L 2778 3475 L 2778 2362 L 947 2362 L 947 1619 L 2778 1619 L 2778 384 L 333 384 L 333 -371 L 6093 -371 L 6093 384 L 3622 384 L 3622 1619 L 5472 1619 L 5472 2362 L 3622 2362 L 3622 3475 L 5773 3475 L 5773 4230 L 3744 4230 L 4083 4474 C 3808 4774 3258 5184 2842 5446 L 2208 5005 z" transform="scale(0.015625)"/><path id="NotoSansCJKsc-Bold-5367" d="M 1267 2822 L 2656 2822 L 2656 2131 L 1267 2131 L 1267 2822 z M 1267 1421 L 1971 1421 L 1971 403 L 1267 403 L 1267 1421 z M 1267 3539 L 1267 4454 L 1978 4454 L 1978 3539 L 1267 3539 z M 3597 5171 L 506 5171 L 506 -320 L 3661 -320 L 3661 403 L 2688 403 L 2688 1421 L 3424 1421 L 3424 3539 L 2688 3539 L 2688 4454 L 3597 4454 L 3597 5171 z M 3994 5363 L 3994 -512 L 4774 -512 L 4774 2605 C 5114 2253 5453 1869 5645 1606 L 6202 2099 C 5933 2438 5408 2963 4966 3360 L 4774 3213 L 4774 5363 L 3994 5363 z" transform="scale(0.015625)"/><path id="NotoSansCJKsc-Bold-31" d="M 525 0 L 3373 0 L 3373 768 L 2483 768 L 2483 4742 L 1786 4742 C 1485 4550 1165 4429 685 4346 L 685 3757 L 1549 3757 L 1549 768 L 525 768 L 525 0 z" transform="scale(0.015625)"/></defs><use xlink:href="#NotoSansCJKsc-Bold-4e3b"/><use transform="translate(99.999985 0)" xlink:href="#NotoSansCJKsc-Bold-5367"/><use transform="translate(199.999969 0)" xlink:href="#NotoSansCJKsc-Bold-31"/></g></g><g id="text_6"><g style="fill:#5a5a5a" transform="translate(884.42 583.139312) scale(0.08 -0.08)"><defs><path id="NotoSansCJKsc-Bold-536b" d="M 666 4979 L 666 4211 L 2458 4211 L 2458 371 L 294 371 L 294 -390 L 6131 -390 L 6131 371 L 3296 371 L 3296 4211 L 4896 4211 L 4896 2438 C 4896 2355 4851 2330 4730 2323 C 4602 2323 4141 2317 3750 2342 C 3872 2144 4019 1798 4051 1587 C 4602 1587 5011 1594 5306 1715 C 5600 1837 5690 2054 5690 2426 L 5690 4979 L 666 4979 z" transform="scale(0.015625)"/></defs><use xlink:href="#NotoSansCJKsc-Bold-4e3b"/><use transform="translate(99.999985 0)" xlink:href="#NotoSansCJKsc-Bold-536b"/><use transform="translate(199.999969 0)" xlink:href="#NotoSansCJKsc-Bold-31"/></g></g><g id="text_7"><g style="fill:#5a5a5a" transform="translate(882.78 421.439312) scale(0.08 -0.08)"><defs><path id="NotoSansCJKsc-Bold-8863" d="M 2611 5267 C 2726 5018 2854 4698 2925 4454 L 358 4454 L 358 3718 L 2438 3718 C 1882 3066 1043 2438 166 2067 C 301 1907 506 1594 602 1402 C 928 1555 1248 1734 1549 1933 L 1549 730 C 1549 378 1274 122 1107 6 C 1235 -122 1440 -410 1510 -570 C 1709 -429 2022 -320 3942 275 C 3885 448 3802 768 3776 986 L 2336 570 L 2336 2534 C 2650 2810 2938 3104 3187 3405 C 3507 1837 4090 646 5741 -397 C 5837 -160 6080 128 6278 282 C 5536 691 5024 1152 4659 1677 C 5107 2003 5626 2438 6042 2848 L 5389 3322 C 5107 2995 4698 2618 4307 2304 C 4115 2726 3987 3200 3891 3718 L 6054 3718 L 6054 4454 L 3386 4454 L 3795 4582 C 3731 4832 3558 5210 3398 5498 L 2611 5267 z" transform="scale(0.015625)"/><path id="NotoSansCJKsc-Bold-5e3d" d="M 2829 5210 L 2829 2938 L 3539 2938 L 3539 4640 L 5338 4640 L 5338 2938 L 6080 2938 L 6080 5210 L 2829 5210 z M 3693 4326 L 3693 3834 L 5197 3834 L 5197 4326 L 3693 4326 z M 3693 3514 L 3693 3021 L 5197 3021 L 5197 3514 L 3693 3514 z M 314 4256 L 314 755 L 877 755 L 877 3584 L 1152 3584 L 1152 -576 L 1798 -576 L 1798 1459 C 1888 1286 1958 1005 1965 832 C 2182 832 2330 851 2470 966 C 2605 1082 2630 1280 2630 1517 L 2630 4256 L 1798 4256 L 1798 5434 L 1152 5434 L 1152 4256 L 314 4256 z M 1798 3584 L 2086 3584 L 2086 1536 C 2086 1485 2074 1472 2035 1472 L 1798 1472 L 1798 3584 z M 3680 1338 L 5210 1338 L 5210 1037 L 3680 1037 L 3680 1338 z M 3680 1850 L 3680 2131 L 5210 2131 L 5210 1850 L 3680 1850 z M 3680 518 L 5210 518 L 5210 211 L 3680 211 L 3680 518 z M 2995 2726 L 2995 -563 L 3680 -563 L 3680 -371 L 5210 -371 L 5210 -563 L 5926 -563 L 5926 2726 L 2995 2726 z" transform="scale(0.015625)"/><path id="NotoSansCJKsc-Bold-95f4" d="M 454 3898 L 454 -563 L 1248 -563 L 1248 3898 L 454 3898 z M 544 5024 C 838 4717 1165 4294 1299 4013 L 1946 4429 C 1798 4717 1446 5114 1152 5395 L 544 5024 z M 2586 1805 L 3821 1805 L 3821 1190 L 2586 1190 L 2586 1805 z M 2586 3027 L 3821 3027 L 3821 2419 L 2586 2419 L 2586 3027 z M 1901 3642 L 1901 576 L 4538 576 L 4538 3642 L 1901 3642 z M 2170 5120 L 2170 4403 L 5210 4403 L 5210 256 C 5210 179 5184 147 5101 147 C 5030 147 4787 141 4589 154 C 4678 -32 4774 -333 4806 -531 C 5210 -531 5510 -518 5728 -403 C 5939 -282 6003 -102 6003 256 L 6003 5120 L 2170 5120 z" transform="scale(0.015625)"/></defs><use xlink:href="#NotoSansCJKsc-Bold-8863"/><use transform="translate(99.999985 0)" xlink:href="#NotoSansCJKsc-Bold-5e3d"/><use transform="translate(199.999969 0)" xlink:href="#NotoSansCJKsc-Bold-95f4"/></g></g><g id="text_8"><g style="fill:#5a5a5a" transform="translate(208.9336 201.527312) scale(0.08 -0.08)"><defs><path id="NotoSansCJKsc-Bold-53a8" d="M 1530 4198 L 1530 3578 L 3885 3578 L 3885 4198 L 1530 4198 z M 2278 2746 L 3053 2746 L 3053 2163 L 2278 2163 L 2278 2746 z M 1619 3264 L 1619 1645 L 3750 1645 L 3750 3264 L 1619 3264 z M 1683 1421 C 1786 1088 1882 646 1894 371 L 2528 525 C 2502 787 2394 1216 2272 1542 L 1683 1421 z M 3827 2246 C 4019 1824 4205 1274 4256 928 L 4883 1165 C 4826 1510 4621 2048 4416 2451 L 3827 2246 z M 4979 4371 L 4979 3398 L 3910 3398 L 3910 2714 L 4979 2714 L 4979 230 C 4979 141 4947 115 4858 109 C 4762 109 4474 109 4205 122 C 4294 -77 4390 -378 4422 -576 C 4883 -576 5197 -557 5427 -442 C 5651 -333 5722 -147 5722 218 L 5722 2714 L 6138 2714 L 6138 3398 L 5722 3398 L 5722 4371 L 4979 4371 z M 3046 1581 C 2970 1216 2816 723 2675 358 L 1299 224 L 1408 -448 C 2112 -365 3072 -250 3974 -128 L 3955 499 L 3354 435 C 3475 736 3597 1094 3718 1427 L 3046 1581 z M 608 5216 L 608 3226 C 608 2221 576 774 154 -218 C 333 -282 666 -461 813 -570 C 1267 499 1338 2144 1338 3232 L 1338 4544 L 6099 4544 L 6099 5216 L 608 5216 z" transform="scale(0.015625)"/><path id="NotoSansCJKsc-Bold-623f" d="M 2778 5267 L 2925 4858 L 749 4858 L 749 3386 C 749 2355 704 794 147 -262 C 346 -326 698 -506 858 -621 C 1382 435 1504 2016 1523 3130 L 3738 3130 L 3206 2970 C 3290 2797 3392 2566 3450 2394 L 1677 2394 L 1677 1779 L 2688 1779 C 2598 979 2387 371 1389 13 C 1549 -115 1741 -384 1824 -563 C 2624 -256 3021 205 3232 787 L 4819 787 C 4774 390 4717 192 4646 128 C 4582 77 4518 64 4403 64 C 4275 64 3955 70 3642 102 C 3744 -64 3827 -320 3840 -512 C 4198 -525 4550 -525 4736 -506 C 4960 -493 5139 -448 5280 -301 C 5453 -134 5536 256 5606 1101 C 5613 1190 5619 1370 5619 1370 L 5050 1370 L 3379 1376 C 3405 1504 3418 1638 3437 1779 L 6003 1779 L 6003 2394 L 3795 2394 L 4192 2528 C 4134 2694 4019 2938 3910 3130 L 5837 3130 L 5837 4858 L 3770 4858 C 3706 5050 3616 5267 3533 5446 L 2778 5267 z M 1523 4218 L 5075 4218 L 5075 3763 L 1523 3763 L 1523 4218 z" transform="scale(0.015625)"/></defs><use xlink:href="#NotoSansCJKsc-Bold-53a8"/><use transform="translate(99.999985 0)" xlink:href="#NotoSansCJKsc-Bold-623f"/></g></g><g id="text_9"><g style="fill:#5a5a5a" transform="translate(414.616 201.527312) scale(0.08 -0.08)"><use xlink:href="#NotoSansCJKsc-Bold-5ba2"/><use transform="translate(99.999985 0)" xlink:href="#NotoSansCJKsc-Bold-536b"/></g></g><g id="text_10"><g style="fill:#5a5a5a" transform="translate(708.144 201.527312) scale(0.08 -0.08)"><defs><path id="NotoSansCJKsc-Bold-697c" d="M 5306 5350 C 5203 5088 5005 4710 4845 4474 L 5242 4282 L 4627 4282 L 4627 5440 L 3917 5440 L 3917 4282 L 3264 4282 L 3680 4486 C 3590 4704 3392 5050 3238 5299 L 2650 5037 C 2784 4806 2938 4506 3027 4282 L 2458 4282 L 2458 3661 L 3456 3661 C 3117 3328 2662 3027 2246 2848 C 2394 2720 2611 2470 2714 2310 C 3130 2528 3565 2880 3917 3264 L 3917 2483 L 4627 2483 L 4627 3277 C 4973 2918 5395 2586 5766 2381 C 5875 2547 6099 2803 6259 2931 C 5862 3098 5421 3366 5075 3661 L 6106 3661 L 6106 4282 L 5402 4282 C 5574 4493 5766 4781 5984 5062 L 5306 5350 z M 4768 1395 C 4672 1133 4538 922 4358 749 L 3731 986 L 3968 1395 L 4768 1395 z M 2707 698 C 3034 589 3354 467 3667 339 C 3290 205 2810 122 2208 70 C 2310 -77 2438 -352 2490 -563 C 3347 -442 3987 -275 4474 0 C 4902 -198 5280 -390 5574 -557 L 6074 -6 C 5798 134 5446 301 5056 467 C 5267 717 5427 1018 5542 1395 L 6106 1395 L 6106 2035 L 4288 2035 L 4429 2368 L 3686 2502 C 3629 2349 3565 2195 3488 2035 L 2374 2035 L 2374 1395 L 3155 1395 C 3008 1139 2854 896 2707 698 z M 1024 5440 L 1024 4243 L 294 4243 L 294 3533 L 1011 3533 C 845 2758 506 1856 141 1357 C 256 1152 429 800 499 582 C 691 883 870 1299 1024 1766 L 1024 -570 L 1722 -570 L 1722 2400 C 1850 2144 1965 1894 2029 1715 L 2477 2240 C 2368 2413 1888 3117 1722 3334 L 1722 3533 L 2272 3533 L 2272 4243 L 1722 4243 L 1722 5440 L 1024 5440 z" transform="scale(0.015625)"/><path id="NotoSansCJKsc-Bold-68af" d="M 1082 5440 L 1082 4243 L 256 4243 L 256 3533 L 1037 3533 C 858 2758 512 1856 122 1357 C 250 1152 416 800 493 582 C 710 909 915 1376 1082 1894 L 1082 -570 L 1779 -570 L 1779 2355 C 1901 2099 2016 1843 2080 1664 L 2528 2182 C 2419 2362 1952 3091 1779 3315 L 1779 3533 L 2413 3533 L 2413 4243 L 1779 4243 L 1779 5440 L 1082 5440 z M 3923 2586 L 3923 2086 L 3334 2086 L 3392 2586 L 3923 2586 z M 2790 3213 C 2746 2643 2656 1926 2573 1459 L 3648 1459 C 3270 941 2714 486 2131 230 C 2285 90 2502 -166 2611 -339 C 3098 -83 3552 314 3923 781 L 3923 -563 L 4640 -563 L 4640 1459 L 5421 1459 C 5395 934 5363 723 5312 653 C 5267 602 5222 589 5146 589 C 5082 589 4954 595 4794 608 C 4890 422 4954 128 4966 -96 C 5197 -102 5408 -90 5530 -64 C 5683 -38 5786 13 5894 147 C 6029 320 6074 800 6112 1824 C 6118 1907 6125 2086 6125 2086 L 4640 2086 L 4640 2586 L 5965 2586 L 5965 4397 L 5344 4397 C 5491 4646 5645 4941 5786 5229 L 5043 5440 C 4947 5120 4768 4698 4608 4397 L 3770 4397 L 4000 4499 C 3923 4762 3731 5139 3520 5421 L 2925 5178 C 3072 4947 3226 4640 3309 4397 L 2592 4397 L 2592 3763 L 3923 3763 L 3923 3213 L 2790 3213 z M 4640 3763 L 5267 3763 L 5267 3213 L 4640 3213 L 4640 3763 z" transform="scale(0.015625)"/></defs><use xlink:href="#NotoSansCJKsc-Bold-697c"/><use transform="translate(99.999985 0)" xlink:href="#NotoSansCJKsc-Bold-68af"/><use transform="translate(199.999969 0)" xlink:href="#NotoSansCJKsc-Bold-95f4"/></g></g><g id="text_11"><g style="fill:#888" transform="translate(377.182266 67.248237) scale(0.09 -0.09)"><defs><path id="NotoSansCJKsc-Regular-47" d="M 2490 -83 C 3117 -83 3635 147 3936 461 L 3936 2432 L 2394 2432 L 2394 1939 L 3392 1939 L 3392 710 C 3206 538 2880 435 2547 435 C 1542 435 979 1178 979 2362 C 979 3533 1594 4256 2541 4256 C 3008 4256 3315 4058 3552 3814 L 3872 4198 C 3603 4480 3174 4774 2522 4774 C 1280 4774 371 3859 371 2342 C 371 819 1254 -83 2490 -83 z" transform="scale(0.015625)"/><path id="NotoSansCJKsc-Regular-72" d="M 589 0 L 1178 0 L 1178 2234 C 1408 2822 1760 3040 2048 3040 C 2195 3040 2272 3021 2387 2982 L 2496 3488 C 2387 3546 2278 3565 2125 3565 C 1741 3565 1382 3283 1139 2842 L 1126 2842 L 1069 3475 L 589 3475 L 589 0 z" transform="scale(0.015625)"/><path id="NotoSansCJKsc-Regular-6f" d="M 1939 -83 C 2790 -83 3546 582 3546 1734 C 3546 2893 2790 3565 1939 3565 C 1088 3565 333 2893 333 1734 C 333 582 1088 -83 1939 -83 z M 1939 403 C 1338 403 934 934 934 1734 C 934 2534 1338 3072 1939 3072 C 2541 3072 2950 2534 2950 1734 C 2950 934 2541 403 1939 403 z" transform="scale(0.015625)"/><path id="NotoSansCJKsc-Regular-75" d="M 1606 -83 C 2080 -83 2426 166 2752 544 L 2771 544 L 2816 0 L 3302 0 L 3302 3475 L 2720 3475 L 2720 1011 C 2387 602 2138 422 1779 422 C 1318 422 1126 698 1126 1344 L 1126 3475 L 538 3475 L 538 1274 C 538 384 870 -83 1606 -83 z" transform="scale(0.015625)"/><path id="NotoSansCJKsc-Regular-6e" d="M 589 0 L 1178 0 L 1178 2522 C 1523 2874 1766 3053 2125 3053 C 2586 3053 2784 2778 2784 2125 L 2784 0 L 3366 0 L 3366 2202 C 3366 3085 3034 3565 2304 3565 C 1830 3565 1466 3302 1139 2970 L 1126 2970 L 1069 3475 L 589 3475 L 589 0 z" transform="scale(0.015625)"/><path id="NotoSansCJKsc-Regular-64" d="M 1773 -83 C 2189 -83 2560 141 2829 410 L 2848 410 L 2899 0 L 3379 0 L 3379 5094 L 2790 5094 L 2790 3757 L 2822 3162 C 2515 3411 2253 3565 1843 3565 C 1050 3565 339 2861 339 1734 C 339 576 902 -83 1773 -83 z M 1901 410 C 1293 410 941 902 941 1741 C 941 2534 1389 3072 1946 3072 C 2234 3072 2502 2970 2790 2707 L 2790 883 C 2502 563 2221 410 1901 410 z" transform="scale(0.015625)"/><path id="NotoSansCJKsc-Regular-20" transform="scale(0.015625)"/><path id="NotoSansCJKsc-Regular-46" d="M 646 0 L 1235 0 L 1235 2106 L 3027 2106 L 3027 2605 L 1235 2605 L 1235 4192 L 3347 4192 L 3347 4691 L 646 4691 L 646 0 z" transform="scale(0.015625)"/><path id="NotoSansCJKsc-Regular-6c" d="M 1203 -83 C 1363 -83 1459 -58 1542 -32 L 1459 416 C 1395 403 1370 403 1338 403 C 1248 403 1178 474 1178 653 L 1178 5094 L 589 5094 L 589 691 C 589 198 768 -83 1203 -83 z" transform="scale(0.015625)"/><path id="NotoSansCJKsc-Regular-49" d="M 646 0 L 1235 0 L 1235 4691 L 646 4691 L 646 0 z" transform="scale(0.015625)"/><path id="NotoSansCJKsc-Regular-74" d="M 1677 -83 C 1894 -83 2125 -19 2323 45 L 2208 486 C 2093 435 1939 390 1811 390 C 1408 390 1274 634 1274 1056 L 1274 3002 L 2221 3002 L 2221 3475 L 1274 3475 L 1274 4454 L 787 4454 L 723 3475 L 173 3443 L 173 3002 L 691 3002 L 691 1075 C 691 378 941 -83 1677 -83 z" transform="scale(0.015625)"/><path id="NotoSansCJKsc-Regular-65" d="M 1997 -83 C 2464 -83 2835 70 3136 269 L 2931 659 C 2669 486 2400 384 2061 384 C 1402 384 947 858 909 1600 L 3251 1600 C 3264 1690 3277 1805 3277 1933 C 3277 2925 2778 3565 1888 3565 C 1094 3565 333 2867 333 1734 C 333 589 1069 -83 1997 -83 z M 902 2016 C 973 2707 1408 3098 1901 3098 C 2445 3098 2765 2720 2765 2016 L 902 2016 z" transform="scale(0.015625)"/><path id="NotoSansCJKsc-Regular-69" d="M 589 0 L 1178 0 L 1178 3475 L 589 3475 L 589 0 z M 883 4192 C 1114 4192 1274 4346 1274 4582 C 1274 4806 1114 4960 883 4960 C 653 4960 499 4806 499 4582 C 499 4346 653 4192 883 4192 z" transform="scale(0.015625)"/><path id="NotoSansCJKsc-Regular-52" d="M 1235 2464 L 1235 4211 L 2022 4211 C 2758 4211 3162 3994 3162 3379 C 3162 2765 2758 2464 2022 2464 L 1235 2464 z M 3219 0 L 3885 0 L 2694 2054 C 3328 2208 3750 2643 3750 3379 C 3750 4352 3066 4691 2112 4691 L 646 4691 L 646 0 L 1235 0 L 1235 1990 L 2080 1990 L 3219 0 z" transform="scale(0.015625)"/><path id="NotoSansCJKsc-Regular-67" d="M 1760 -1600 C 2835 -1600 3520 -1043 3520 -397 C 3520 179 3110 429 2310 429 L 1626 429 C 1158 429 1018 589 1018 806 C 1018 998 1114 1114 1242 1222 C 1395 1146 1587 1101 1754 1101 C 2470 1101 3027 1568 3027 2310 C 3027 2611 2912 2867 2746 3027 L 3456 3027 L 3456 3475 L 2246 3475 C 2125 3526 1952 3565 1754 3565 C 1056 3565 454 3085 454 2323 C 454 1907 678 1568 909 1389 L 909 1363 C 723 1235 525 1005 525 717 C 525 442 659 256 838 147 L 838 115 C 512 -83 326 -371 326 -672 C 326 -1267 915 -1600 1760 -1600 z M 1754 1498 C 1357 1498 1018 1818 1018 2323 C 1018 2835 1350 3136 1754 3136 C 2170 3136 2496 2835 2496 2323 C 2496 1818 2157 1498 1754 1498 z M 1843 -1197 C 1210 -1197 838 -960 838 -589 C 838 -390 941 -179 1190 0 C 1344 -38 1510 -51 1638 -51 L 2240 -51 C 2701 -51 2944 -166 2944 -493 C 2944 -851 2515 -1197 1843 -1197 z" transform="scale(0.015625)"/><path id="NotoSansCJKsc-Regular-7c" d="M 659 -1786 L 1069 -1786 L 1069 5363 L 659 5363 L 659 -1786 z" transform="scale(0.015625)"/><path id="NotoSansCJKsc-Regular-5b9e" d="M 3443 685 C 4294 365 5146 -77 5664 -474 L 5958 -96 C 5427 282 4531 723 3674 1037 L 3443 685 z M 1536 3565 C 1882 3360 2291 3040 2477 2816 L 2784 3162 C 2586 3392 2170 3680 1824 3872 L 1536 3565 z M 896 2566 C 1261 2368 1690 2048 1894 1818 L 2189 2182 C 1978 2406 1542 2701 1184 2886 L 896 2566 z M 576 4646 L 576 3347 L 1056 3347 L 1056 4198 L 5338 4198 L 5338 3347 L 5837 3347 L 5837 4646 L 3642 4646 C 3546 4870 3379 5184 3219 5421 L 2746 5274 C 2861 5082 2982 4851 3072 4646 L 576 4646 z M 454 1638 L 454 1222 L 2765 1222 C 2406 602 1747 186 518 -70 C 621 -179 742 -365 794 -493 C 2234 -160 2950 397 3315 1222 L 5984 1222 L 5984 1638 L 3462 1638 C 3648 2259 3693 3002 3718 3878 L 3219 3878 C 3194 2970 3155 2234 2950 1638 L 454 1638 z" transform="scale(0.015625)"/><path id="NotoSansCJKsc-Regular-7269" d="M 3418 5376 C 3206 4403 2822 3488 2285 2906 C 2394 2842 2579 2707 2656 2630 C 2938 2957 3181 3379 3392 3853 L 3942 3853 C 3648 2822 3078 1747 2400 1210 C 2528 1139 2682 1024 2778 928 C 3482 1542 4064 2746 4358 3853 L 4883 3853 C 4550 2234 3859 640 2803 -115 C 2938 -179 3110 -307 3206 -403 C 4269 442 4979 2163 5306 3853 L 5606 3853 C 5478 1299 5338 346 5133 115 C 5062 32 4998 13 4890 13 C 4768 13 4512 19 4224 45 C 4301 -90 4346 -294 4358 -435 C 4640 -454 4915 -454 5088 -435 C 5280 -410 5408 -358 5536 -179 C 5792 134 5933 1139 6074 4058 C 6080 4122 6086 4301 6086 4301 L 3571 4301 C 3680 4614 3782 4954 3859 5293 L 3418 5376 z M 627 5005 C 550 4218 422 3405 186 2867 C 288 2822 474 2707 550 2650 C 659 2912 755 3245 832 3603 L 1421 3603 L 1421 2157 C 973 2029 550 1907 224 1824 L 352 1363 L 1421 1696 L 1421 -512 L 1869 -512 L 1869 1837 L 2675 2093 L 2611 2515 L 1869 2291 L 1869 3603 L 2528 3603 L 2528 4064 L 1869 4064 L 1869 5370 L 1421 5370 L 1421 4064 L 922 4064 C 966 4352 1011 4646 1043 4941 L 627 5005 z" transform="scale(0.015625)"/><path id="NotoSansCJKsc-Regular-5bb6" d="M 2707 5274 C 2790 5133 2880 4960 2950 4800 L 538 4800 L 538 3482 L 1005 3482 L 1005 4365 L 5414 4365 L 5414 3482 L 5907 3482 L 5907 4800 L 3526 4800 C 3450 4992 3322 5229 3206 5421 L 2707 5274 z M 5056 3078 C 4698 2746 4141 2323 3654 2003 C 3507 2355 3290 2694 2989 2989 C 3149 3098 3302 3206 3437 3328 L 5050 3328 L 5050 3750 L 1338 3750 L 1338 3328 L 2803 3328 C 2189 2918 1312 2592 512 2394 C 595 2304 730 2106 774 2016 C 1389 2195 2054 2451 2630 2771 C 2752 2656 2854 2528 2944 2394 C 2387 1984 1306 1523 499 1325 C 582 1222 691 1056 742 947 C 1510 1184 2502 1638 3130 2074 C 3206 1920 3264 1773 3302 1626 C 2662 1043 1414 442 390 205 C 486 96 589 -83 640 -205 C 1562 77 2662 608 3392 1165 C 3450 646 3334 211 3142 64 C 3027 -45 2906 -64 2733 -64 C 2598 -64 2381 -58 2150 -32 C 2227 -166 2272 -358 2278 -486 C 2483 -493 2688 -499 2822 -499 C 3117 -499 3283 -448 3488 -275 C 3846 -6 4000 794 3782 1619 L 4090 1805 C 4435 870 5043 128 5862 -243 C 5933 -115 6074 58 6182 147 C 5376 467 4762 1190 4461 2042 C 4813 2272 5158 2528 5453 2765 L 5056 3078 z" transform="scale(0.015625)"/><path id="NotoSansCJKsc-Regular-5177" d="M 3872 538 C 4582 205 5325 -205 5773 -518 L 6157 -160 C 5677 141 4902 550 4179 877 L 3872 538 z M 2099 851 C 1702 506 902 77 256 -166 C 371 -256 531 -416 608 -518 C 1254 -256 2042 160 2554 563 L 2099 851 z M 1357 5069 L 1357 1338 L 333 1338 L 333 902 L 6086 902 L 6086 1338 L 5133 1338 L 5133 5069 L 1357 5069 z M 1818 1338 L 1818 1920 L 4653 1920 L 4653 1338 L 1818 1338 z M 1818 3750 L 4653 3750 L 4653 3206 L 1818 3206 L 1818 3750 z M 1818 4122 L 1818 4672 L 4653 4672 L 4653 4122 L 1818 4122 z M 1818 2842 L 4653 2842 L 4653 2285 L 1818 2285 L 1818 2842 z" transform="scale(0.015625)"/><path id="NotoSansCJKsc-Regular-6e32" d="M 2592 3738 L 2592 3334 L 5376 3334 L 5376 3738 L 2592 3738 z M 1875 77 L 1875 -365 L 6150 -365 L 6150 77 L 1875 77 z M 2931 1549 L 5037 1549 L 5037 947 L 2931 947 L 2931 1549 z M 2931 2509 L 5037 2509 L 5037 1901 L 2931 1901 L 2931 2509 z M 2490 2874 L 2490 570 L 5498 570 L 5498 2874 L 2490 2874 z M 570 4954 C 941 4749 1408 4429 1632 4211 L 1933 4576 C 1702 4794 1229 5088 864 5280 L 570 4954 z M 243 3245 C 634 3046 1133 2739 1376 2528 L 1664 2906 C 1414 3110 902 3405 525 3584 L 243 3245 z M 461 -102 L 883 -403 C 1222 192 1626 992 1926 1664 L 1555 1958 C 1222 1235 774 397 461 -102 z M 3616 5306 C 3706 5107 3776 4864 3821 4659 L 2029 4659 L 2029 3578 L 2477 3578 L 2477 4243 L 5542 4243 L 5542 3578 L 6003 3578 L 6003 4659 L 4346 4659 C 4307 4877 4211 5165 4102 5395 L 3616 5306 z" transform="scale(0.015625)"/><path id="NotoSansCJKsc-Regular-67d3" d="M 282 4090 C 653 3968 1126 3770 1376 3622 L 1587 3987 C 1331 4128 858 4314 493 4416 L 282 4090 z M 723 5011 C 1094 4883 1574 4678 1818 4525 L 2022 4883 C 1773 5030 1286 5222 915 5325 L 723 5011 z M 448 2451 L 794 2125 C 1152 2483 1549 2918 1894 3309 L 1606 3610 C 1216 3181 768 2726 448 2451 z M 2957 2541 L 2957 1856 L 365 1856 L 365 1427 L 2528 1427 C 1965 806 1062 256 230 -13 C 339 -109 480 -288 550 -410 C 1421 -77 2362 563 2957 1293 L 2957 -506 L 3443 -506 L 3443 1261 C 4038 544 4954 -58 5850 -371 C 5920 -243 6061 -58 6170 38 C 5299 294 4403 813 3853 1427 L 6048 1427 L 6048 1856 L 3443 1856 L 3443 2541 L 2957 2541 z M 3296 5376 C 3290 5120 3277 4883 3251 4666 L 2202 4666 L 2202 4230 L 3181 4230 C 2989 3398 2560 2886 1722 2573 C 1824 2496 1997 2298 2054 2208 C 2970 2618 3450 3226 3661 4230 L 4531 4230 L 4531 3085 C 4531 2707 4570 2592 4672 2509 C 4781 2426 4941 2394 5082 2394 C 5158 2394 5370 2394 5466 2394 C 5581 2394 5734 2413 5824 2451 C 5920 2496 5997 2566 6042 2694 C 6080 2810 6099 3130 6112 3411 C 5978 3456 5792 3546 5702 3635 C 5696 3328 5690 3098 5670 2995 C 5658 2893 5619 2848 5587 2829 C 5549 2803 5478 2797 5414 2797 C 5344 2797 5235 2797 5178 2797 C 5120 2797 5075 2803 5043 2822 C 5011 2848 4998 2925 4998 3059 L 4998 4666 L 3731 4666 C 3757 4890 3776 5126 3782 5382 L 3296 5376 z" transform="scale(0.015625)"/><path id="NotoSansCJKsc-Regular-31" d="M 563 0 L 3136 0 L 3136 486 L 2195 486 L 2195 4691 L 1747 4691 C 1491 4544 1190 4435 774 4358 L 774 3987 L 1613 3987 L 1613 486 L 563 486 L 563 0 z" transform="scale(0.015625)"/><path id="NotoSansCJKsc-Regular-34" d="M 2176 0 L 2726 0 L 2726 1293 L 3354 1293 L 3354 1760 L 2726 1760 L 2726 4691 L 2080 4691 L 128 1677 L 128 1293 L 2176 1293 L 2176 0 z M 2176 1760 L 736 1760 L 1805 3360 C 1939 3590 2067 3827 2182 4051 L 2208 4051 C 2195 3814 2176 3430 2176 3200 L 2176 1760 z" transform="scale(0.015625)"/><path id="NotoSansCJKsc-Regular-6d" d="M 589 0 L 1178 0 L 1178 2522 C 1491 2880 1786 3053 2048 3053 C 2490 3053 2694 2778 2694 2125 L 2694 0 L 3277 0 L 3277 2522 C 3603 2880 3885 3053 4154 3053 C 4595 3053 4800 2778 4800 2125 L 4800 0 L 5382 0 L 5382 2202 C 5382 3085 5043 3565 4333 3565 C 3904 3565 3546 3290 3181 2899 C 3040 3309 2758 3565 2221 3565 C 1805 3565 1446 3302 1139 2970 L 1126 2970 L 1069 3475 L 589 3475 L 589 0 z" transform="scale(0.015625)"/><path id="NotoSansCJKsc-Regular-d7" d="M 4954 346 L 5261 653 L 3514 2406 L 5261 4160 L 4954 4467 L 3200 2714 L 1453 4467 L 1139 4154 L 2893 2406 L 1139 653 L 1453 346 L 3200 2099 L 4954 346 z" transform="scale(0.015625)"/></defs><use xlink:href="#NotoSansCJKsc-Regular-47"/><use transform="translate(68.899994 0)" xlink:href="#NotoSansCJKsc-Regular-72"/><use transform="translate(107.699982 0)" xlink:href="#NotoSansCJKsc-Regular-6f"/><use transform="translate(168.299973 0)" xlink:href="#NotoSansCJKsc-Regular-75"/><use transform="translate(228.999969 0)" xlink:href="#NotoSansCJKsc-Regular-6e"/><use transform="translate(289.999954 0)" xlink:href="#NotoSansCJKsc-Regular-64"/><use transform="translate(351.999939 0)" xlink:href="#NotoSansCJKsc-Regular-20"/><use transform="translate(374.399933 0)" xlink:href="#NotoSansCJKsc-Regular-46"/><use transform="translate(429.59993 0)" xlink:href="#NotoSansCJKsc-Regular-6c"/><use transform="translate(457.999924 0)" xlink:href="#NotoSansCJKsc-Regular-6f"/><use transform="translate(518.599915 0)" xlink:href="#NotoSansCJKsc-Regular-6f"/><use transform="translate(579.199905 0)" xlink:href="#NotoSansCJKsc-Regular-72"/><use transform="translate(617.999893 0)" xlink:href="#NotoSansCJKsc-Regular-20"/><use transform="translate(640.399887 0)" xlink:href="#NotoSansCJKsc-Regular-49"/><use transform="translate(669.699875 0)" xlink:href="#NotoSansCJKsc-Regular-6e"/><use transform="translate(730.69986 0)" xlink:href="#NotoSansCJKsc-Regular-74"/><use transform="translate(768.399857 0)" xlink:href="#NotoSansCJKsc-Regular-65"/><use transform="translate(823.79985 0)" xlink:href="#NotoSansCJKsc-Regular-72"/><use transform="translate(862.599838 0)" xlink:href="#NotoSansCJKsc-Regular-69"/><use transform="translate(890.099823 0)" xlink:href="#NotoSansCJKsc-Regular-6f"/><use transform="translate(950.699814 0)" xlink:href="#NotoSansCJKsc-Regular-72"/><use transform="translate(989.499802 0)" xlink:href="#NotoSansCJKsc-Regular-20"/><use transform="translate(1011.899796 0)" xlink:href="#NotoSansCJKsc-Regular-52"/><use transform="translate(1075.39978 0)" xlink:href="#NotoSansCJKsc-Regular-65"/><use transform="translate(1130.799774 0)" xlink:href="#NotoSansCJKsc-Regular-6e"/><use transform="translate(1191.799759 0)" xlink:href="#NotoSansCJKsc-Regular-64"/><use transform="translate(1253.799744 0)" xlink:href="#NotoSansCJKsc-Regular-65"/><use transform="translate(1309.199738 0)" xlink:href="#NotoSansCJKsc-Regular-72"/><use transform="translate(1347.999725 0)" xlink:href="#NotoSansCJKsc-Regular-69"/><use transform="translate(1375.49971 0)" xlink:href="#NotoSansCJKsc-Regular-6e"/><use transform="translate(1436.499695 0)" xlink:href="#NotoSansCJKsc-Regular-67"/><use transform="translate(1492.899689 0)" xlink:href="#NotoSansCJKsc-Regular-20"/><use transform="translate(1515.299683 0)" xlink:href="#NotoSansCJKsc-Regular-20"/><use transform="translate(1537.699677 0)" xlink:href="#NotoSansCJKsc-Regular-7c"/><use transform="translate(1564.699661 0)" xlink:href="#NotoSansCJKsc-Regular-20"/><use transform="translate(1587.099655 0)" xlink:href="#NotoSansCJKsc-Regular-20"/><use transform="translate(1609.499649 0)" xlink:href="#NotoSansCJKsc-Regular-5b9e"/><use transform="translate(1709.499634 0)" xlink:href="#NotoSansCJKsc-Regular-7269"/><use transform="translate(1809.499619 0)" xlink:href="#NotoSansCJKsc-Regular-5bb6"/><use transform="translate(1909.499603 0)" xlink:href="#NotoSansCJKsc-Regular-5177"/><use transform="translate(2009.499588 0)" xlink:href="#NotoSansCJKsc-Regular-6e32"/><use transform="translate(2109.499573 0)" xlink:href="#NotoSansCJKsc-Regular-67d3"/><use transform="translate(2209.499557 0)" xlink:href="#NotoSansCJKsc-Regular-20"/><use transform="translate(2231.899551 0)" xlink:href="#NotoSansCJKsc-Regular-20"/><use transform="translate(2254.299545 0)" xlink:href="#NotoSansCJKsc-Regular-7c"/><use transform="translate(2281.29953 0)" xlink:href="#NotoSansCJKsc-Regular-20"/><use transform="translate(2303.699524 0)" xlink:href="#NotoSansCJKsc-Regular-20"/><use transform="translate(2326.099518 0)" xlink:href="#NotoSansCJKsc-Regular-31"/><use transform="translate(2381.599503 0)" xlink:href="#NotoSansCJKsc-Regular-34"/><use transform="translate(2437.099487 0)" xlink:href="#NotoSansCJKsc-Regular-6d"/><use transform="translate(2529.699478 0)" xlink:href="#NotoSansCJKsc-Regular-20"/><use transform="translate(2552.099472 0)" xlink:href="#NotoSansCJKsc-Regular-d7"/><use transform="translate(2652.099457 0)" xlink:href="#NotoSansCJKsc-Regular-20"/><use transform="translate(2674.499451 0)" xlink:href="#NotoSansCJKsc-Regular-31"/><use transform="translate(2729.999435 0)" xlink:href="#NotoSansCJKsc-Regular-31"/><use transform="translate(2785.49942 0)" xlink:href="#NotoSansCJKsc-Regular-6d"/></g></g></g></g><defs><clipPath id="p073a825331"><rect width="970.2" height="776.16" x="21.6" y="43.963"/></clipPath></defs></svg>