<?xml version="1.0" encoding="utf-8" standalone="no"?>
<!DOCTYPE svg PUBLIC "-//W3C//DTD SVG 1.1//EN"
  "http://www.w3.org/Graphics/SVG/1.1/DTD/svg11.dtd">
<svg xmlns:xlink="http://www.w3.org/1999/xlink" width="936pt" height="693.7925pt" viewBox="0 0 936 693.7925" xmlns="http://www.w3.org/2000/svg" version="1.1">
 <metadata>
  <rdf:RDF xmlns:dc="http://purl.org/dc/elements/1.1/" xmlns:cc="http://creativecommons.org/ns#" xmlns:rdf="http://www.w3.org/1999/02/22-rdf-syntax-ns#">
   <cc:Work>
    <dc:type rdf:resource="http://purl.org/dc/dcmitype/StillImage"/>
    <dc:date>2026-02-27T18:40:12.780724</dc:date>
    <dc:format>image/svg+xml</dc:format>
    <dc:creator>
     <cc:Agent>
      <dc:title>Matplotlib v3.10.8, https://matplotlib.org/</dc:title>
     </cc:Agent>
    </dc:creator>
   </cc:Work>
  </rdf:RDF>
 </metadata>
 <defs>
  <style type="text/css">*{stroke-linejoin: round; stroke-linecap: butt}</style>
 </defs>
 <g id="figure_1">
  <g id="patch_1">
   <path d="M 0 693.7925 
L 936 693.7925 
L 936 0 
L 0 0 
z
" style="fill: #ffffff"/>
  </g>
  <g id="axes_1">
   <g id="patch_2">
    <path d="M 121.5936 594.5189 
L 725.1264 594.5189 
L 725.1264 124.9061 
L 121.5936 124.9061 
z
" clip-path="url(#pb35834723c)" style="fill: #ffffff"/>
   </g>
   <g id="patch_3">
    <path d="M 110.88 605.2325 
L 735.84 605.2325 
L 735.84 594.5189 
L 110.88 594.5189 
z
" clip-path="url(#pb35834723c)" style="fill: #e0e0e0; stroke: #333333; stroke-width: 0.3; stroke-linejoin: miter"/>
   </g>
   <g id="patch_4">
    <path d="M 110.88 124.9061 
L 735.84 124.9061 
L 735.84 114.1925 
L 110.88 114.1925 
z
" clip-path="url(#pb35834723c)" style="fill: #e0e0e0; stroke: #333333; stroke-width: 0.3; stroke-linejoin: miter"/>
   </g>
   <g id="patch_5">
    <path d="M 110.88 605.2325 
L 121.5936 605.2325 
L 121.5936 114.1925 
L 110.88 114.1925 
z
" clip-path="url(#pb35834723c)" style="fill: #e0e0e0; stroke: #333333; stroke-width: 0.3; stroke-linejoin: miter"/>
   </g>
   <g id="patch_6">
    <path d="M 725.1264 605.2325 
L 735.84 605.2325 
L 735.84 114.1925 
L 725.1264 114.1925 
z
" clip-path="url(#pb35834723c)" style="fill: #e0e0e0; stroke: #333333; stroke-width: 0.3; stroke-linejoin: miter"/>
   </g>
   <g id="patch_7">
    <path d="M 121.5936 538.2725 
L 725.1264 538.2725 
L 725.1264 532.9157 
L 121.5936 532.9157 
z
" clip-path="url(#pb35834723c)" style="fill: #e0e0e0; stroke: #333333; stroke-width: 0.2; stroke-linejoin: miter"/>
   </g>
   <g id="patch_8">
    <path d="M 121.5936 373.1045 
L 725.1264 373.1045 
L 725.1264 367.7477 
L 121.5936 367.7477 
z
" clip-path="url(#pb35834723c)" style="fill: #e0e0e0; stroke: #333333; stroke-width: 0.2; stroke-linejoin: miter"/>
   </g>
   <g id="patch_9">
    <path d="M 121.5936 283.8245 
L 725.1264 283.8245 
L 725.1264 278.4677 
L 121.5936 278.4677 
z
" clip-path="url(#pb35834723c)" style="fill: #e0e0e0; stroke: #333333; stroke-width: 0.2; stroke-linejoin: miter"/>
   </g>
   <g id="patch_10">
    <path d="M 325.152 532.9157 
L 330.5088 532.9157 
L 330.5088 373.1045 
L 325.152 373.1045 
z
" clip-path="url(#pb35834723c)" style="fill: #e0e0e0; stroke: #333333; stroke-width: 0.2; stroke-linejoin: miter"/>
   </g>
   <g id="patch_11">
    <path d="M 369.792 278.4677 
L 375.1488 278.4677 
L 375.1488 124.9061 
L 369.792 124.9061 
z
" clip-path="url(#pb35834723c)" style="fill: #e0e0e0; stroke: #333333; stroke-width: 0.2; stroke-linejoin: miter"/>
   </g>
   <g id="patch_12">
    <path d="M 468 278.4677 
L 473.3568 278.4677 
L 473.3568 124.9061 
L 468 124.9061 
z
" clip-path="url(#pb35834723c)" style="fill: #e0e0e0; stroke: #333333; stroke-width: 0.2; stroke-linejoin: miter"/>
   </g>
   <g id="patch_13">
    <path d="M 610.848 278.4677 
L 616.2048 278.4677 
L 616.2048 124.9061 
L 610.848 124.9061 
z
" clip-path="url(#pb35834723c)" style="fill: #e0e0e0; stroke: #333333; stroke-width: 0.2; stroke-linejoin: miter"/>
   </g>
   <g id="text_1">
    <!-- 二层给排水平面图  2F Plumbing Plan -->
    <g style="fill: #1a1a1a" transform="translate(331.47 35.2325) scale(0.16 -0.16)">
     <defs>
      <path id="NotoSansCJKsc-Bold-4e8c" d="M 883 4557 
L 883 3712 
L 5530 3712 
L 5530 4557 
L 883 4557 
z
M 346 838 
L 346 -38 
L 6061 -38 
L 6061 838 
L 346 838 
z
" transform="scale(0.015625)"/>
      <path id="NotoSansCJKsc-Bold-5c42" d="M 1978 2931 
L 1978 2272 
L 5619 2272 
L 5619 2931 
L 1978 2931 
z
M 1504 4518 
L 4998 4518 
L 4998 3981 
L 1504 3981 
L 1504 4518 
z
M 730 5165 
L 730 3270 
C 730 2266 685 813 134 -173 
C 326 -243 672 -429 826 -557 
C 1414 506 1504 2170 1504 3277 
L 1504 3328 
L 5773 3328 
L 5773 5165 
L 730 5165 
z
M 4358 870 
L 4666 358 
L 2842 243 
C 3072 518 3296 832 3488 1146 
L 5037 1146 
L 4358 870 
z
M 1990 -550 
C 2240 -461 2592 -429 4998 -237 
C 5075 -390 5146 -531 5197 -646 
L 5926 -314 
C 5734 64 5338 691 5037 1146 
L 6054 1146 
L 6054 1811 
L 1626 1811 
L 1626 1146 
L 2547 1146 
C 2362 794 2150 493 2067 397 
C 1946 250 1830 147 1715 122 
C 1805 -70 1946 -410 1990 -550 
z
" transform="scale(0.015625)"/>
      <path id="NotoSansCJKsc-Bold-7ed9" d="M 205 435 
L 346 -320 
C 966 -160 1766 45 2522 243 
L 2445 909 
C 1626 723 768 538 205 435 
z
M 371 2643 
C 474 2694 627 2739 1158 2803 
C 954 2509 781 2291 691 2189 
C 486 1958 346 1811 179 1773 
C 269 1581 384 1229 422 1082 
C 595 1184 864 1254 2470 1568 
C 2458 1728 2464 2022 2490 2221 
L 1427 2042 
C 1856 2566 2272 3168 2605 3770 
L 1958 4173 
C 1850 3942 1722 3706 1594 3482 
L 1107 3443 
C 1466 3942 1805 4538 2048 5101 
L 1312 5453 
C 1082 4723 646 3942 506 3750 
C 365 3546 256 3411 115 3373 
C 211 3168 333 2797 371 2643 
z
M 3949 5453 
C 3648 4544 3027 3661 2227 3136 
C 2394 3014 2656 2733 2765 2566 
C 2912 2675 3059 2790 3194 2912 
L 3194 2669 
L 5286 2669 
L 5286 2970 
C 5427 2842 5568 2726 5715 2630 
C 5837 2829 6080 3117 6259 3264 
C 5594 3629 4960 4314 4589 5018 
L 4672 5248 
L 3949 5453 
z
M 4902 3366 
L 3629 3366 
C 3866 3648 4077 3962 4256 4301 
C 4448 3962 4666 3648 4902 3366 
z
M 2822 2150 
L 2822 -582 
L 3571 -582 
L 3571 -275 
L 4806 -275 
L 4806 -576 
L 5594 -576 
L 5594 2150 
L 2822 2150 
z
M 3571 403 
L 3571 1478 
L 4806 1478 
L 4806 403 
L 3571 403 
z
" transform="scale(0.015625)"/>
      <path id="NotoSansCJKsc-Bold-6392" d="M 992 5440 
L 992 4218 
L 269 4218 
L 269 3507 
L 992 3507 
L 992 2362 
C 691 2291 416 2234 186 2189 
L 301 1434 
L 992 1613 
L 992 275 
C 992 192 966 166 883 166 
C 806 166 570 166 346 173 
C 435 -19 531 -320 550 -512 
C 973 -512 1261 -493 1466 -378 
C 1664 -262 1728 -77 1728 275 
L 1728 1805 
L 2394 1984 
L 2304 2688 
L 1728 2541 
L 1728 3507 
L 2310 3507 
L 2310 4218 
L 1728 4218 
L 1728 5440 
L 992 5440 
z
M 2368 1702 
L 2368 1011 
L 3334 1011 
L 3334 -563 
L 4070 -563 
L 4070 5357 
L 3334 5357 
L 3334 4422 
L 2509 4422 
L 2509 3750 
L 3334 3750 
L 3334 3059 
L 2528 3059 
L 2528 2394 
L 3334 2394 
L 3334 1702 
L 2368 1702 
z
M 4512 5363 
L 4512 -576 
L 5248 -576 
L 5248 998 
L 6208 998 
L 6208 1683 
L 5248 1683 
L 5248 2394 
L 6074 2394 
L 6074 3059 
L 5248 3059 
L 5248 3750 
L 6125 3750 
L 6125 4422 
L 5248 4422 
L 5248 5363 
L 4512 5363 
z
" transform="scale(0.015625)"/>
      <path id="NotoSansCJKsc-Bold-6c34" d="M 365 3866 
L 365 3091 
L 1715 3091 
C 1434 1971 883 1088 141 582 
C 326 467 634 166 762 -6 
C 1664 666 2355 1965 2643 3706 
L 2131 3898 
L 1990 3866 
L 365 3866 
z
M 5120 4314 
C 4832 3910 4390 3424 3987 3046 
C 3853 3309 3731 3584 3635 3866 
L 3635 5434 
L 2816 5434 
L 2816 410 
C 2816 301 2778 262 2669 262 
C 2547 262 2202 262 1850 275 
C 1971 45 2106 -346 2138 -582 
C 2656 -582 3040 -544 3296 -410 
C 3552 -269 3635 -38 3635 403 
L 3635 2246 
C 4141 1286 4819 506 5722 26 
C 5850 250 6112 576 6291 736 
C 5491 1088 4832 1696 4339 2438 
C 4794 2803 5363 3334 5830 3814 
L 5120 4314 
z
" transform="scale(0.015625)"/>
      <path id="NotoSansCJKsc-Bold-5e73" d="M 1018 3866 
C 1229 3437 1427 2874 1491 2528 
L 2240 2765 
C 2163 3123 1939 3661 1722 4077 
L 1018 3866 
z
M 4666 4096 
C 4544 3674 4314 3110 4109 2739 
L 4781 2541 
C 4998 2874 5261 3392 5491 3885 
L 4666 4096 
z
M 294 2330 
L 294 1555 
L 2797 1555 
L 2797 -570 
L 3597 -570 
L 3597 1555 
L 6125 1555 
L 6125 2330 
L 3597 2330 
L 3597 4282 
L 5754 4282 
L 5754 5043 
L 634 5043 
L 634 4282 
L 2797 4282 
L 2797 2330 
L 294 2330 
z
" transform="scale(0.015625)"/>
      <path id="NotoSansCJKsc-Bold-9762" d="M 2662 2016 
L 3648 2016 
L 3648 1536 
L 2662 1536 
L 2662 2016 
z
M 2662 2618 
L 2662 3066 
L 3648 3066 
L 3648 2618 
L 2662 2618 
z
M 2662 934 
L 3648 934 
L 3648 461 
L 2662 461 
L 2662 934 
z
M 320 5069 
L 320 4346 
L 2662 4346 
C 2637 4154 2598 3955 2566 3770 
L 582 3770 
L 582 -576 
L 1325 -576 
L 1325 -250 
L 5030 -250 
L 5030 -576 
L 5811 -576 
L 5811 3770 
L 3366 3770 
L 3546 4346 
L 6106 4346 
L 6106 5069 
L 320 5069 
z
M 1325 461 
L 1325 3066 
L 1978 3066 
L 1978 461 
L 1325 461 
z
M 5030 461 
L 4339 461 
L 4339 3066 
L 5030 3066 
L 5030 461 
z
" transform="scale(0.015625)"/>
      <path id="NotoSansCJKsc-Bold-56fe" d="M 461 5190 
L 461 -576 
L 1197 -576 
L 1197 -346 
L 5178 -346 
L 5178 -576 
L 5952 -576 
L 5952 5190 
L 461 5190 
z
M 1702 890 
C 2560 794 3616 550 4256 326 
L 1197 326 
L 1197 2234 
C 1306 2080 1421 1862 1472 1715 
C 1824 1798 2176 1907 2528 2042 
L 2291 1709 
C 2829 1600 3507 1370 3885 1190 
L 4198 1664 
C 3834 1824 3232 2010 2720 2118 
C 2893 2195 3072 2272 3238 2362 
C 3731 2112 4282 1920 4838 1798 
C 4909 1939 5050 2138 5178 2278 
L 5178 326 
L 4339 326 
L 4666 845 
C 4006 1062 2925 1299 2048 1389 
L 1702 890 
z
M 2586 4506 
C 2278 4038 1741 3578 1222 3290 
C 1370 3181 1613 2957 1728 2829 
C 1856 2912 1984 3008 2118 3117 
C 2259 2989 2413 2867 2573 2752 
C 2138 2579 1658 2438 1197 2349 
L 1197 4506 
L 2586 4506 
z
M 2656 4506 
L 5178 4506 
L 5178 2381 
C 4736 2464 4288 2586 3885 2739 
C 4320 3040 4691 3392 4954 3789 
L 4525 4045 
L 4416 4013 
L 3008 4013 
C 3085 4109 3162 4211 3226 4307 
L 2656 4506 
z
M 3213 3046 
C 2982 3168 2778 3302 2605 3450 
L 3840 3450 
C 3661 3302 3443 3168 3213 3046 
z
" transform="scale(0.015625)"/>
      <path id="NotoSansCJKsc-Bold-20" transform="scale(0.015625)"/>
      <path id="NotoSansCJKsc-Bold-32" d="M 275 0 
L 3450 0 
L 3450 794 
L 2426 794 
C 2202 794 1888 768 1645 736 
C 2509 1587 3226 2509 3226 3366 
C 3226 4250 2630 4826 1734 4826 
C 1088 4826 666 4576 224 4102 
L 749 3597 
C 986 3859 1267 4083 1613 4083 
C 2067 4083 2323 3789 2323 3322 
C 2323 2586 1568 1696 275 544 
L 275 0 
z
" transform="scale(0.015625)"/>
      <path id="NotoSansCJKsc-Bold-46" d="M 582 0 
L 1530 0 
L 1530 1920 
L 3213 1920 
L 3213 2714 
L 1530 2714 
L 1530 3949 
L 3501 3949 
L 3501 4742 
L 582 4742 
L 582 0 
z
" transform="scale(0.015625)"/>
      <path id="NotoSansCJKsc-Bold-50" d="M 582 0 
L 1530 0 
L 1530 1683 
L 2163 1683 
C 3181 1683 3994 2170 3994 3251 
C 3994 4371 3187 4742 2138 4742 
L 582 4742 
L 582 0 
z
M 1530 2432 
L 1530 3987 
L 2067 3987 
C 2720 3987 3066 3802 3066 3251 
C 3066 2707 2752 2432 2099 2432 
L 1530 2432 
z
" transform="scale(0.015625)"/>
      <path id="NotoSansCJKsc-Bold-6c" d="M 1395 -90 
C 1613 -90 1766 -51 1875 -6 
L 1760 691 
C 1696 678 1670 678 1632 678 
C 1542 678 1446 749 1446 966 
L 1446 5107 
L 506 5107 
L 506 1005 
C 506 339 736 -90 1395 -90 
z
" transform="scale(0.015625)"/>
      <path id="NotoSansCJKsc-Bold-75" d="M 1574 -90 
C 2067 -90 2406 154 2714 518 
L 2739 518 
L 2810 0 
L 3578 0 
L 3578 3584 
L 2637 3584 
L 2637 1165 
C 2394 845 2202 717 1914 717 
C 1562 717 1402 909 1402 1466 
L 1402 3584 
L 467 3584 
L 467 1350 
C 467 448 800 -90 1574 -90 
z
" transform="scale(0.015625)"/>
      <path id="NotoSansCJKsc-Bold-6d" d="M 506 0 
L 1446 0 
L 1446 2464 
C 1696 2739 1926 2867 2131 2867 
C 2477 2867 2637 2675 2637 2118 
L 2637 0 
L 3571 0 
L 3571 2464 
C 3827 2739 4058 2867 4262 2867 
C 4602 2867 4762 2675 4762 2118 
L 4762 0 
L 5696 0 
L 5696 2234 
C 5696 3136 5350 3674 4589 3674 
C 4128 3674 3776 3392 3443 3046 
C 3277 3443 2976 3674 2464 3674 
C 1997 3674 1664 3418 1363 3104 
L 1344 3104 
L 1274 3584 
L 506 3584 
L 506 0 
z
" transform="scale(0.015625)"/>
      <path id="NotoSansCJKsc-Bold-62" d="M 2304 -90 
C 3091 -90 3827 621 3827 1856 
C 3827 2950 3296 3674 2413 3674 
C 2061 3674 1702 3501 1414 3245 
L 1446 3821 
L 1446 5107 
L 506 5107 
L 506 0 
L 1242 0 
L 1318 378 
L 1350 378 
C 1638 77 1984 -90 2304 -90 
z
M 2099 685 
C 1901 685 1664 755 1446 954 
L 1446 2534 
C 1690 2778 1907 2899 2150 2899 
C 2643 2899 2861 2522 2861 1837 
C 2861 1056 2522 685 2099 685 
z
" transform="scale(0.015625)"/>
      <path id="NotoSansCJKsc-Bold-69" d="M 506 0 
L 1446 0 
L 1446 3584 
L 506 3584 
L 506 0 
z
M 979 4166 
C 1299 4166 1523 4365 1523 4678 
C 1523 4986 1299 5190 979 5190 
C 646 5190 435 4986 435 4678 
C 435 4365 646 4166 979 4166 
z
" transform="scale(0.015625)"/>
      <path id="NotoSansCJKsc-Bold-6e" d="M 506 0 
L 1446 0 
L 1446 2464 
C 1709 2726 1901 2867 2189 2867 
C 2541 2867 2694 2675 2694 2118 
L 2694 0 
L 3635 0 
L 3635 2234 
C 3635 3136 3302 3674 2528 3674 
C 2042 3674 1677 3418 1363 3110 
L 1344 3110 
L 1274 3584 
L 506 3584 
L 506 0 
z
" transform="scale(0.015625)"/>
      <path id="NotoSansCJKsc-Bold-67" d="M 1766 -1555 
C 2963 -1555 3718 -1005 3718 -282 
C 3718 346 3245 614 2381 614 
L 1766 614 
C 1350 614 1203 717 1203 902 
C 1203 1056 1267 1133 1357 1216 
C 1517 1158 1683 1133 1818 1133 
C 2592 1133 3206 1536 3206 2349 
C 3206 2573 3136 2771 3046 2893 
L 3654 2893 
L 3654 3584 
L 2368 3584 
C 2214 3635 2029 3674 1818 3674 
C 1062 3674 378 3219 378 2381 
C 378 1958 608 1619 858 1440 
L 858 1414 
C 640 1261 461 1011 461 749 
C 461 448 595 262 787 141 
L 787 109 
C 448 -77 275 -333 275 -634 
C 275 -1267 922 -1555 1766 -1555 
z
M 1818 1715 
C 1510 1715 1261 1952 1261 2381 
C 1261 2797 1504 3027 1818 3027 
C 2138 3027 2387 2797 2387 2381 
C 2387 1952 2138 1715 1818 1715 
z
M 1907 -954 
C 1389 -954 1056 -787 1056 -493 
C 1056 -339 1126 -198 1286 -70 
C 1421 -102 1568 -115 1779 -115 
L 2221 -115 
C 2605 -115 2816 -186 2816 -442 
C 2816 -717 2451 -954 1907 -954 
z
" transform="scale(0.015625)"/>
      <path id="NotoSansCJKsc-Bold-61" d="M 1382 -90 
C 1798 -90 2157 109 2464 384 
L 2496 384 
L 2560 0 
L 3328 0 
L 3328 2093 
C 3328 3130 2861 3674 1952 3674 
C 1389 3674 877 3456 461 3200 
L 794 2573 
C 1126 2771 1446 2918 1779 2918 
C 2221 2918 2374 2650 2387 2298 
C 947 2144 326 1741 326 979 
C 326 365 742 -90 1382 -90 
z
M 1696 646 
C 1421 646 1222 768 1222 1050 
C 1222 1376 1510 1613 2387 1715 
L 2387 998 
C 2163 774 1965 646 1696 646 
z
" transform="scale(0.015625)"/>
     </defs>
     <use xlink:href="#NotoSansCJKsc-Bold-4e8c"/>
     <use xlink:href="#NotoSansCJKsc-Bold-5c42" transform="translate(99.999985 0)"/>
     <use xlink:href="#NotoSansCJKsc-Bold-7ed9" transform="translate(199.999969 0)"/>
     <use xlink:href="#NotoSansCJKsc-Bold-6392" transform="translate(299.999954 0)"/>
     <use xlink:href="#NotoSansCJKsc-Bold-6c34" transform="translate(399.999939 0)"/>
     <use xlink:href="#NotoSansCJKsc-Bold-5e73" transform="translate(499.999924 0)"/>
     <use xlink:href="#NotoSansCJKsc-Bold-9762" transform="translate(599.999908 0)"/>
     <use xlink:href="#NotoSansCJKsc-Bold-56fe" transform="translate(699.999893 0)"/>
     <use xlink:href="#NotoSansCJKsc-Bold-20" transform="translate(799.999878 0)"/>
     <use xlink:href="#NotoSansCJKsc-Bold-20" transform="translate(822.699875 0)"/>
     <use xlink:href="#NotoSansCJKsc-Bold-32" transform="translate(845.399872 0)"/>
     <use xlink:href="#NotoSansCJKsc-Bold-46" transform="translate(904.399857 0)"/>
     <use xlink:href="#NotoSansCJKsc-Bold-20" transform="translate(962.899841 0)"/>
     <use xlink:href="#NotoSansCJKsc-Bold-50" transform="translate(985.599838 0)"/>
     <use xlink:href="#NotoSansCJKsc-Bold-6c" transform="translate(1052.299835 0)"/>
     <use xlink:href="#NotoSansCJKsc-Bold-75" transform="translate(1083.79982 0)"/>
     <use xlink:href="#NotoSansCJKsc-Bold-6d" transform="translate(1147.499817 0)"/>
     <use xlink:href="#NotoSansCJKsc-Bold-62" transform="translate(1243.899811 0)"/>
     <use xlink:href="#NotoSansCJKsc-Bold-69" transform="translate(1308.299805 0)"/>
     <use xlink:href="#NotoSansCJKsc-Bold-6e" transform="translate(1338.699799 0)"/>
     <use xlink:href="#NotoSansCJKsc-Bold-67" transform="translate(1402.799789 0)"/>
     <use xlink:href="#NotoSansCJKsc-Bold-20" transform="translate(1462.499786 0)"/>
     <use xlink:href="#NotoSansCJKsc-Bold-50" transform="translate(1485.199783 0)"/>
     <use xlink:href="#NotoSansCJKsc-Bold-6c" transform="translate(1551.89978 0)"/>
     <use xlink:href="#NotoSansCJKsc-Bold-61" transform="translate(1583.399765 0)"/>
     <use xlink:href="#NotoSansCJKsc-Bold-6e" transform="translate(1642.499756 0)"/>
    </g>
   </g>
   <g id="text_2">
    <!-- 南向大阳台 -->
    <g style="fill: #aaaaaa" transform="translate(388.36 575.720625) scale(0.14 -0.14)">
     <defs>
      <path id="NotoSansCJKsc-Regular-5357" d="M 2029 2944 
C 2189 2707 2355 2387 2413 2170 
L 2816 2310 
C 2746 2522 2579 2842 2406 3066 
L 2029 2944 
z
M 2931 5376 
L 2931 4736 
L 384 4736 
L 384 4282 
L 2931 4282 
L 2931 3603 
L 730 3603 
L 730 -506 
L 1216 -506 
L 1216 3162 
L 5197 3162 
L 5197 51 
C 5197 -51 5165 -83 5050 -90 
C 4941 -96 4544 -102 4141 -83 
C 4211 -205 4282 -384 4307 -512 
C 4832 -512 5197 -512 5408 -435 
C 5619 -365 5683 -237 5683 51 
L 5683 3603 
L 3462 3603 
L 3462 4282 
L 6022 4282 
L 6022 4736 
L 3462 4736 
L 3462 5376 
L 2931 5376 
z
M 3981 3078 
C 3885 2816 3686 2426 3539 2163 
L 1702 2163 
L 1702 1773 
L 2950 1773 
L 2950 1126 
L 1568 1126 
L 1568 723 
L 2950 723 
L 2950 -390 
L 3411 -390 
L 3411 723 
L 4851 723 
L 4851 1126 
L 3411 1126 
L 3411 1773 
L 4736 1773 
L 4736 2163 
L 3955 2163 
C 4102 2394 4256 2675 4397 2950 
L 3981 3078 
z
" transform="scale(0.015625)"/>
      <path id="NotoSansCJKsc-Regular-5411" d="M 2803 5389 
C 2714 5062 2554 4614 2394 4269 
L 634 4269 
L 634 -512 
L 1107 -512 
L 1107 3802 
L 5325 3802 
L 5325 128 
C 5325 13 5286 -26 5158 -26 
C 5024 -32 4582 -38 4122 -13 
C 4192 -154 4262 -378 4288 -512 
C 4877 -512 5274 -506 5504 -429 
C 5728 -346 5805 -192 5805 128 
L 5805 4269 
L 2925 4269 
C 3085 4576 3258 4947 3398 5293 
L 2803 5389 
z
M 2387 2522 
L 4006 2522 
L 4006 1267 
L 2387 1267 
L 2387 2522 
z
M 1946 2950 
L 1946 371 
L 2387 371 
L 2387 832 
L 4454 832 
L 4454 2950 
L 1946 2950 
z
" transform="scale(0.015625)"/>
      <path id="NotoSansCJKsc-Regular-5927" d="M 2950 5370 
C 2944 4864 2950 4218 2854 3539 
L 397 3539 
L 397 3046 
L 2771 3046 
C 2515 1830 1875 589 275 -102 
C 410 -205 563 -378 640 -499 
C 2202 218 2893 1446 3206 2682 
C 3706 1222 4531 90 5773 -499 
C 5856 -358 6010 -160 6131 -51 
C 4890 467 4051 1632 3603 3046 
L 6029 3046 
L 6029 3539 
L 3366 3539 
C 3456 4211 3462 4851 3469 5370 
L 2950 5370 
z
" transform="scale(0.015625)"/>
      <path id="NotoSansCJKsc-Regular-9633" d="M 2963 4986 
L 2963 -461 
L 3424 -461 
L 3424 32 
L 5331 32 
L 5331 -403 
L 5811 -403 
L 5811 4986 
L 2963 4986 
z
M 3424 486 
L 3424 2355 
L 5331 2355 
L 5331 486 
L 3424 486 
z
M 3424 2803 
L 3424 4538 
L 5331 4538 
L 5331 2803 
L 3424 2803 
z
M 557 5114 
L 557 -499 
L 1005 -499 
L 1005 4678 
L 1997 4678 
C 1818 4243 1568 3680 1325 3232 
C 1926 2726 2093 2291 2099 1939 
C 2099 1734 2054 1574 1933 1498 
C 1856 1453 1766 1434 1670 1434 
C 1536 1421 1363 1421 1178 1446 
C 1254 1318 1293 1126 1299 1005 
C 1485 992 1690 992 1850 1011 
C 2003 1030 2138 1069 2246 1139 
C 2458 1274 2547 1536 2547 1894 
C 2541 2298 2400 2758 1792 3290 
C 2067 3782 2368 4403 2611 4928 
L 2291 5133 
L 2214 5114 
L 557 5114 
z
" transform="scale(0.015625)"/>
      <path id="NotoSansCJKsc-Regular-53f0" d="M 1146 2189 
L 1146 -506 
L 1632 -506 
L 1632 -160 
L 4742 -160 
L 4742 -493 
L 5254 -493 
L 5254 2189 
L 1146 2189 
z
M 1632 307 
L 1632 1728 
L 4742 1728 
L 4742 307 
L 1632 307 
z
M 806 2726 
C 1056 2822 1434 2835 5120 3034 
C 5280 2835 5414 2650 5510 2483 
L 5920 2778 
C 5587 3315 4838 4102 4211 4653 
L 3834 4397 
C 4141 4122 4474 3782 4768 3456 
L 1478 3302 
C 2048 3827 2624 4486 3136 5190 
L 2656 5402 
C 2150 4608 1402 3795 1171 3578 
C 954 3366 794 3232 646 3200 
C 704 3072 781 2829 806 2726 
z
" transform="scale(0.015625)"/>
     </defs>
     <use xlink:href="#NotoSansCJKsc-Regular-5357"/>
     <use xlink:href="#NotoSansCJKsc-Regular-5411" transform="translate(99.999985 0)"/>
     <use xlink:href="#NotoSansCJKsc-Regular-5927" transform="translate(199.999969 0)"/>
     <use xlink:href="#NotoSansCJKsc-Regular-9633" transform="translate(299.999954 0)"/>
     <use xlink:href="#NotoSansCJKsc-Regular-53f0" transform="translate(399.999939 0)"/>
    </g>
   </g>
   <g id="text_3">
    <!-- 次卧室1 -->
    <g style="fill: #aaaaaa" transform="translate(198.4878 459.656625) scale(0.14 -0.14)">
     <defs>
      <path id="NotoSansCJKsc-Regular-6b21" d="M 365 4589 
C 800 4346 1344 3962 1600 3699 
L 1907 4090 
C 1638 4352 1088 4704 653 4934 
L 365 4589 
z
M 269 467 
L 710 134 
C 1107 710 1594 1453 1971 2106 
L 1600 2426 
C 1184 1728 640 934 269 467 
z
M 2906 5376 
C 2701 4352 2342 3354 1850 2726 
C 1978 2669 2214 2534 2310 2458 
C 2566 2822 2797 3290 2995 3814 
L 5357 3814 
C 5235 3373 5037 2886 4883 2579 
C 4998 2528 5190 2432 5293 2374 
C 5517 2816 5798 3494 5965 4122 
L 5613 4314 
L 5517 4288 
L 3155 4288 
C 3258 4608 3347 4941 3418 5280 
L 2906 5376 
z
M 3642 3501 
L 3642 3104 
C 3642 2189 3501 794 1536 -166 
C 1658 -250 1824 -422 1901 -538 
C 3162 96 3718 915 3968 1696 
C 4326 672 4902 -77 5830 -467 
C 5894 -339 6042 -141 6150 -45 
C 5037 358 4429 1344 4141 2630 
C 4147 2797 4154 2950 4154 3098 
L 4154 3501 
L 3642 3501 
z
" transform="scale(0.015625)"/>
      <path id="NotoSansCJKsc-Regular-5367" d="M 1114 2970 
L 2899 2970 
L 2899 1978 
L 1114 1978 
L 1114 2970 
z
M 1114 1530 
L 2080 1530 
L 2080 282 
L 1114 282 
L 1114 1530 
z
M 1114 3424 
L 1114 4576 
L 2086 4576 
L 2086 3424 
L 1114 3424 
z
M 3501 5030 
L 640 5030 
L 640 -179 
L 3565 -179 
L 3565 282 
L 2534 282 
L 2534 1530 
L 3379 1530 
L 3379 3424 
L 2534 3424 
L 2534 4576 
L 3501 4576 
L 3501 5030 
z
M 4141 5299 
L 4141 -474 
L 4621 -474 
L 4621 2810 
C 5050 2419 5523 1946 5779 1638 
L 6131 1958 
C 5837 2298 5248 2842 4755 3251 
L 4621 3142 
L 4621 5299 
L 4141 5299 
z
" transform="scale(0.015625)"/>
      <path id="NotoSansCJKsc-Regular-5ba4" d="M 954 1382 
L 954 960 
L 2950 960 
L 2950 102 
L 378 102 
L 378 -333 
L 6048 -333 
L 6048 102 
L 3443 102 
L 3443 960 
L 5478 960 
L 5478 1382 
L 3443 1382 
L 3443 2054 
L 2950 2054 
L 2950 1382 
L 954 1382 
z
M 1216 1939 
C 1414 2016 1715 2042 4774 2278 
C 4922 2131 5050 1984 5139 1869 
L 5510 2131 
C 5248 2464 4698 2957 4250 3302 
L 3898 3066 
C 4064 2931 4243 2784 4416 2624 
L 1939 2451 
C 2304 2720 2669 3040 3008 3379 
L 5344 3379 
L 5344 3795 
L 1107 3795 
L 1107 3379 
L 2387 3379 
C 2029 3014 1651 2707 1510 2611 
C 1344 2483 1197 2400 1075 2381 
C 1126 2259 1190 2035 1216 1939 
z
M 2784 5306 
C 2874 5158 2963 4973 3034 4806 
L 448 4806 
L 448 3674 
L 915 3674 
L 915 4371 
L 5472 4371 
L 5472 3674 
L 5958 3674 
L 5958 4806 
L 3571 4806 
C 3501 4998 3366 5248 3245 5440 
L 2784 5306 
z
" transform="scale(0.015625)"/>
      <path id="NotoSansCJKsc-Regular-31" d="M 563 0 
L 3136 0 
L 3136 486 
L 2195 486 
L 2195 4691 
L 1747 4691 
C 1491 4544 1190 4435 774 4358 
L 774 3987 
L 1613 3987 
L 1613 486 
L 563 486 
L 563 0 
z
" transform="scale(0.015625)"/>
     </defs>
     <use xlink:href="#NotoSansCJKsc-Regular-6b21"/>
     <use xlink:href="#NotoSansCJKsc-Regular-5367" transform="translate(99.999985 0)"/>
     <use xlink:href="#NotoSansCJKsc-Regular-5ba4" transform="translate(199.999969 0)"/>
     <use xlink:href="#NotoSansCJKsc-Regular-31" transform="translate(299.999954 0)"/>
    </g>
   </g>
   <g id="text_4">
    <!-- 次卧室2 -->
    <g style="fill: #aaaaaa" transform="translate(505.611 459.656625) scale(0.14 -0.14)">
     <defs>
      <path id="NotoSansCJKsc-Regular-32" d="M 282 0 
L 3232 0 
L 3232 506 
L 1933 506 
C 1696 506 1408 480 1165 461 
C 2266 1504 3008 2458 3008 3398 
C 3008 4230 2477 4774 1638 4774 
C 1043 4774 634 4506 256 4090 
L 595 3757 
C 858 4070 1184 4301 1568 4301 
C 2150 4301 2432 3910 2432 3373 
C 2432 2566 1754 1632 282 346 
L 282 0 
z
" transform="scale(0.015625)"/>
     </defs>
     <use xlink:href="#NotoSansCJKsc-Regular-6b21"/>
     <use xlink:href="#NotoSansCJKsc-Regular-5367" transform="translate(99.999985 0)"/>
     <use xlink:href="#NotoSansCJKsc-Regular-5ba4" transform="translate(199.999969 0)"/>
     <use xlink:href="#NotoSansCJKsc-Regular-32" transform="translate(299.999954 0)"/>
    </g>
   </g>
   <g id="text_5">
    <!-- 走廊 -->
    <g style="fill: #aaaaaa" transform="translate(409.36 332.432625) scale(0.14 -0.14)">
     <defs>
      <path id="NotoSansCJKsc-Regular-8d70" d="M 1402 2458 
C 1306 1517 998 384 218 -211 
C 326 -288 493 -435 576 -525 
C 1030 -166 1338 358 1549 934 
C 2189 -186 3232 -429 4608 -429 
L 5990 -429 
C 6016 -294 6099 -77 6170 38 
C 5888 32 4838 32 4627 32 
C 4198 32 3795 58 3430 134 
L 3430 1395 
L 5574 1395 
L 5574 1830 
L 3430 1830 
L 3430 2848 
L 5990 2848 
L 5990 3296 
L 3430 3296 
L 3430 4179 
L 5523 4179 
L 5523 4627 
L 3430 4627 
L 3430 5370 
L 2938 5370 
L 2938 4627 
L 960 4627 
L 960 4179 
L 2938 4179 
L 2938 3296 
L 403 3296 
L 403 2848 
L 2938 2848 
L 2938 282 
C 2413 493 2003 870 1728 1517 
C 1805 1811 1862 2106 1901 2394 
L 1402 2458 
z
" transform="scale(0.015625)"/>
      <path id="NotoSansCJKsc-Regular-5eca" d="M 3238 2477 
L 3238 1914 
L 2029 1914 
L 2029 2477 
L 3238 2477 
z
M 3238 2816 
L 2029 2816 
L 2029 3341 
L 3238 3341 
L 3238 2816 
z
M 4122 3968 
L 4122 -518 
L 4550 -518 
L 4550 3571 
L 5459 3571 
C 5306 3174 5101 2682 4896 2259 
C 5408 1792 5549 1402 5549 1075 
C 5549 883 5517 723 5408 659 
C 5350 627 5274 608 5190 602 
C 5082 595 4928 595 4768 614 
C 4838 499 4883 320 4890 205 
C 5050 198 5229 198 5363 211 
C 5491 230 5606 269 5702 333 
C 5894 461 5971 710 5971 1043 
C 5965 1414 5837 1830 5325 2317 
C 5562 2778 5818 3341 6022 3821 
L 5715 3987 
L 5651 3968 
L 4122 3968 
z
M 2317 4179 
C 2381 4038 2445 3866 2502 3706 
L 1587 3706 
L 1587 525 
C 1587 237 1427 83 1312 6 
C 1389 -70 1504 -237 1549 -339 
C 1664 -250 1869 -179 3258 269 
C 3341 90 3418 -70 3469 -205 
L 3853 -19 
C 3706 339 3379 922 3091 1350 
L 2726 1203 
C 2842 1024 2963 819 3072 614 
L 2029 301 
L 2029 1555 
L 3674 1555 
L 3674 3706 
L 2970 3706 
C 2906 3885 2816 4102 2726 4275 
L 2317 4179 
z
M 3066 5299 
C 3130 5158 3200 4986 3258 4832 
L 704 4832 
L 704 2854 
C 704 1933 666 653 205 -256 
C 314 -301 506 -448 589 -531 
C 1082 435 1152 1875 1152 2861 
L 1152 4410 
L 6086 4410 
L 6086 4832 
L 3770 4832 
C 3699 5011 3603 5235 3514 5414 
L 3066 5299 
z
" transform="scale(0.015625)"/>
     </defs>
     <use xlink:href="#NotoSansCJKsc-Regular-8d70"/>
     <use xlink:href="#NotoSansCJKsc-Regular-5eca" transform="translate(99.999985 0)"/>
    </g>
   </g>
   <g id="text_6">
    <!-- 主卧室2 -->
    <g style="fill: #aaaaaa" transform="translate(220.8078 202.976625) scale(0.14 -0.14)">
     <defs>
      <path id="NotoSansCJKsc-Regular-4e3b" d="M 2394 5088 
C 2784 4800 3232 4390 3488 4096 
L 659 4096 
L 659 3629 
L 2938 3629 
L 2938 2221 
L 954 2221 
L 954 1754 
L 2938 1754 
L 2938 173 
L 358 173 
L 358 -294 
L 6067 -294 
L 6067 173 
L 3456 173 
L 3456 1754 
L 5478 1754 
L 5478 2221 
L 3456 2221 
L 3456 3629 
L 5741 3629 
L 5741 4096 
L 3661 4096 
L 3968 4320 
C 3712 4621 3194 5056 2784 5350 
L 2394 5088 
z
" transform="scale(0.015625)"/>
     </defs>
     <use xlink:href="#NotoSansCJKsc-Regular-4e3b"/>
     <use xlink:href="#NotoSansCJKsc-Regular-5367" transform="translate(99.999985 0)"/>
     <use xlink:href="#NotoSansCJKsc-Regular-5ba4" transform="translate(199.999969 0)"/>
     <use xlink:href="#NotoSansCJKsc-Regular-32" transform="translate(299.999954 0)"/>
    </g>
   </g>
   <g id="text_7">
    <!-- 主卫2 -->
    <g style="fill: #aaaaaa" transform="translate(401.011 202.976625) scale(0.14 -0.14)">
     <defs>
      <path id="NotoSansCJKsc-Regular-536b" d="M 736 4915 
L 736 4429 
L 2669 4429 
L 2669 205 
L 333 205 
L 333 -275 
L 6086 -275 
L 6086 205 
L 3181 205 
L 3181 4429 
L 5082 4429 
L 5082 2208 
C 5082 2106 5050 2074 4922 2067 
C 4787 2061 4339 2061 3846 2074 
C 3923 1946 4013 1734 4038 1600 
C 4627 1600 5030 1606 5267 1683 
C 5504 1766 5574 1914 5574 2195 
L 5574 4915 
L 736 4915 
z
" transform="scale(0.015625)"/>
     </defs>
     <use xlink:href="#NotoSansCJKsc-Regular-4e3b"/>
     <use xlink:href="#NotoSansCJKsc-Regular-536b" transform="translate(99.999985 0)"/>
     <use xlink:href="#NotoSansCJKsc-Regular-32" transform="translate(199.999969 0)"/>
    </g>
   </g>
   <g id="text_8">
    <!-- 主卧室3 -->
    <g style="fill: #aaaaaa" transform="translate(514.539 202.976625) scale(0.14 -0.14)">
     <defs>
      <path id="NotoSansCJKsc-Regular-33" d="M 1683 -83 
C 2522 -83 3194 416 3194 1254 
C 3194 1901 2752 2310 2202 2445 
L 2202 2477 
C 2701 2650 3034 3034 3034 3603 
C 3034 4346 2458 4774 1664 4774 
C 1126 4774 710 4538 358 4218 
L 672 3846 
C 941 4115 1267 4301 1645 4301 
C 2138 4301 2438 4006 2438 3558 
C 2438 3053 2112 2662 1139 2662 
L 1139 2214 
C 2227 2214 2598 1843 2598 1274 
C 2598 736 2208 403 1645 403 
C 1114 403 762 659 486 941 
L 186 563 
C 493 224 954 -83 1683 -83 
z
" transform="scale(0.015625)"/>
     </defs>
     <use xlink:href="#NotoSansCJKsc-Regular-4e3b"/>
     <use xlink:href="#NotoSansCJKsc-Regular-5367" transform="translate(99.999985 0)"/>
     <use xlink:href="#NotoSansCJKsc-Regular-5ba4" transform="translate(199.999969 0)"/>
     <use xlink:href="#NotoSansCJKsc-Regular-33" transform="translate(299.999954 0)"/>
    </g>
   </g>
   <g id="text_9">
    <!-- 公卫 -->
    <g style="fill: #aaaaaa" transform="translate(659.344 246.723825) scale(0.14 -0.14)">
     <defs>
      <path id="NotoSansCJKsc-Regular-516c" d="M 2074 5190 
C 1696 4230 1050 3309 326 2739 
C 454 2662 672 2490 768 2394 
C 1478 3027 2157 4000 2586 5050 
L 2074 5190 
z
M 4256 5242 
L 3789 5050 
C 4275 4083 5094 3008 5766 2394 
C 5862 2522 6042 2707 6170 2803 
C 5504 3334 4685 4358 4256 5242 
z
M 1030 -90 
C 1274 0 1619 26 4998 250 
C 5171 -13 5318 -262 5427 -467 
L 5901 -211 
C 5581 371 4922 1274 4358 1958 
L 3910 1754 
C 4166 1434 4442 1062 4698 698 
L 1702 525 
C 2342 1267 2970 2227 3501 3200 
L 2976 3424 
C 2464 2362 1683 1242 1427 954 
C 1190 653 1018 461 845 416 
C 915 275 1005 19 1030 -90 
z
" transform="scale(0.015625)"/>
     </defs>
     <use xlink:href="#NotoSansCJKsc-Regular-516c"/>
     <use xlink:href="#NotoSansCJKsc-Regular-536b" transform="translate(99.999985 0)"/>
    </g>
   </g>
   <g id="text_10">
    <!-- 楼梯间 -->
    <g style="fill: #aaaaaa" transform="translate(652.344 161.907825) scale(0.14 -0.14)">
     <defs>
      <path id="NotoSansCJKsc-Regular-697c" d="M 2669 5030 
C 2842 4755 3040 4378 3142 4160 
L 3526 4358 
C 3430 4570 3219 4928 3040 5197 
L 2669 5030 
z
M 5344 5261 
C 5222 4979 4992 4570 4813 4320 
L 5146 4160 
C 5338 4397 5562 4755 5773 5082 
L 5344 5261 
z
M 3955 5376 
L 3955 4128 
L 2432 4128 
L 2432 3725 
L 3654 3725 
C 3270 3328 2726 2950 2253 2746 
C 2355 2662 2490 2509 2560 2400 
C 3021 2637 3558 3046 3955 3482 
L 3955 2445 
L 4410 2445 
L 4410 3501 
C 4813 3078 5363 2662 5818 2432 
C 5882 2541 6022 2707 6131 2790 
C 5664 2982 5101 3347 4710 3725 
L 5978 3725 
L 5978 4128 
L 4410 4128 
L 4410 5376 
L 3955 5376 
z
M 4864 1478 
C 4736 1107 4538 819 4256 589 
C 3974 691 3680 800 3392 896 
C 3507 1062 3629 1267 3750 1478 
L 4864 1478 
z
M 2726 704 
C 3098 582 3469 454 3821 320 
C 3405 115 2867 -13 2202 -96 
C 2272 -192 2355 -371 2394 -499 
C 3213 -371 3853 -179 4333 115 
C 4838 -90 5286 -301 5626 -486 
L 5958 -141 
C 5626 26 5197 218 4717 410 
C 5011 691 5222 1043 5350 1478 
L 6042 1478 
L 6042 1894 
L 3974 1894 
C 4051 2048 4122 2202 4186 2349 
L 3718 2438 
C 3648 2266 3565 2080 3469 1894 
L 2298 1894 
L 2298 1478 
L 3238 1478 
C 3066 1190 2886 922 2726 704 
z
M 1139 5376 
L 1139 4141 
L 358 4141 
L 358 3693 
L 1114 3693 
C 941 2822 576 1798 205 1261 
C 288 1146 403 934 461 794 
C 710 1184 947 1805 1139 2458 
L 1139 -506 
L 1581 -506 
L 1581 2842 
C 1747 2534 1933 2163 2016 1965 
L 2310 2310 
C 2208 2496 1741 3219 1581 3437 
L 1581 3693 
L 2208 3693 
L 2208 4141 
L 1581 4141 
L 1581 5376 
L 1139 5376 
z
" transform="scale(0.015625)"/>
      <path id="NotoSansCJKsc-Regular-68af" d="M 1235 5376 
L 1235 4141 
L 320 4141 
L 320 3693 
L 1197 3693 
C 992 2816 602 1798 198 1261 
C 288 1146 403 934 454 794 
C 742 1216 1024 1894 1235 2605 
L 1235 -506 
L 1677 -506 
L 1677 2842 
C 1850 2528 2054 2150 2138 1946 
L 2432 2291 
C 2323 2477 1837 3219 1677 3437 
L 1677 3693 
L 2362 3693 
L 2362 4141 
L 1677 4141 
L 1677 5376 
L 1235 5376 
z
M 3987 2726 
L 3987 2022 
L 3021 2022 
L 3110 2726 
L 3987 2726 
z
M 2733 3136 
C 2694 2650 2618 2016 2541 1613 
L 3776 1613 
C 3379 1005 2733 442 2118 160 
C 2214 70 2355 -96 2426 -205 
C 2995 96 3565 614 3987 1210 
L 3987 -512 
L 4442 -512 
L 4442 1613 
L 5613 1613 
C 5568 902 5517 621 5453 544 
C 5408 493 5363 480 5280 480 
C 5203 480 5018 486 4806 506 
C 4877 384 4915 192 4928 58 
C 5152 51 5370 51 5491 64 
C 5632 83 5728 122 5818 224 
C 5946 378 6010 800 6061 1830 
C 6067 1894 6074 2022 6074 2022 
L 4442 2022 
L 4442 2726 
L 5869 2726 
L 5869 4333 
L 5107 4333 
C 5274 4602 5446 4934 5600 5235 
L 5139 5376 
C 5018 5069 4813 4627 4634 4333 
L 3610 4333 
L 3802 4416 
C 3718 4678 3520 5069 3309 5357 
L 2931 5203 
C 3110 4941 3283 4595 3373 4333 
L 2502 4333 
L 2502 3923 
L 3987 3923 
L 3987 3136 
L 2733 3136 
z
M 4442 3923 
L 5421 3923 
L 5421 3136 
L 4442 3136 
L 4442 3923 
z
" transform="scale(0.015625)"/>
      <path id="NotoSansCJKsc-Regular-95f4" d="M 582 3936 
L 582 -512 
L 1075 -512 
L 1075 3936 
L 582 3936 
z
M 678 5062 
C 973 4781 1306 4378 1453 4122 
L 1850 4378 
C 1696 4646 1350 5024 1050 5293 
L 678 5062 
z
M 2426 1888 
L 3962 1888 
L 3962 1024 
L 2426 1024 
L 2426 1888 
z
M 2426 3142 
L 3962 3142 
L 3962 2291 
L 2426 2291 
L 2426 3142 
z
M 1990 3546 
L 1990 627 
L 4416 627 
L 4416 3546 
L 1990 3546 
z
M 2253 5018 
L 2253 4563 
L 5350 4563 
L 5350 70 
C 5350 -13 5325 -38 5242 -45 
C 5158 -45 4896 -51 4627 -38 
C 4691 -160 4755 -365 4781 -480 
C 5171 -480 5446 -480 5619 -403 
C 5786 -320 5843 -198 5843 70 
L 5843 5018 
L 2253 5018 
z
" transform="scale(0.015625)"/>
     </defs>
     <use xlink:href="#NotoSansCJKsc-Regular-697c"/>
     <use xlink:href="#NotoSansCJKsc-Regular-68af" transform="translate(99.999985 0)"/>
     <use xlink:href="#NotoSansCJKsc-Regular-95f4" transform="translate(199.999969 0)"/>
    </g>
   </g>
   <g id="line2d_1">
    <path d="M 401.04 225.7925 
L 387.648 225.7925 
" clip-path="url(#pb35834723c)" style="fill: none; stroke: #2196f3; stroke-width: 2.5; stroke-linecap: square"/>
   </g>
   <g id="line2d_2">
    <path d="M 387.648 225.7925 
L 387.648 181.1525 
" clip-path="url(#pb35834723c)" style="fill: none; stroke: #2196f3; stroke-width: 2.5; stroke-linecap: square"/>
   </g>
   <g id="line2d_3">
    <path d="M 512.64 225.7925 
L 512.64 181.1525 
" clip-path="url(#pb35834723c)" style="fill: none; stroke: #2196f3; stroke-width: 2.5; stroke-linecap: square"/>
   </g>
   <g id="line2d_4">
    <path d="M 637.632 270.4325 
L 637.632 292.7525 
" clip-path="url(#pb35834723c)" style="fill: none; stroke: #2196f3; stroke-width: 2.5; stroke-linecap: square"/>
   </g>
   <g id="line2d_5">
    <path d="M 374.256 203.4725 
L 374.256 136.5125 
" clip-path="url(#pb35834723c)" style="fill: none; stroke-dasharray: 9.25,4; stroke-dashoffset: 0; stroke: #795548; stroke-width: 2.5"/>
   </g>
   <g id="line2d_6">
    <path d="M 374.256 136.5125 
L 133.2 136.5125 
" clip-path="url(#pb35834723c)" style="fill: none; stroke-dasharray: 9.25,4; stroke-dashoffset: 0; stroke: #795548; stroke-width: 2.5"/>
   </g>
   <g id="line2d_7">
    <path d="M 521.568 203.4725 
L 713.52 203.4725 
" clip-path="url(#pb35834723c)" style="fill: none; stroke-dasharray: 9.25,4; stroke-dashoffset: 0; stroke: #795548; stroke-width: 2.5"/>
   </g>
   <g id="line2d_8">
    <path d="M 713.52 203.4725 
L 713.52 596.3045 
" clip-path="url(#pb35834723c)" style="fill: none; stroke-dasharray: 9.25,4; stroke-dashoffset: 0; stroke: #795548; stroke-width: 2.5"/>
   </g>
   <g id="line2d_9">
    <path d="M 646.56 283.8245 
L 646.56 596.3045 
" clip-path="url(#pb35834723c)" style="fill: none; stroke-dasharray: 9.25,4; stroke-dashoffset: 0; stroke: #795548; stroke-width: 2.5"/>
   </g>
   <g id="line2d_10">
    <path d="M 646.56 596.3045 
L 557.28 596.3045 
" clip-path="url(#pb35834723c)" style="fill: none; stroke-dasharray: 9.25,4; stroke-dashoffset: 0; stroke: #795548; stroke-width: 2.5"/>
   </g>
   <g id="line2d_11">
    <path d="M 401.04 225.7925 
L 387.648 225.7925 
" clip-path="url(#pb35834723c)" style="fill: none; stroke: #ff5722; stroke-width: 2; stroke-linecap: square"/>
   </g>
   <g id="line2d_12">
    <path d="M 387.648 225.7925 
L 387.648 181.1525 
" clip-path="url(#pb35834723c)" style="fill: none; stroke: #ff5722; stroke-width: 2; stroke-linecap: square"/>
   </g>
   <g id="line2d_13">
    <path d="M 512.64 225.7925 
L 521.568 225.7925 
" clip-path="url(#pb35834723c)" style="fill: none; stroke: #ff5722; stroke-width: 2; stroke-linecap: square"/>
   </g>
   <g id="line2d_14">
    <path d="M 521.568 225.7925 
L 521.568 181.1525 
" clip-path="url(#pb35834723c)" style="fill: none; stroke: #ff5722; stroke-width: 2; stroke-linecap: square"/>
   </g>
   <g id="patch_14">
    <path d="M 387.648 183.8309 
C 388.35832 183.8309 389.039643 183.548687 389.541915 183.046415 
C 390.044187 182.544143 390.3264 181.86282 390.3264 181.1525 
C 390.3264 180.44218 390.044187 179.760857 389.541915 179.258585 
C 389.039643 178.756313 388.35832 178.4741 387.648 178.4741 
C 386.93768 178.4741 386.256357 178.756313 385.754085 179.258585 
C 385.251813 179.760857 384.9696 180.44218 384.9696 181.1525 
C 384.9696 181.86282 385.251813 182.544143 385.754085 183.046415 
C 386.256357 183.548687 386.93768 183.8309 387.648 183.8309 
z
" clip-path="url(#pb35834723c)" style="fill: #ffffff; stroke: #2196f3; stroke-linejoin: miter"/>
   </g>
   <g id="line2d_15">
    <path d="M 387.648 181.1525 
L 391.2192 181.1525 
" clip-path="url(#pb35834723c)" style="fill: none; stroke: #2196f3; stroke-width: 0.8; stroke-linecap: square"/>
   </g>
   <g id="line2d_16">
    <path d="M 387.648 181.1525 
L 389.4336 178.05975 
" clip-path="url(#pb35834723c)" style="fill: none; stroke: #2196f3; stroke-width: 0.8; stroke-linecap: square"/>
   </g>
   <g id="line2d_17">
    <path d="M 387.648 181.1525 
L 385.8624 178.05975 
" clip-path="url(#pb35834723c)" style="fill: none; stroke: #2196f3; stroke-width: 0.8; stroke-linecap: square"/>
   </g>
   <g id="line2d_18">
    <path d="M 387.648 181.1525 
L 384.0768 181.1525 
" clip-path="url(#pb35834723c)" style="fill: none; stroke: #2196f3; stroke-width: 0.8; stroke-linecap: square"/>
   </g>
   <g id="line2d_19">
    <path d="M 387.648 181.1525 
L 385.8624 184.24525 
" clip-path="url(#pb35834723c)" style="fill: none; stroke: #2196f3; stroke-width: 0.8; stroke-linecap: square"/>
   </g>
   <g id="line2d_20">
    <path d="M 387.648 181.1525 
L 389.4336 184.24525 
" clip-path="url(#pb35834723c)" style="fill: none; stroke: #2196f3; stroke-width: 0.8; stroke-linecap: square"/>
   </g>
   <g id="patch_15">
    <path d="M 510.8544 182.4917 
L 514.4256 182.4917 
L 514.4256 179.8133 
L 510.8544 179.8133 
L 510.8544 182.4917 
z
" clip-path="url(#pb35834723c)" style="fill: none; stroke: #2196f3; stroke-linejoin: miter"/>
   </g>
   <g id="line2d_21">
    <path d="M 511.7472 181.1525 
L 513.5328 181.1525 
" clip-path="url(#pb35834723c)" style="fill: none; stroke: #2196f3; stroke-linecap: square"/>
   </g>
   <g id="patch_16">
    <path d="M 635.8464 294.0917 
L 639.4176 294.0917 
L 639.4176 291.4133 
L 635.8464 291.4133 
L 635.8464 294.0917 
z
" clip-path="url(#pb35834723c)" style="fill: none; stroke: #2196f3; stroke-linejoin: miter"/>
   </g>
   <g id="line2d_22">
    <path d="M 636.7392 292.7525 
L 638.5248 292.7525 
" clip-path="url(#pb35834723c)" style="fill: none; stroke: #2196f3; stroke-linecap: square"/>
   </g>
   <g id="patch_17">
    <path d="M 374.256 205.7045 
C 374.847933 205.7045 375.415702 205.469322 375.834262 205.050762 
C 376.252822 204.632202 376.488 204.064433 376.488 203.4725 
C 376.488 202.880567 376.252822 202.312798 375.834262 201.894238 
C 375.415702 201.475678 374.847933 201.2405 374.256 201.2405 
C 373.664067 201.2405 373.096298 201.475678 372.677738 201.894238 
C 372.259178 202.312798 372.024 202.880567 372.024 203.4725 
C 372.024 204.064433 372.259178 204.632202 372.677738 205.050762 
C 373.096298 205.469322 373.664067 205.7045 374.256 205.7045 
z
" clip-path="url(#pb35834723c)" style="fill: #ffffff; stroke: #795548; stroke-linejoin: miter"/>
   </g>
   <g id="line2d_23">
    <path d="M 372.4704 203.4725 
L 376.0416 203.4725 
" clip-path="url(#pb35834723c)" style="fill: none; stroke: #795548; stroke-width: 0.8; stroke-linecap: square"/>
   </g>
   <g id="patch_18">
    <path d="M 521.568 205.7045 
C 522.159933 205.7045 522.727702 205.469322 523.146262 205.050762 
C 523.564822 204.632202 523.8 204.064433 523.8 203.4725 
C 523.8 202.880567 523.564822 202.312798 523.146262 201.894238 
C 522.727702 201.475678 522.159933 201.2405 521.568 201.2405 
C 520.976067 201.2405 520.408298 201.475678 519.989738 201.894238 
C 519.571178 202.312798 519.336 202.880567 519.336 203.4725 
C 519.336 204.064433 519.571178 204.632202 519.989738 205.050762 
C 520.408298 205.469322 520.976067 205.7045 521.568 205.7045 
z
" clip-path="url(#pb35834723c)" style="fill: #ffffff; stroke: #795548; stroke-linejoin: miter"/>
   </g>
   <g id="line2d_24">
    <path d="M 519.7824 203.4725 
L 523.3536 203.4725 
" clip-path="url(#pb35834723c)" style="fill: none; stroke: #795548; stroke-width: 0.8; stroke-linecap: square"/>
   </g>
   <g id="patch_19">
    <path d="M 646.56 286.0565 
C 647.151933 286.0565 647.719702 285.821322 648.138262 285.402762 
C 648.556822 284.984202 648.792 284.416433 648.792 283.8245 
C 648.792 283.232567 648.556822 282.664798 648.138262 282.246238 
C 647.719702 281.827678 647.151933 281.5925 646.56 281.5925 
C 645.968067 281.5925 645.400298 281.827678 644.981738 282.246238 
C 644.563178 282.664798 644.328 283.232567 644.328 283.8245 
C 644.328 284.416433 644.563178 284.984202 644.981738 285.402762 
C 645.400298 285.821322 645.968067 286.0565 646.56 286.0565 
z
" clip-path="url(#pb35834723c)" style="fill: #ffffff; stroke: #795548; stroke-linejoin: miter"/>
   </g>
   <g id="line2d_25">
    <path d="M 644.7744 283.8245 
L 648.3456 283.8245 
" clip-path="url(#pb35834723c)" style="fill: none; stroke: #795548; stroke-width: 0.8; stroke-linecap: square"/>
   </g>
   <g id="text_11">
    <g id="patch_20">
     <path d="M 388.041656 229.105 
L 400.646344 229.105 
Q 401.396344 229.105 401.396344 228.355 
L 401.396344 223.23 
Q 401.396344 222.48 400.646344 222.48 
L 388.041656 222.48 
Q 387.291656 222.48 387.291656 223.23 
L 387.291656 228.355 
Q 387.291656 229.105 388.041656 229.105 
z
" style="fill: #ffffff"/>
    </g>
    <!-- DN25 -->
    <g style="fill: #1a1a1a" transform="translate(388.041656 227.209688) scale(0.05 -0.05)">
     <defs>
      <path id="NotoSansCJKsc-Regular-44" d="M 646 0 
L 1843 0 
C 3258 0 4026 877 4026 2362 
C 4026 3859 3258 4691 1818 4691 
L 646 4691 
L 646 0 
z
M 1235 486 
L 1235 4211 
L 1766 4211 
C 2874 4211 3418 3552 3418 2362 
C 3418 1178 2874 486 1766 486 
L 1235 486 
z
" transform="scale(0.015625)"/>
      <path id="NotoSansCJKsc-Regular-4e" d="M 646 0 
L 1203 0 
L 1203 2464 
C 1203 2957 1158 3456 1133 3930 
L 1158 3930 
L 1664 2963 
L 3373 0 
L 3981 0 
L 3981 4691 
L 3418 4691 
L 3418 2253 
C 3418 1766 3462 1235 3501 768 
L 3469 768 
L 2963 1734 
L 1248 4691 
L 646 4691 
L 646 0 
z
" transform="scale(0.015625)"/>
      <path id="NotoSansCJKsc-Regular-35" d="M 1677 -83 
C 2464 -83 3213 499 3213 1523 
C 3213 2560 2573 3021 1798 3021 
C 1517 3021 1306 2950 1094 2835 
L 1216 4192 
L 2982 4192 
L 2982 4691 
L 704 4691 
L 550 2502 
L 864 2304 
C 1133 2483 1331 2579 1645 2579 
C 2234 2579 2618 2182 2618 1510 
C 2618 826 2176 403 1619 403 
C 1075 403 730 653 467 922 
L 173 538 
C 493 224 941 -83 1677 -83 
z
" transform="scale(0.015625)"/>
     </defs>
     <use xlink:href="#NotoSansCJKsc-Regular-44"/>
     <use xlink:href="#NotoSansCJKsc-Regular-4e" transform="translate(68.799988 0)"/>
     <use xlink:href="#NotoSansCJKsc-Regular-32" transform="translate(141.099976 0)"/>
     <use xlink:href="#NotoSansCJKsc-Regular-35" transform="translate(196.59996 0)"/>
    </g>
   </g>
   <g id="text_12">
    <g id="patch_21">
     <path d="M 384.3355 197.170156 
L 384.3355 209.774844 
Q 384.3355 210.524844 385.0855 210.524844 
L 390.2105 210.524844 
Q 390.9605 210.524844 390.9605 209.774844 
L 390.9605 197.170156 
Q 390.9605 196.420156 390.2105 196.420156 
L 385.0855 196.420156 
Q 384.3355 196.420156 384.3355 197.170156 
z
" style="fill: #ffffff"/>
    </g>
    <!-- DN20 -->
    <g style="fill: #1a1a1a" transform="translate(386.230813 197.170156) rotate(-270) scale(0.05 -0.05)">
     <defs>
      <path id="NotoSansCJKsc-Regular-30" d="M 1779 -83 
C 2669 -83 3238 723 3238 2362 
C 3238 3987 2669 4774 1779 4774 
C 883 4774 320 3987 320 2362 
C 320 723 883 -83 1779 -83 
z
M 1779 390 
C 1248 390 883 986 883 2362 
C 883 3731 1248 4314 1779 4314 
C 2310 4314 2675 3731 2675 2362 
C 2675 986 2310 390 1779 390 
z
" transform="scale(0.015625)"/>
     </defs>
     <use xlink:href="#NotoSansCJKsc-Regular-44"/>
     <use xlink:href="#NotoSansCJKsc-Regular-4e" transform="translate(68.799988 0)"/>
     <use xlink:href="#NotoSansCJKsc-Regular-32" transform="translate(141.099976 0)"/>
     <use xlink:href="#NotoSansCJKsc-Regular-30" transform="translate(196.59996 0)"/>
    </g>
   </g>
   <g id="text_13">
    <g id="patch_22">
     <path d="M 509.3275 197.170156 
L 509.3275 209.774844 
Q 509.3275 210.524844 510.0775 210.524844 
L 515.2025 210.524844 
Q 515.9525 210.524844 515.9525 209.774844 
L 515.9525 197.170156 
Q 515.9525 196.420156 515.2025 196.420156 
L 510.0775 196.420156 
Q 509.3275 196.420156 509.3275 197.170156 
z
" style="fill: #ffffff"/>
    </g>
    <!-- DN25 -->
    <g style="fill: #1a1a1a" transform="translate(511.222812 197.170156) rotate(-270) scale(0.05 -0.05)">
     <use xlink:href="#NotoSansCJKsc-Regular-44"/>
     <use xlink:href="#NotoSansCJKsc-Regular-4e" transform="translate(68.799988 0)"/>
     <use xlink:href="#NotoSansCJKsc-Regular-32" transform="translate(141.099976 0)"/>
     <use xlink:href="#NotoSansCJKsc-Regular-35" transform="translate(196.59996 0)"/>
    </g>
   </g>
   <g id="text_14">
    <g id="patch_23">
     <path d="M 640.9445 287.894844 
L 640.9445 275.290156 
Q 640.9445 274.540156 640.1945 274.540156 
L 635.0695 274.540156 
Q 634.3195 274.540156 634.3195 275.290156 
L 634.3195 287.894844 
Q 634.3195 288.644844 635.0695 288.644844 
L 640.1945 288.644844 
Q 640.9445 288.644844 640.9445 287.894844 
z
" style="fill: #ffffff"/>
    </g>
    <!-- DN25 -->
    <g style="fill: #1a1a1a" transform="translate(639.049188 287.894844) rotate(-90) scale(0.05 -0.05)">
     <use xlink:href="#NotoSansCJKsc-Regular-44"/>
     <use xlink:href="#NotoSansCJKsc-Regular-4e" transform="translate(68.799988 0)"/>
     <use xlink:href="#NotoSansCJKsc-Regular-32" transform="translate(141.099976 0)"/>
     <use xlink:href="#NotoSansCJKsc-Regular-35" transform="translate(196.59996 0)"/>
    </g>
   </g>
   <g id="text_15">
    <g id="patch_24">
     <path d="M 370.9435 162.302656 
L 370.9435 177.682344 
Q 370.9435 178.432344 371.6935 178.432344 
L 376.8185 178.432344 
Q 377.5685 178.432344 377.5685 177.682344 
L 377.5685 162.302656 
Q 377.5685 161.552656 376.8185 161.552656 
L 371.6935 161.552656 
Q 370.9435 161.552656 370.9435 162.302656 
z
" style="fill: #ffffff"/>
    </g>
    <!-- DN110 -->
    <g style="fill: #1a1a1a" transform="translate(372.838813 162.302656) rotate(-270) scale(0.05 -0.05)">
     <use xlink:href="#NotoSansCJKsc-Regular-44"/>
     <use xlink:href="#NotoSansCJKsc-Regular-4e" transform="translate(68.799988 0)"/>
     <use xlink:href="#NotoSansCJKsc-Regular-31" transform="translate(141.099976 0)"/>
     <use xlink:href="#NotoSansCJKsc-Regular-31" transform="translate(196.59996 0)"/>
     <use xlink:href="#NotoSansCJKsc-Regular-30" transform="translate(252.099945 0)"/>
    </g>
   </g>
   <g id="text_16">
    <g id="patch_25">
     <path d="M 247.425656 139.825 
L 260.030344 139.825 
Q 260.780344 139.825 260.780344 139.075 
L 260.780344 133.95 
Q 260.780344 133.2 260.030344 133.2 
L 247.425656 133.2 
Q 246.675656 133.2 246.675656 133.95 
L 246.675656 139.075 
Q 246.675656 139.825 247.425656 139.825 
z
" style="fill: #ffffff"/>
    </g>
    <!-- DN50 -->
    <g style="fill: #1a1a1a" transform="translate(247.425656 137.929688) scale(0.05 -0.05)">
     <use xlink:href="#NotoSansCJKsc-Regular-44"/>
     <use xlink:href="#NotoSansCJKsc-Regular-4e" transform="translate(68.799988 0)"/>
     <use xlink:href="#NotoSansCJKsc-Regular-35" transform="translate(141.099976 0)"/>
     <use xlink:href="#NotoSansCJKsc-Regular-30" transform="translate(196.59996 0)"/>
    </g>
   </g>
   <g id="text_17">
    <g id="patch_26">
     <path d="M 611.241656 206.785 
L 623.846344 206.785 
Q 624.596344 206.785 624.596344 206.035 
L 624.596344 200.91 
Q 624.596344 200.16 623.846344 200.16 
L 611.241656 200.16 
Q 610.491656 200.16 610.491656 200.91 
L 610.491656 206.035 
Q 610.491656 206.785 611.241656 206.785 
z
" style="fill: #ffffff"/>
    </g>
    <!-- DN50 -->
    <g style="fill: #1a1a1a" transform="translate(611.241656 204.889688) scale(0.05 -0.05)">
     <use xlink:href="#NotoSansCJKsc-Regular-44"/>
     <use xlink:href="#NotoSansCJKsc-Regular-4e" transform="translate(68.799988 0)"/>
     <use xlink:href="#NotoSansCJKsc-Regular-35" transform="translate(141.099976 0)"/>
     <use xlink:href="#NotoSansCJKsc-Regular-30" transform="translate(196.59996 0)"/>
    </g>
   </g>
   <g id="text_18">
    <g id="patch_27">
     <path d="M 716.8325 407.578344 
L 716.8325 392.198656 
Q 716.8325 391.448656 716.0825 391.448656 
L 710.9575 391.448656 
Q 710.2075 391.448656 710.2075 392.198656 
L 710.2075 407.578344 
Q 710.2075 408.328344 710.9575 408.328344 
L 716.0825 408.328344 
Q 716.8325 408.328344 716.8325 407.578344 
z
" style="fill: #ffffff"/>
    </g>
    <!-- DN110 -->
    <g style="fill: #1a1a1a" transform="translate(714.937187 407.578344) rotate(-90) scale(0.05 -0.05)">
     <use xlink:href="#NotoSansCJKsc-Regular-44"/>
     <use xlink:href="#NotoSansCJKsc-Regular-4e" transform="translate(68.799988 0)"/>
     <use xlink:href="#NotoSansCJKsc-Regular-31" transform="translate(141.099976 0)"/>
     <use xlink:href="#NotoSansCJKsc-Regular-31" transform="translate(196.59996 0)"/>
     <use xlink:href="#NotoSansCJKsc-Regular-30" transform="translate(252.099945 0)"/>
    </g>
   </g>
   <g id="text_19">
    <g id="patch_28">
     <path d="M 649.8725 447.754344 
L 649.8725 432.374656 
Q 649.8725 431.624656 649.1225 431.624656 
L 643.9975 431.624656 
Q 643.2475 431.624656 643.2475 432.374656 
L 643.2475 447.754344 
Q 643.2475 448.504344 643.9975 448.504344 
L 649.1225 448.504344 
Q 649.8725 448.504344 649.8725 447.754344 
z
" style="fill: #ffffff"/>
    </g>
    <!-- DN110 -->
    <g style="fill: #1a1a1a" transform="translate(647.977188 447.754344) rotate(-90) scale(0.05 -0.05)">
     <use xlink:href="#NotoSansCJKsc-Regular-44"/>
     <use xlink:href="#NotoSansCJKsc-Regular-4e" transform="translate(68.799988 0)"/>
     <use xlink:href="#NotoSansCJKsc-Regular-31" transform="translate(141.099976 0)"/>
     <use xlink:href="#NotoSansCJKsc-Regular-31" transform="translate(196.59996 0)"/>
     <use xlink:href="#NotoSansCJKsc-Regular-30" transform="translate(252.099945 0)"/>
    </g>
   </g>
   <g id="text_20">
    <g id="patch_29">
     <path d="M 595.617656 599.617 
L 608.222344 599.617 
Q 608.972344 599.617 608.972344 598.867 
L 608.972344 593.742 
Q 608.972344 592.992 608.222344 592.992 
L 595.617656 592.992 
Q 594.867656 592.992 594.867656 593.742 
L 594.867656 598.867 
Q 594.867656 599.617 595.617656 599.617 
z
" style="fill: #ffffff"/>
    </g>
    <!-- DN50 -->
    <g style="fill: #1a1a1a" transform="translate(595.617656 597.721688) scale(0.05 -0.05)">
     <use xlink:href="#NotoSansCJKsc-Regular-44"/>
     <use xlink:href="#NotoSansCJKsc-Regular-4e" transform="translate(68.799988 0)"/>
     <use xlink:href="#NotoSansCJKsc-Regular-35" transform="translate(141.099976 0)"/>
     <use xlink:href="#NotoSansCJKsc-Regular-30" transform="translate(196.59996 0)"/>
    </g>
   </g>
   <g id="text_21">
    <g id="patch_30">
     <path d="M 388.041656 229.105 
L 400.646344 229.105 
Q 401.396344 229.105 401.396344 228.355 
L 401.396344 223.23 
Q 401.396344 222.48 400.646344 222.48 
L 388.041656 222.48 
Q 387.291656 222.48 387.291656 223.23 
L 387.291656 228.355 
Q 387.291656 229.105 388.041656 229.105 
z
" style="fill: #ffffff"/>
    </g>
    <!-- DN20 -->
    <g style="fill: #1a1a1a" transform="translate(388.041656 227.209688) scale(0.05 -0.05)">
     <use xlink:href="#NotoSansCJKsc-Regular-44"/>
     <use xlink:href="#NotoSansCJKsc-Regular-4e" transform="translate(68.799988 0)"/>
     <use xlink:href="#NotoSansCJKsc-Regular-32" transform="translate(141.099976 0)"/>
     <use xlink:href="#NotoSansCJKsc-Regular-30" transform="translate(196.59996 0)"/>
    </g>
   </g>
   <g id="text_22">
    <g id="patch_31">
     <path d="M 384.3355 197.170156 
L 384.3355 209.774844 
Q 384.3355 210.524844 385.0855 210.524844 
L 390.2105 210.524844 
Q 390.9605 210.524844 390.9605 209.774844 
L 390.9605 197.170156 
Q 390.9605 196.420156 390.2105 196.420156 
L 385.0855 196.420156 
Q 384.3355 196.420156 384.3355 197.170156 
z
" style="fill: #ffffff"/>
    </g>
    <!-- DN20 -->
    <g style="fill: #1a1a1a" transform="translate(386.230813 197.170156) rotate(-270) scale(0.05 -0.05)">
     <use xlink:href="#NotoSansCJKsc-Regular-44"/>
     <use xlink:href="#NotoSansCJKsc-Regular-4e" transform="translate(68.799988 0)"/>
     <use xlink:href="#NotoSansCJKsc-Regular-32" transform="translate(141.099976 0)"/>
     <use xlink:href="#NotoSansCJKsc-Regular-30" transform="translate(196.59996 0)"/>
    </g>
   </g>
   <g id="text_23">
    <g id="patch_32">
     <path d="M 510.801656 229.105 
L 523.406344 229.105 
Q 524.156344 229.105 524.156344 228.355 
L 524.156344 223.23 
Q 524.156344 222.48 523.406344 222.48 
L 510.801656 222.48 
Q 510.051656 222.48 510.051656 223.23 
L 510.051656 228.355 
Q 510.051656 229.105 510.801656 229.105 
z
" style="fill: #ffffff"/>
    </g>
    <!-- DN20 -->
    <g style="fill: #1a1a1a" transform="translate(510.801656 227.209688) scale(0.05 -0.05)">
     <use xlink:href="#NotoSansCJKsc-Regular-44"/>
     <use xlink:href="#NotoSansCJKsc-Regular-4e" transform="translate(68.799988 0)"/>
     <use xlink:href="#NotoSansCJKsc-Regular-32" transform="translate(141.099976 0)"/>
     <use xlink:href="#NotoSansCJKsc-Regular-30" transform="translate(196.59996 0)"/>
    </g>
   </g>
   <g id="text_24">
    <g id="patch_33">
     <path d="M 518.2555 197.170156 
L 518.2555 209.774844 
Q 518.2555 210.524844 519.0055 210.524844 
L 524.1305 210.524844 
Q 524.8805 210.524844 524.8805 209.774844 
L 524.8805 197.170156 
Q 524.8805 196.420156 524.1305 196.420156 
L 519.0055 196.420156 
Q 518.2555 196.420156 518.2555 197.170156 
z
" style="fill: #ffffff"/>
    </g>
    <!-- DN20 -->
    <g style="fill: #1a1a1a" transform="translate(520.150813 197.170156) rotate(-270) scale(0.05 -0.05)">
     <use xlink:href="#NotoSansCJKsc-Regular-44"/>
     <use xlink:href="#NotoSansCJKsc-Regular-4e" transform="translate(68.799988 0)"/>
     <use xlink:href="#NotoSansCJKsc-Regular-32" transform="translate(141.099976 0)"/>
     <use xlink:href="#NotoSansCJKsc-Regular-30" transform="translate(196.59996 0)"/>
    </g>
   </g>
   <g id="patch_34">
    <path d="M 384.9696 181.1525 
L 388.45152 182.75954 
L 388.45152 179.54546 
z
" clip-path="url(#pb35834723c)" style="fill: #ffffff; stroke: #2196f3; stroke-width: 1.2; stroke-linejoin: miter"/>
   </g>
   <g id="patch_35">
    <path d="M 390.3264 181.1525 
L 386.84448 182.75954 
L 386.84448 179.54546 
z
" clip-path="url(#pb35834723c)" style="fill: #ffffff; stroke: #2196f3; stroke-width: 1.2; stroke-linejoin: miter"/>
   </g>
   <g id="patch_36">
    <path d="M 509.9616 181.1525 
L 513.44352 182.75954 
L 513.44352 179.54546 
z
" clip-path="url(#pb35834723c)" style="fill: #ffffff; stroke: #2196f3; stroke-width: 1.2; stroke-linejoin: miter"/>
   </g>
   <g id="patch_37">
    <path d="M 515.3184 181.1525 
L 511.83648 182.75954 
L 511.83648 179.54546 
z
" clip-path="url(#pb35834723c)" style="fill: #ffffff; stroke: #2196f3; stroke-width: 1.2; stroke-linejoin: miter"/>
   </g>
   <g id="patch_38">
    <path d="M 634.9536 292.7525 
L 638.43552 294.35954 
L 638.43552 291.14546 
z
" clip-path="url(#pb35834723c)" style="fill: #ffffff; stroke: #2196f3; stroke-width: 1.2; stroke-linejoin: miter"/>
   </g>
   <g id="patch_39">
    <path d="M 640.3104 292.7525 
L 636.82848 294.35954 
L 636.82848 291.14546 
z
" clip-path="url(#pb35834723c)" style="fill: #ffffff; stroke: #2196f3; stroke-width: 1.2; stroke-linejoin: miter"/>
   </g>
   <g id="patch_40">
    <path d="M 371.5776 203.4725 
L 375.05952 205.07954 
L 375.05952 201.86546 
z
" clip-path="url(#pb35834723c)" style="fill: #ffffff; stroke: #795548; stroke-width: 1.2; stroke-linejoin: miter"/>
   </g>
   <g id="patch_41">
    <path d="M 376.9344 203.4725 
L 373.45248 205.07954 
L 373.45248 201.86546 
z
" clip-path="url(#pb35834723c)" style="fill: #ffffff; stroke: #795548; stroke-width: 1.2; stroke-linejoin: miter"/>
   </g>
   <g id="patch_42">
    <path d="M 518.8896 203.4725 
L 522.37152 205.07954 
L 522.37152 201.86546 
z
" clip-path="url(#pb35834723c)" style="fill: #ffffff; stroke: #795548; stroke-width: 1.2; stroke-linejoin: miter"/>
   </g>
   <g id="patch_43">
    <path d="M 524.2464 203.4725 
L 520.76448 205.07954 
L 520.76448 201.86546 
z
" clip-path="url(#pb35834723c)" style="fill: #ffffff; stroke: #795548; stroke-width: 1.2; stroke-linejoin: miter"/>
   </g>
   <g id="patch_44">
    <path d="M 643.8816 283.8245 
L 647.36352 285.43154 
L 647.36352 282.21746 
z
" clip-path="url(#pb35834723c)" style="fill: #ffffff; stroke: #795548; stroke-width: 1.2; stroke-linejoin: miter"/>
   </g>
   <g id="patch_45">
    <path d="M 649.2384 283.8245 
L 645.75648 285.43154 
L 645.75648 282.21746 
z
" clip-path="url(#pb35834723c)" style="fill: #ffffff; stroke: #795548; stroke-width: 1.2; stroke-linejoin: miter"/>
   </g>
   <g id="patch_46">
    <path d="M 398.3616 225.7925 
L 401.84352 227.39954 
L 401.84352 224.18546 
z
" clip-path="url(#pb35834723c)" style="fill: #ffffff; stroke: #2196f3; stroke-width: 1.2; stroke-linejoin: miter"/>
   </g>
   <g id="patch_47">
    <path d="M 403.7184 225.7925 
L 400.23648 227.39954 
L 400.23648 224.18546 
z
" clip-path="url(#pb35834723c)" style="fill: #ffffff; stroke: #2196f3; stroke-width: 1.2; stroke-linejoin: miter"/>
   </g>
   <g id="patch_48">
    <path d="M 384.9696 225.7925 
L 388.45152 227.39954 
L 388.45152 224.18546 
z
" clip-path="url(#pb35834723c)" style="fill: #ffffff; stroke: #2196f3; stroke-width: 1.2; stroke-linejoin: miter"/>
   </g>
   <g id="patch_49">
    <path d="M 390.3264 225.7925 
L 386.84448 227.39954 
L 386.84448 224.18546 
z
" clip-path="url(#pb35834723c)" style="fill: #ffffff; stroke: #2196f3; stroke-width: 1.2; stroke-linejoin: miter"/>
   </g>
   <g id="patch_50">
    <path d="M 133.2 141.8693 
C 134.62064 141.8693 135.983285 141.304874 136.98783 140.30033 
C 137.992374 139.295785 138.5568 137.93314 138.5568 136.5125 
C 138.5568 135.09186 137.992374 133.729215 136.98783 132.72467 
C 135.983285 131.720126 134.62064 131.1557 133.2 131.1557 
C 131.77936 131.1557 130.416715 131.720126 129.41217 132.72467 
C 128.407626 133.729215 127.8432 135.09186 127.8432 136.5125 
C 127.8432 137.93314 128.407626 139.295785 129.41217 140.30033 
C 130.416715 141.304874 131.77936 141.8693 133.2 141.8693 
z
" clip-path="url(#pb35834723c)" style="fill: #ffffff; stroke: #795548; stroke-width: 1.5; stroke-linejoin: miter"/>
   </g>
   <g id="patch_51">
    <path d="M 713.52 601.6613 
C 714.94064 601.6613 716.303285 601.096874 717.30783 600.09233 
C 718.312374 599.087785 718.8768 597.72514 718.8768 596.3045 
C 718.8768 594.88386 718.312374 593.521215 717.30783 592.51667 
C 716.303285 591.512126 714.94064 590.9477 713.52 590.9477 
C 712.09936 590.9477 710.736715 591.512126 709.73217 592.51667 
C 708.727626 593.521215 708.1632 594.88386 708.1632 596.3045 
C 708.1632 597.72514 708.727626 599.087785 709.73217 600.09233 
C 710.736715 601.096874 712.09936 601.6613 713.52 601.6613 
z
" clip-path="url(#pb35834723c)" style="fill: #ffffff; stroke: #795548; stroke-width: 1.5; stroke-linejoin: miter"/>
   </g>
   <g id="patch_52">
    <path d="M 557.28 601.6613 
C 558.70064 601.6613 560.063285 601.096874 561.06783 600.09233 
C 562.072374 599.087785 562.6368 597.72514 562.6368 596.3045 
C 562.6368 594.88386 562.072374 593.521215 561.06783 592.51667 
C 560.063285 591.512126 558.70064 590.9477 557.28 590.9477 
C 555.85936 590.9477 554.496715 591.512126 553.49217 592.51667 
C 552.487626 593.521215 551.9232 594.88386 551.9232 596.3045 
C 551.9232 597.72514 552.487626 599.087785 553.49217 600.09233 
C 554.496715 601.096874 555.85936 601.6613 557.28 601.6613 
z
" clip-path="url(#pb35834723c)" style="fill: #ffffff; stroke: #795548; stroke-width: 1.5; stroke-linejoin: miter"/>
   </g>
   <g id="patch_53">
    <path d="M 401.04 221.3285 
L 405.504 225.7925 
L 401.04 230.2565 
L 396.576 225.7925 
z
" clip-path="url(#pb35834723c)" style="fill: #ffffff; stroke: #2196f3; stroke-width: 1.2; stroke-linejoin: miter"/>
   </g>
   <g id="text_25">
    <!-- 主卫2给水 -->
    <g style="fill: #2196f3" transform="translate(376.2605 194.952988) scale(0.05 -0.05)">
     <defs>
      <path id="NotoSansCJKsc-Regular-7ed9" d="M 269 339 
L 365 -134 
C 954 19 1741 211 2490 397 
L 2451 826 
C 1638 640 819 448 269 339 
z
M 390 2707 
C 480 2752 634 2790 1408 2899 
C 1133 2490 877 2170 762 2048 
C 563 1805 410 1645 275 1619 
C 333 1498 403 1267 429 1165 
C 563 1248 787 1306 2413 1632 
C 2400 1734 2400 1920 2413 2042 
L 1114 1805 
C 1613 2381 2106 3091 2522 3802 
L 2099 4051 
C 1978 3808 1837 3565 1690 3334 
L 883 3251 
C 1261 3802 1626 4493 1894 5158 
L 1427 5370 
C 1178 4608 730 3782 589 3571 
C 454 3354 339 3206 224 3174 
C 282 3046 365 2803 390 2707 
z
M 4032 5363 
C 3744 4448 3123 3571 2310 3021 
C 2413 2938 2579 2771 2656 2675 
C 2842 2810 3021 2957 3187 3123 
L 3187 2835 
L 5216 2835 
L 5216 3213 
C 5395 3034 5587 2874 5773 2752 
C 5856 2874 6010 3053 6118 3149 
C 5459 3514 4806 4282 4429 5050 
L 4499 5242 
L 4032 5363 
z
M 5152 3277 
L 3341 3277 
C 3693 3654 3987 4090 4218 4563 
C 4474 4090 4800 3642 5152 3277 
z
M 2874 2112 
L 2874 -531 
L 3341 -531 
L 3341 -186 
L 5005 -186 
L 5005 -512 
L 5491 -512 
L 5491 2112 
L 2874 2112 
z
M 3341 250 
L 3341 1677 
L 5005 1677 
L 5005 250 
L 3341 250 
z
" transform="scale(0.015625)"/>
      <path id="NotoSansCJKsc-Regular-6c34" d="M 454 3738 
L 454 3251 
L 2029 3251 
C 1722 1984 1062 1018 250 486 
C 365 416 557 230 640 115 
C 1542 755 2291 1958 2605 3635 
L 2291 3757 
L 2202 3738 
L 454 3738 
z
M 5229 4173 
C 4915 3738 4410 3168 3987 2771 
C 3789 3104 3610 3456 3469 3814 
L 3469 5363 
L 2957 5363 
L 2957 141 
C 2957 32 2918 6 2816 0 
C 2714 -6 2381 -6 2010 6 
C 2086 -141 2170 -378 2195 -518 
C 2688 -518 3002 -506 3200 -416 
C 3392 -333 3469 -179 3469 147 
L 3469 2848 
C 4051 1690 4883 678 5882 154 
C 5965 294 6125 493 6240 595 
C 5466 954 4768 1619 4224 2413 
C 4672 2790 5242 3373 5664 3866 
L 5229 4173 
z
" transform="scale(0.015625)"/>
     </defs>
     <use xlink:href="#NotoSansCJKsc-Regular-4e3b"/>
     <use xlink:href="#NotoSansCJKsc-Regular-536b" transform="translate(99.999985 0)"/>
     <use xlink:href="#NotoSansCJKsc-Regular-32" transform="translate(199.999969 0)"/>
     <use xlink:href="#NotoSansCJKsc-Regular-7ed9" transform="translate(255.499954 0)"/>
     <use xlink:href="#NotoSansCJKsc-Regular-6c34" transform="translate(355.499939 0)"/>
    </g>
   </g>
   <g id="text_26">
    <!-- 主卧3给水 -->
    <g style="fill: #2196f3" transform="translate(501.2525 194.952988) scale(0.05 -0.05)">
     <use xlink:href="#NotoSansCJKsc-Regular-4e3b"/>
     <use xlink:href="#NotoSansCJKsc-Regular-5367" transform="translate(99.999985 0)"/>
     <use xlink:href="#NotoSansCJKsc-Regular-33" transform="translate(199.999969 0)"/>
     <use xlink:href="#NotoSansCJKsc-Regular-7ed9" transform="translate(255.499954 0)"/>
     <use xlink:href="#NotoSansCJKsc-Regular-6c34" transform="translate(355.499939 0)"/>
    </g>
   </g>
   <g id="text_27">
    <!-- 公卫给水 -->
    <g style="fill: #2196f3" transform="translate(627.632 306.552988) scale(0.05 -0.05)">
     <use xlink:href="#NotoSansCJKsc-Regular-516c"/>
     <use xlink:href="#NotoSansCJKsc-Regular-536b" transform="translate(99.999985 0)"/>
     <use xlink:href="#NotoSansCJKsc-Regular-7ed9" transform="translate(199.999969 0)"/>
     <use xlink:href="#NotoSansCJKsc-Regular-6c34" transform="translate(299.999954 0)"/>
    </g>
   </g>
   <g id="text_28">
    <!-- 主卫2排水 -->
    <g style="fill: #795548" transform="translate(362.8685 217.272988) scale(0.05 -0.05)">
     <defs>
      <path id="NotoSansCJKsc-Regular-6392" d="M 1165 5376 
L 1165 4083 
L 352 4083 
L 352 3635 
L 1165 3635 
L 1165 2227 
L 269 1990 
L 365 1517 
L 1165 1754 
L 1165 90 
C 1165 6 1133 -19 1050 -26 
C 986 -26 736 -26 474 -19 
C 531 -141 595 -339 614 -461 
C 1011 -461 1254 -448 1414 -371 
C 1568 -301 1626 -173 1626 90 
L 1626 1888 
L 2387 2118 
L 2330 2554 
L 1626 2355 
L 1626 3635 
L 2317 3635 
L 2317 4083 
L 1626 4083 
L 1626 5376 
L 1165 5376 
z
M 2432 1619 
L 2432 1178 
L 3520 1178 
L 3520 -506 
L 3987 -506 
L 3987 5331 
L 3520 5331 
L 3520 4282 
L 2566 4282 
L 2566 3846 
L 3520 3846 
L 3520 2950 
L 2586 2950 
L 2586 2522 
L 3520 2522 
L 3520 1619 
L 2432 1619 
z
M 4576 5331 
L 4576 -512 
L 5037 -512 
L 5037 1158 
L 6157 1158 
L 6157 1600 
L 5037 1600 
L 5037 2522 
L 6022 2522 
L 6022 2950 
L 5037 2950 
L 5037 3846 
L 6080 3846 
L 6080 4282 
L 5037 4282 
L 5037 5331 
L 4576 5331 
z
" transform="scale(0.015625)"/>
     </defs>
     <use xlink:href="#NotoSansCJKsc-Regular-4e3b"/>
     <use xlink:href="#NotoSansCJKsc-Regular-536b" transform="translate(99.999985 0)"/>
     <use xlink:href="#NotoSansCJKsc-Regular-32" transform="translate(199.999969 0)"/>
     <use xlink:href="#NotoSansCJKsc-Regular-6392" transform="translate(255.499954 0)"/>
     <use xlink:href="#NotoSansCJKsc-Regular-6c34" transform="translate(355.499939 0)"/>
    </g>
   </g>
   <g id="text_29">
    <!-- 主卧3排水 -->
    <g style="fill: #795548" transform="translate(510.1805 217.272988) scale(0.05 -0.05)">
     <use xlink:href="#NotoSansCJKsc-Regular-4e3b"/>
     <use xlink:href="#NotoSansCJKsc-Regular-5367" transform="translate(99.999985 0)"/>
     <use xlink:href="#NotoSansCJKsc-Regular-33" transform="translate(199.999969 0)"/>
     <use xlink:href="#NotoSansCJKsc-Regular-6392" transform="translate(255.499954 0)"/>
     <use xlink:href="#NotoSansCJKsc-Regular-6c34" transform="translate(355.499939 0)"/>
    </g>
   </g>
   <g id="text_30">
    <!-- 公卫排水 -->
    <g style="fill: #795548" transform="translate(636.56 297.624988) scale(0.05 -0.05)">
     <use xlink:href="#NotoSansCJKsc-Regular-516c"/>
     <use xlink:href="#NotoSansCJKsc-Regular-536b" transform="translate(99.999985 0)"/>
     <use xlink:href="#NotoSansCJKsc-Regular-6392" transform="translate(199.999969 0)"/>
     <use xlink:href="#NotoSansCJKsc-Regular-6c34" transform="translate(299.999954 0)"/>
    </g>
   </g>
   <g id="text_31">
    <!-- 图例 -->
    <g style="fill: #1a1a1a" transform="translate(780.48 100.8005) scale(0.09 -0.09)">
     <defs>
      <path id="NotoSansCJKsc-Bold-4f8b" d="M 4262 4755 
L 4262 1069 
L 4934 1069 
L 4934 4755 
L 4262 4755 
z
M 5286 5376 
L 5286 358 
C 5286 250 5242 218 5133 211 
C 5011 211 4646 205 4275 224 
C 4371 13 4486 -320 4512 -525 
C 5043 -525 5434 -506 5677 -378 
C 5914 -262 5997 -64 5997 352 
L 5997 5376 
L 5286 5376 
z
M 2253 1715 
C 2413 1574 2611 1395 2778 1235 
C 2522 704 2202 288 1805 26 
C 1965 -115 2176 -384 2272 -563 
C 3302 218 3866 1600 4051 3635 
L 3610 3738 
L 3488 3718 
L 2931 3718 
C 2989 3949 3040 4186 3085 4429 
L 4083 4429 
L 4083 5139 
L 1894 5139 
L 1894 4429 
L 2355 4429 
C 2195 3488 1914 2611 1478 2048 
C 1638 1926 1920 1677 2035 1555 
C 2310 1946 2547 2451 2733 3021 
L 3296 3021 
C 3238 2630 3149 2266 3046 1926 
L 2650 2234 
L 2253 1715 
z
M 1146 5427 
C 922 4550 557 3680 122 3098 
C 237 2899 410 2451 461 2266 
C 550 2381 640 2509 723 2643 
L 723 -563 
L 1440 -563 
L 1440 4077 
C 1594 4461 1722 4851 1830 5229 
L 1146 5427 
z
" transform="scale(0.015625)"/>
     </defs>
     <use xlink:href="#NotoSansCJKsc-Bold-56fe"/>
     <use xlink:href="#NotoSansCJKsc-Bold-4f8b" transform="translate(99.999985 0)"/>
    </g>
   </g>
   <g id="line2d_26">
    <path d="M 780.48 123.1205 
L 800.568 123.1205 
" clip-path="url(#pb35834723c)" style="fill: none; stroke: #2196f3; stroke-width: 2.5; stroke-linecap: square"/>
   </g>
   <g id="text_32">
    <!-- 给水管 DN20/25 -->
    <g style="fill: #1a1a1a" transform="translate(802.8 124.821125) scale(0.06 -0.06)">
     <defs>
      <path id="NotoSansCJKsc-Regular-7ba1" d="M 1350 2803 
L 1350 -518 
L 1837 -518 
L 1837 -301 
L 4934 -301 
L 4934 -506 
L 5408 -506 
L 5408 1075 
L 1837 1075 
L 1837 1517 
L 5069 1517 
L 5069 2803 
L 1350 2803 
z
M 4934 77 
L 1837 77 
L 1837 698 
L 4934 698 
L 4934 77 
z
M 2816 3987 
C 2886 3859 2957 3712 3014 3578 
L 646 3578 
L 646 2522 
L 1114 2522 
L 1114 3200 
L 5370 3200 
L 5370 2522 
L 5856 2522 
L 5856 3578 
L 3507 3578 
C 3450 3738 3341 3930 3245 4077 
L 2816 3987 
z
M 1837 2432 
L 4602 2432 
L 4602 1882 
L 1837 1882 
L 1837 2432 
z
M 1069 5402 
C 909 4845 627 4301 275 3942 
C 397 3885 595 3776 691 3712 
C 877 3923 1050 4198 1210 4499 
L 1651 4499 
C 1792 4262 1933 3974 1990 3789 
L 2400 3930 
C 2349 4083 2240 4301 2118 4499 
L 3098 4499 
L 3098 4851 
L 1370 4851 
C 1434 5005 1491 5158 1536 5312 
L 1069 5402 
z
M 3776 5389 
C 3661 4922 3437 4474 3149 4166 
C 3264 4109 3462 4006 3546 3942 
C 3680 4096 3808 4282 3917 4493 
L 4371 4493 
C 4563 4256 4749 3955 4832 3770 
L 5222 3942 
C 5152 4096 5018 4301 4870 4493 
L 6016 4493 
L 6016 4851 
L 4083 4851 
C 4147 4998 4198 5152 4243 5306 
L 3776 5389 
z
" transform="scale(0.015625)"/>
      <path id="NotoSansCJKsc-Regular-20" transform="scale(0.015625)"/>
      <path id="NotoSansCJKsc-Regular-2f" d="M 70 -1146 
L 499 -1146 
L 2413 5082 
L 1990 5082 
L 70 -1146 
z
" transform="scale(0.015625)"/>
     </defs>
     <use xlink:href="#NotoSansCJKsc-Regular-7ed9"/>
     <use xlink:href="#NotoSansCJKsc-Regular-6c34" transform="translate(99.999985 0)"/>
     <use xlink:href="#NotoSansCJKsc-Regular-7ba1" transform="translate(199.999969 0)"/>
     <use xlink:href="#NotoSansCJKsc-Regular-20" transform="translate(299.999954 0)"/>
     <use xlink:href="#NotoSansCJKsc-Regular-44" transform="translate(322.399948 0)"/>
     <use xlink:href="#NotoSansCJKsc-Regular-4e" transform="translate(391.199936 0)"/>
     <use xlink:href="#NotoSansCJKsc-Regular-32" transform="translate(463.499924 0)"/>
     <use xlink:href="#NotoSansCJKsc-Regular-30" transform="translate(518.999908 0)"/>
     <use xlink:href="#NotoSansCJKsc-Regular-2f" transform="translate(574.499893 0)"/>
     <use xlink:href="#NotoSansCJKsc-Regular-32" transform="translate(613.69989 0)"/>
     <use xlink:href="#NotoSansCJKsc-Regular-35" transform="translate(669.199875 0)"/>
    </g>
   </g>
   <g id="line2d_27">
    <path d="M 780.48 138.7445 
L 800.568 138.7445 
" clip-path="url(#pb35834723c)" style="fill: none; stroke-dasharray: 9.25,4; stroke-dashoffset: 0; stroke: #795548; stroke-width: 2.5"/>
   </g>
   <g id="text_33">
    <!-- 排水管 DN50/110 -->
    <g style="fill: #1a1a1a" transform="translate(802.8 140.445125) scale(0.06 -0.06)">
     <use xlink:href="#NotoSansCJKsc-Regular-6392"/>
     <use xlink:href="#NotoSansCJKsc-Regular-6c34" transform="translate(99.999985 0)"/>
     <use xlink:href="#NotoSansCJKsc-Regular-7ba1" transform="translate(199.999969 0)"/>
     <use xlink:href="#NotoSansCJKsc-Regular-20" transform="translate(299.999954 0)"/>
     <use xlink:href="#NotoSansCJKsc-Regular-44" transform="translate(322.399948 0)"/>
     <use xlink:href="#NotoSansCJKsc-Regular-4e" transform="translate(391.199936 0)"/>
     <use xlink:href="#NotoSansCJKsc-Regular-35" transform="translate(463.499924 0)"/>
     <use xlink:href="#NotoSansCJKsc-Regular-30" transform="translate(518.999908 0)"/>
     <use xlink:href="#NotoSansCJKsc-Regular-2f" transform="translate(574.499893 0)"/>
     <use xlink:href="#NotoSansCJKsc-Regular-31" transform="translate(613.69989 0)"/>
     <use xlink:href="#NotoSansCJKsc-Regular-31" transform="translate(669.199875 0)"/>
     <use xlink:href="#NotoSansCJKsc-Regular-30" transform="translate(724.69986 0)"/>
    </g>
   </g>
   <g id="line2d_28">
    <path d="M 780.48 154.3685 
L 800.568 154.3685 
" clip-path="url(#pb35834723c)" style="fill: none; stroke: #ff5722; stroke-width: 2; stroke-linecap: square"/>
   </g>
   <g id="text_34">
    <!-- 热水管 DN20 -->
    <g style="fill: #1a1a1a" transform="translate(802.8 156.069125) scale(0.06 -0.06)">
     <defs>
      <path id="NotoSansCJKsc-Regular-70ed" d="M 2195 710 
C 2272 326 2323 -173 2323 -474 
L 2797 -403 
C 2790 -109 2720 378 2637 755 
L 2195 710 
z
M 3514 723 
C 3680 346 3840 -154 3904 -461 
L 4378 -358 
C 4314 -58 4134 435 3962 806 
L 3514 723 
z
M 4838 755 
C 5158 358 5523 -192 5677 -538 
L 6131 -326 
C 5958 13 5581 550 5261 934 
L 4838 755 
z
M 1114 896 
C 902 454 563 -38 275 -339 
L 723 -525 
C 1018 -192 1344 326 1562 774 
L 1114 896 
z
M 1382 5370 
L 1382 4480 
L 422 4480 
L 422 4032 
L 1382 4032 
L 1382 3046 
L 294 2765 
L 410 2304 
L 1382 2579 
L 1382 1606 
C 1382 1530 1350 1504 1267 1504 
C 1190 1504 922 1498 627 1504 
C 691 1382 749 1203 768 1075 
C 1184 1075 1446 1082 1606 1158 
C 1773 1229 1830 1357 1830 1606 
L 1830 2707 
L 2650 2938 
L 2592 3373 
L 1830 3168 
L 1830 4032 
L 2579 4032 
L 2579 4480 
L 1830 4480 
L 1830 5370 
L 1382 5370 
z
M 3622 5382 
L 3610 4454 
L 2739 4454 
L 2739 4038 
L 3590 4038 
C 3571 3616 3533 3245 3462 2925 
L 2931 3238 
L 2694 2906 
C 2899 2790 3117 2650 3341 2509 
C 3162 2029 2861 1670 2355 1402 
C 2458 1325 2598 1158 2662 1056 
C 3194 1350 3526 1741 3731 2253 
C 4032 2048 4307 1843 4486 1690 
L 4736 2067 
C 4531 2240 4211 2458 3866 2675 
C 3968 3066 4019 3514 4045 4038 
L 4909 4038 
C 4890 2144 4883 1024 5645 1030 
C 6016 1030 6163 1235 6221 1971 
C 6106 2003 5939 2080 5843 2157 
C 5824 1632 5773 1453 5664 1453 
C 5318 1453 5318 2445 5370 4454 
L 4064 4454 
L 4083 5382 
L 3622 5382 
z
" transform="scale(0.015625)"/>
     </defs>
     <use xlink:href="#NotoSansCJKsc-Regular-70ed"/>
     <use xlink:href="#NotoSansCJKsc-Regular-6c34" transform="translate(99.999985 0)"/>
     <use xlink:href="#NotoSansCJKsc-Regular-7ba1" transform="translate(199.999969 0)"/>
     <use xlink:href="#NotoSansCJKsc-Regular-20" transform="translate(299.999954 0)"/>
     <use xlink:href="#NotoSansCJKsc-Regular-44" transform="translate(322.399948 0)"/>
     <use xlink:href="#NotoSansCJKsc-Regular-4e" transform="translate(391.199936 0)"/>
     <use xlink:href="#NotoSansCJKsc-Regular-32" transform="translate(463.499924 0)"/>
     <use xlink:href="#NotoSansCJKsc-Regular-30" transform="translate(518.999908 0)"/>
    </g>
   </g>
   <g id="patch_54">
    <path d="M 790.3008 180.2597 
C 791.247893 180.2597 792.156324 179.883416 792.82602 179.21372 
C 793.495716 178.544024 793.872 177.635593 793.872 176.6885 
C 793.872 175.741407 793.495716 174.832976 792.82602 174.16328 
C 792.156324 173.493584 791.247893 173.1173 790.3008 173.1173 
C 789.353707 173.1173 788.445276 173.493584 787.77558 174.16328 
C 787.105884 174.832976 786.7296 175.741407 786.7296 176.6885 
C 786.7296 177.635593 787.105884 178.544024 787.77558 179.21372 
C 788.445276 179.883416 789.353707 180.2597 790.3008 180.2597 
z
" clip-path="url(#pb35834723c)" style="fill: #ffffff; stroke: #2196f3; stroke-linejoin: miter"/>
   </g>
   <g id="text_35">
    <!-- 立管 JL/WL -->
    <g style="fill: #1a1a1a" transform="translate(796.104 178.389125) scale(0.06 -0.06)">
     <defs>
      <path id="NotoSansCJKsc-Regular-7acb" d="M 621 4166 
L 621 3686 
L 5798 3686 
L 5798 4166 
L 621 4166 
z
M 1510 3232 
C 1747 2381 2022 1248 2118 518 
L 2624 646 
C 2515 1382 2246 2477 1984 3341 
L 1510 3232 
z
M 2739 5286 
C 2861 4960 2995 4525 3053 4243 
L 3546 4390 
C 3482 4666 3334 5088 3206 5414 
L 2739 5286 
z
M 4422 3341 
C 4211 2406 3814 1075 3462 243 
L 346 243 
L 346 -237 
L 6061 -237 
L 6061 243 
L 3981 243 
C 4320 1062 4704 2278 4966 3245 
L 4422 3341 
z
" transform="scale(0.015625)"/>
      <path id="NotoSansCJKsc-Regular-4a" d="M 1517 -83 
C 2432 -83 2810 563 2810 1376 
L 2810 4691 
L 2214 4691 
L 2214 1434 
C 2214 723 1965 435 1459 435 
C 1120 435 858 589 646 966 
L 224 659 
C 499 173 922 -83 1517 -83 
z
" transform="scale(0.015625)"/>
      <path id="NotoSansCJKsc-Regular-4c" d="M 646 0 
L 3290 0 
L 3290 506 
L 1235 506 
L 1235 4691 
L 646 4691 
L 646 0 
z
" transform="scale(0.015625)"/>
      <path id="NotoSansCJKsc-Regular-57" d="M 1158 0 
L 1862 0 
L 2560 2829 
C 2637 3200 2726 3539 2797 3898 
L 2822 3898 
C 2899 3539 2970 3200 3053 2829 
L 3763 0 
L 4480 0 
L 5446 4691 
L 4883 4691 
L 4378 2138 
C 4294 1632 4205 1126 4122 614 
L 4083 614 
C 3968 1126 3866 1638 3750 2138 
L 3098 4691 
L 2554 4691 
L 1907 2138 
C 1792 1632 1677 1126 1574 614 
L 1549 614 
C 1453 1126 1363 1632 1267 2138 
L 774 4691 
L 166 4691 
L 1158 0 
z
" transform="scale(0.015625)"/>
     </defs>
     <use xlink:href="#NotoSansCJKsc-Regular-7acb"/>
     <use xlink:href="#NotoSansCJKsc-Regular-7ba1" transform="translate(99.999985 0)"/>
     <use xlink:href="#NotoSansCJKsc-Regular-20" transform="translate(199.999969 0)"/>
     <use xlink:href="#NotoSansCJKsc-Regular-4a" transform="translate(222.399963 0)"/>
     <use xlink:href="#NotoSansCJKsc-Regular-4c" transform="translate(275.899948 0)"/>
     <use xlink:href="#NotoSansCJKsc-Regular-2f" transform="translate(330.199936 0)"/>
     <use xlink:href="#NotoSansCJKsc-Regular-57" transform="translate(369.399933 0)"/>
     <use xlink:href="#NotoSansCJKsc-Regular-4c" transform="translate(457.199921 0)"/>
    </g>
   </g>
   <g id="patch_55">
    <path d="M 787.6224 192.3125 
L 791.10432 193.91954 
L 791.10432 190.70546 
z
" clip-path="url(#pb35834723c)" style="fill: #ffffff; stroke: #333333; stroke-width: 1.2; stroke-linejoin: miter"/>
   </g>
   <g id="patch_56">
    <path d="M 792.9792 192.3125 
L 789.49728 193.91954 
L 789.49728 190.70546 
z
" clip-path="url(#pb35834723c)" style="fill: #ffffff; stroke: #333333; stroke-width: 1.2; stroke-linejoin: miter"/>
   </g>
   <g id="text_36">
    <!-- 阀门 -->
    <g style="fill: #1a1a1a" transform="translate(796.104 194.013125) scale(0.06 -0.06)">
     <defs>
      <path id="NotoSansCJKsc-Regular-9600" d="M 570 3936 
L 570 -512 
L 1043 -512 
L 1043 3936 
L 570 3936 
z
M 678 5062 
C 934 4794 1274 4416 1434 4179 
L 1811 4461 
C 1645 4685 1293 5043 1037 5306 
L 678 5062 
z
M 3789 3866 
C 4000 3661 4269 3379 4410 3213 
L 4710 3456 
C 4576 3616 4294 3891 4083 4077 
L 3789 3866 
z
M 2272 5069 
L 2272 4614 
L 5363 4614 
L 5363 83 
C 5363 -6 5338 -26 5248 -32 
C 5171 -38 4915 -38 4640 -32 
C 4704 -147 4768 -358 4787 -486 
C 5184 -486 5453 -474 5619 -397 
C 5779 -314 5837 -179 5837 77 
L 5837 5069 
L 2272 5069 
z
M 4550 2413 
C 4390 2093 4173 1792 3917 1523 
C 3827 1824 3750 2182 3693 2573 
L 5018 2746 
L 4992 3162 
L 3635 2995 
C 3603 3322 3571 3661 3558 4000 
L 3136 4000 
C 3155 3642 3181 3283 3219 2944 
L 2483 2867 
L 2534 2426 
L 3270 2515 
C 3341 2016 3437 1562 3571 1190 
C 3238 909 2861 666 2470 480 
C 2560 397 2707 218 2765 128 
C 3104 314 3437 538 3744 794 
C 3955 403 4237 166 4608 166 
C 4922 166 5050 339 5114 794 
C 5024 858 4909 960 4838 1050 
C 4813 736 4755 582 4627 582 
C 4410 582 4224 774 4077 1094 
C 4429 1446 4736 1843 4960 2285 
L 4550 2413 
z
M 2189 4077 
C 1971 3373 1600 2682 1165 2227 
C 1248 2131 1376 1920 1427 1837 
C 1562 1984 1690 2150 1811 2336 
L 1811 -19 
L 2234 -19 
L 2234 3085 
C 2368 3373 2490 3667 2592 3968 
L 2189 4077 
z
" transform="scale(0.015625)"/>
      <path id="NotoSansCJKsc-Regular-95e8" d="M 813 5152 
C 1139 4781 1536 4262 1715 3949 
L 2106 4230 
C 1920 4538 1510 5030 1184 5382 
L 813 5152 
z
M 595 4083 
L 595 -512 
L 1075 -512 
L 1075 4083 
L 595 4083 
z
M 2298 5139 
L 2298 4678 
L 5350 4678 
L 5350 128 
C 5350 0 5312 -38 5178 -45 
C 5050 -51 4595 -51 4128 -38 
C 4198 -166 4275 -371 4294 -499 
C 4909 -506 5306 -499 5536 -422 
C 5754 -339 5837 -192 5837 128 
L 5837 5139 
L 2298 5139 
z
" transform="scale(0.015625)"/>
     </defs>
     <use xlink:href="#NotoSansCJKsc-Regular-9600"/>
     <use xlink:href="#NotoSansCJKsc-Regular-95e8" transform="translate(99.999985 0)"/>
    </g>
   </g>
   <g id="patch_57">
    <path d="M 790.3008 204.3653 
L 793.872 207.9365 
L 790.3008 211.5077 
L 786.7296 207.9365 
z
" clip-path="url(#pb35834723c)" style="fill: #ffffff; stroke: #2196f3; stroke-linejoin: miter"/>
   </g>
   <g id="text_37">
    <!-- 水表 -->
    <g style="fill: #1a1a1a" transform="translate(796.104 209.637125) scale(0.06 -0.06)">
     <defs>
      <path id="NotoSansCJKsc-Regular-8868" d="M 1613 -506 
C 1760 -410 1997 -326 3782 243 
C 3757 346 3718 531 3706 666 
L 2144 198 
L 2144 1606 
C 2528 1869 2874 2157 3149 2464 
C 3648 1120 4544 147 5869 -294 
C 5939 -166 6080 19 6189 122 
C 5555 307 5011 621 4570 1037 
C 4973 1286 5440 1619 5811 1933 
L 5414 2214 
C 5133 1939 4685 1594 4301 1325 
C 4019 1658 3789 2042 3622 2464 
L 5978 2464 
L 5978 2880 
L 3430 2880 
L 3430 3450 
L 5491 3450 
L 5491 3846 
L 3430 3846 
L 3430 4390 
L 5773 4390 
L 5773 4806 
L 3430 4806 
L 3430 5376 
L 2944 5376 
L 2944 4806 
L 672 4806 
L 672 4390 
L 2944 4390 
L 2944 3846 
L 998 3846 
L 998 3450 
L 2944 3450 
L 2944 2880 
L 416 2880 
L 416 2464 
L 2541 2464 
C 1933 1920 1024 1427 230 1171 
C 333 1075 474 896 550 781 
C 909 909 1286 1088 1651 1299 
L 1651 352 
C 1651 96 1510 -13 1402 -70 
C 1478 -173 1581 -390 1613 -506 
z
" transform="scale(0.015625)"/>
     </defs>
     <use xlink:href="#NotoSansCJKsc-Regular-6c34"/>
     <use xlink:href="#NotoSansCJKsc-Regular-8868" transform="translate(99.999985 0)"/>
    </g>
   </g>
   <g id="patch_58">
    <path d="M 66.24 156.829912 
Q 66.24 143.20859 66.24 131.264319 
" style="fill: none; stroke: #1a1a1a; stroke-width: 1.5; stroke-linecap: round"/>
    <path d="M 64.24 135.264319 
L 66.24 131.264319 
L 68.24 135.264319 
z
" style="fill: #1a1a1a; stroke: #1a1a1a; stroke-width: 1.5; stroke-linecap: round"/>
   </g>
   <g id="text_38">
    <!-- N -->
    <g style="fill: #1a1a1a" transform="translate(62.494688 118.7385) scale(0.1 -0.1)">
     <defs>
      <path id="NotoSansCJKsc-Bold-4e" d="M 582 0 
L 1485 0 
L 1485 1901 
C 1485 2445 1402 3040 1363 3552 
L 1395 3552 
L 1875 2534 
L 3238 0 
L 4205 0 
L 4205 4742 
L 3309 4742 
L 3309 2848 
C 3309 2310 3386 1683 3437 1190 
L 3405 1190 
L 2925 2214 
L 1549 4742 
L 582 4742 
L 582 0 
z
" transform="scale(0.015625)"/>
     </defs>
     <use xlink:href="#NotoSansCJKsc-Bold-4e"/>
    </g>
   </g>
   <g id="text_39">
    <!-- WL-1 -->
    <g style="fill: #795548" transform="translate(125.841094 138.261406) scale(0.06 -0.06)">
     <defs>
      <path id="NotoSansCJKsc-Bold-57" d="M 1030 0 
L 2189 0 
L 2707 2349 
C 2778 2714 2848 3078 2918 3437 
L 2944 3437 
C 2995 3078 3066 2714 3142 2349 
L 3674 0 
L 4851 0 
L 5728 4742 
L 4832 4742 
L 4454 2426 
C 4384 1933 4314 1427 4243 915 
L 4211 915 
C 4109 1427 4019 1939 3910 2426 
L 3360 4742 
L 2547 4742 
L 2003 2426 
C 1901 1933 1798 1427 1702 915 
L 1677 915 
C 1606 1427 1530 1926 1453 2426 
L 1088 4742 
L 122 4742 
L 1030 0 
z
" transform="scale(0.015625)"/>
      <path id="NotoSansCJKsc-Bold-4c" d="M 582 0 
L 3456 0 
L 3456 794 
L 1530 794 
L 1530 4742 
L 582 4742 
L 582 0 
z
" transform="scale(0.015625)"/>
      <path id="NotoSansCJKsc-Bold-2d" d="M 314 1491 
L 2061 1491 
L 2061 2170 
L 314 2170 
L 314 1491 
z
" transform="scale(0.015625)"/>
      <path id="NotoSansCJKsc-Bold-31" d="M 525 0 
L 3373 0 
L 3373 768 
L 2483 768 
L 2483 4742 
L 1786 4742 
C 1485 4550 1165 4429 685 4346 
L 685 3757 
L 1549 3757 
L 1549 768 
L 525 768 
L 525 0 
z
" transform="scale(0.015625)"/>
     </defs>
     <use xlink:href="#NotoSansCJKsc-Bold-57"/>
     <use xlink:href="#NotoSansCJKsc-Bold-4c" transform="translate(91.499985 0)"/>
     <use xlink:href="#NotoSansCJKsc-Bold-2d" transform="translate(149.299973 0)"/>
     <use xlink:href="#NotoSansCJKsc-Bold-31" transform="translate(186.299957 0)"/>
    </g>
   </g>
   <g id="text_40">
    <!-- WL-2 -->
    <g style="fill: #795548" transform="translate(706.161094 598.053406) scale(0.06 -0.06)">
     <use xlink:href="#NotoSansCJKsc-Bold-57"/>
     <use xlink:href="#NotoSansCJKsc-Bold-4c" transform="translate(91.499985 0)"/>
     <use xlink:href="#NotoSansCJKsc-Bold-2d" transform="translate(149.299973 0)"/>
     <use xlink:href="#NotoSansCJKsc-Bold-32" transform="translate(186.299957 0)"/>
    </g>
   </g>
   <g id="text_41">
    <!-- WL-3 -->
    <g style="fill: #795548" transform="translate(549.921094 598.053406) scale(0.06 -0.06)">
     <defs>
      <path id="NotoSansCJKsc-Bold-33" d="M 1747 -90 
C 2656 -90 3418 410 3418 1280 
C 3418 1907 3008 2304 2477 2451 
L 2477 2483 
C 2976 2682 3264 3053 3264 3565 
C 3264 4378 2643 4826 1728 4826 
C 1171 4826 717 4602 307 4250 
L 794 3667 
C 1069 3930 1344 4083 1683 4083 
C 2086 4083 2317 3866 2317 3494 
C 2317 3066 2035 2771 1171 2771 
L 1171 2093 
C 2195 2093 2470 1805 2470 1338 
C 2470 915 2144 678 1664 678 
C 1229 678 890 890 608 1165 
L 166 570 
C 499 192 1005 -90 1747 -90 
z
" transform="scale(0.015625)"/>
     </defs>
     <use xlink:href="#NotoSansCJKsc-Bold-57"/>
     <use xlink:href="#NotoSansCJKsc-Bold-4c" transform="translate(91.499985 0)"/>
     <use xlink:href="#NotoSansCJKsc-Bold-2d" transform="translate(149.299973 0)"/>
     <use xlink:href="#NotoSansCJKsc-Bold-33" transform="translate(186.299957 0)"/>
    </g>
   </g>
   <g id="text_42">
    <!-- W -->
    <g style="fill: #2196f3" transform="translate(397.8375 227.832891) scale(0.07 -0.07)">
     <use xlink:href="#NotoSansCJKsc-Bold-57"/>
    </g>
   </g>
  </g>
 </g>
 <defs>
  <clipPath id="pb35834723c">
   <rect x="21.6" y="47.2325" width="892.8" height="624.96"/>
  </clipPath>
 </defs>
</svg>
