<?xml version="1.0" encoding="utf-8" standalone="no"?>
<!DOCTYPE svg PUBLIC "-//W3C//DTD SVG 1.1//EN"
  "http://www.w3.org/Graphics/SVG/1.1/DTD/svg11.dtd">
<svg xmlns:xlink="http://www.w3.org/1999/xlink" width="936pt" height="762.3675pt" viewBox="0 0 936 762.3675" xmlns="http://www.w3.org/2000/svg" version="1.1">
 <metadata>
  <rdf:RDF xmlns:dc="http://purl.org/dc/elements/1.1/" xmlns:cc="http://creativecommons.org/ns#" xmlns:rdf="http://www.w3.org/1999/02/22-rdf-syntax-ns#">
   <cc:Work>
    <dc:type rdf:resource="http://purl.org/dc/dcmitype/StillImage"/>
    <dc:date>2026-02-27T18:27:54.782771</dc:date>
    <dc:format>image/svg+xml</dc:format>
    <dc:creator>
     <cc:Agent>
      <dc:title>Matplotlib v3.10.8, https://matplotlib.org/</dc:title>
     </cc:Agent>
    </dc:creator>
   </cc:Work>
  </rdf:RDF>
 </metadata>
 <defs>
  <style type="text/css">*{stroke-linejoin: round; stroke-linecap: butt}</style>
 </defs>
 <g id="figure_1">
  <g id="patch_1">
   <path d="M 0 762.3675 
L 936 762.3675 
L 936 0 
L 0 0 
z
" style="fill: #ffffff"/>
  </g>
  <g id="axes_1">
   <g id="patch_2">
    <path d="M 132.704 654.4635 
L 803.296 654.4635 
L 803.296 132.6715 
L 132.704 132.6715 
z
" clip-path="url(#paeab10d7a9)" style="fill: #e8e8e8"/>
   </g>
   <g id="patch_3">
    <path d="M 150.56 636.6075 
L 785.44 636.6075 
L 785.44 150.5275 
L 150.56 150.5275 
L 150.56 636.6075 
z
" clip-path="url(#paeab10d7a9)" style="fill: none; stroke-dasharray: 1.85,0.8; stroke-dashoffset: 0; stroke: #333333; stroke-width: 0.5; stroke-linejoin: miter"/>
   </g>
   <g id="text_1">
    <!-- 屋顶平面图  Roof Plan -->
    <g style="fill: #1a1a1a" transform="translate(386.3925 34.3675) scale(0.16 -0.16)">
     <defs>
      <path id="NotoSansCJKsc-Bold-5c4b" d="M 1606 4518 
L 4986 4518 
L 4986 4134 
L 1606 4134 
L 1606 4518 
z
M 1939 1440 
C 2099 1504 2317 1536 3334 1613 
L 3334 1235 
L 1824 1235 
L 1824 627 
L 3334 627 
L 3334 186 
L 1389 186 
L 1389 -422 
L 6080 -422 
L 6080 186 
L 4083 186 
L 4083 627 
L 5626 627 
L 5626 1235 
L 4083 1235 
L 4083 1664 
L 4986 1722 
C 5126 1587 5248 1453 5331 1344 
L 5952 1715 
C 5728 1978 5312 2330 4934 2618 
L 5939 2618 
L 5939 3226 
L 1606 3226 
L 1606 3283 
L 1606 3514 
L 5760 3514 
L 5760 5139 
L 832 5139 
L 832 3283 
C 832 2259 781 813 154 -179 
C 358 -256 698 -448 851 -570 
C 1382 294 1549 1568 1594 2618 
L 2470 2618 
C 2304 2464 2157 2342 2086 2291 
C 1952 2189 1830 2118 1715 2099 
C 1792 1914 1901 1581 1939 1440 
z
M 4122 2464 
L 4378 2266 
L 2938 2189 
C 3110 2323 3277 2470 3430 2618 
L 4384 2618 
L 4122 2464 
z
" transform="scale(0.015625)"/>
      <path id="NotoSansCJKsc-Bold-9876" d="M 4083 3046 
L 4083 1882 
C 4083 1274 3974 512 2432 38 
C 2592 -115 2810 -397 2906 -563 
C 4454 58 4832 1050 4832 1869 
L 4832 3046 
L 4083 3046 
z
M 4493 454 
C 4922 154 5498 -294 5754 -589 
L 6272 -19 
C 5984 269 5402 691 4973 966 
L 4493 454 
z
M 2950 4058 
L 2950 960 
L 3661 960 
L 3661 3354 
L 5222 3354 
L 5222 986 
L 5971 986 
L 5971 4058 
L 4595 4058 
L 4768 4525 
L 6202 4525 
L 6202 5190 
L 2701 5190 
L 2701 4525 
L 3962 4525 
C 3936 4371 3904 4211 3872 4058 
L 2950 4058 
z
M 224 5030 
L 224 4314 
L 1139 4314 
L 1139 467 
C 1139 378 1107 352 1005 346 
C 896 339 570 339 237 352 
C 358 147 486 -205 518 -422 
C 998 -429 1344 -397 1587 -269 
C 1830 -147 1901 70 1901 467 
L 1901 4314 
L 2573 4314 
L 2573 5030 
L 224 5030 
z
" transform="scale(0.015625)"/>
      <path id="NotoSansCJKsc-Bold-5e73" d="M 1018 3866 
C 1229 3437 1427 2874 1491 2528 
L 2240 2765 
C 2163 3123 1939 3661 1722 4077 
L 1018 3866 
z
M 4666 4096 
C 4544 3674 4314 3110 4109 2739 
L 4781 2541 
C 4998 2874 5261 3392 5491 3885 
L 4666 4096 
z
M 294 2330 
L 294 1555 
L 2797 1555 
L 2797 -570 
L 3597 -570 
L 3597 1555 
L 6125 1555 
L 6125 2330 
L 3597 2330 
L 3597 4282 
L 5754 4282 
L 5754 5043 
L 634 5043 
L 634 4282 
L 2797 4282 
L 2797 2330 
L 294 2330 
z
" transform="scale(0.015625)"/>
      <path id="NotoSansCJKsc-Bold-9762" d="M 2662 2016 
L 3648 2016 
L 3648 1536 
L 2662 1536 
L 2662 2016 
z
M 2662 2618 
L 2662 3066 
L 3648 3066 
L 3648 2618 
L 2662 2618 
z
M 2662 934 
L 3648 934 
L 3648 461 
L 2662 461 
L 2662 934 
z
M 320 5069 
L 320 4346 
L 2662 4346 
C 2637 4154 2598 3955 2566 3770 
L 582 3770 
L 582 -576 
L 1325 -576 
L 1325 -250 
L 5030 -250 
L 5030 -576 
L 5811 -576 
L 5811 3770 
L 3366 3770 
L 3546 4346 
L 6106 4346 
L 6106 5069 
L 320 5069 
z
M 1325 461 
L 1325 3066 
L 1978 3066 
L 1978 461 
L 1325 461 
z
M 5030 461 
L 4339 461 
L 4339 3066 
L 5030 3066 
L 5030 461 
z
" transform="scale(0.015625)"/>
      <path id="NotoSansCJKsc-Bold-56fe" d="M 461 5190 
L 461 -576 
L 1197 -576 
L 1197 -346 
L 5178 -346 
L 5178 -576 
L 5952 -576 
L 5952 5190 
L 461 5190 
z
M 1702 890 
C 2560 794 3616 550 4256 326 
L 1197 326 
L 1197 2234 
C 1306 2080 1421 1862 1472 1715 
C 1824 1798 2176 1907 2528 2042 
L 2291 1709 
C 2829 1600 3507 1370 3885 1190 
L 4198 1664 
C 3834 1824 3232 2010 2720 2118 
C 2893 2195 3072 2272 3238 2362 
C 3731 2112 4282 1920 4838 1798 
C 4909 1939 5050 2138 5178 2278 
L 5178 326 
L 4339 326 
L 4666 845 
C 4006 1062 2925 1299 2048 1389 
L 1702 890 
z
M 2586 4506 
C 2278 4038 1741 3578 1222 3290 
C 1370 3181 1613 2957 1728 2829 
C 1856 2912 1984 3008 2118 3117 
C 2259 2989 2413 2867 2573 2752 
C 2138 2579 1658 2438 1197 2349 
L 1197 4506 
L 2586 4506 
z
M 2656 4506 
L 5178 4506 
L 5178 2381 
C 4736 2464 4288 2586 3885 2739 
C 4320 3040 4691 3392 4954 3789 
L 4525 4045 
L 4416 4013 
L 3008 4013 
C 3085 4109 3162 4211 3226 4307 
L 2656 4506 
z
M 3213 3046 
C 2982 3168 2778 3302 2605 3450 
L 3840 3450 
C 3661 3302 3443 3168 3213 3046 
z
" transform="scale(0.015625)"/>
      <path id="NotoSansCJKsc-Bold-20" transform="scale(0.015625)"/>
      <path id="NotoSansCJKsc-Bold-52" d="M 1530 2541 
L 1530 3987 
L 2144 3987 
C 2752 3987 3085 3814 3085 3302 
C 3085 2797 2752 2541 2144 2541 
L 1530 2541 
z
M 3162 0 
L 4218 0 
L 3110 1939 
C 3654 2150 4013 2592 4013 3302 
C 4013 4390 3226 4742 2227 4742 
L 582 4742 
L 582 0 
L 1530 0 
L 1530 1792 
L 2189 1792 
L 3162 0 
z
" transform="scale(0.015625)"/>
      <path id="NotoSansCJKsc-Bold-6f" d="M 2003 -90 
C 2899 -90 3725 602 3725 1792 
C 3725 2982 2899 3674 2003 3674 
C 1101 3674 282 2982 282 1792 
C 282 602 1101 -90 2003 -90 
z
M 2003 678 
C 1510 678 1242 1114 1242 1792 
C 1242 2464 1510 2906 2003 2906 
C 2490 2906 2765 2464 2765 1792 
C 2765 1114 2490 678 2003 678 
z
" transform="scale(0.015625)"/>
      <path id="NotoSansCJKsc-Bold-66" d="M 179 2842 
L 666 2842 
L 666 0 
L 1600 0 
L 1600 2842 
L 2285 2842 
L 2285 3584 
L 1600 3584 
L 1600 3891 
C 1600 4288 1760 4454 2035 4454 
C 2163 4454 2298 4429 2419 4371 
L 2592 5075 
C 2432 5139 2189 5197 1907 5197 
C 1011 5197 666 4614 666 3872 
L 666 3578 
L 179 3539 
L 179 2842 
z
" transform="scale(0.015625)"/>
      <path id="NotoSansCJKsc-Bold-50" d="M 582 0 
L 1530 0 
L 1530 1683 
L 2163 1683 
C 3181 1683 3994 2170 3994 3251 
C 3994 4371 3187 4742 2138 4742 
L 582 4742 
L 582 0 
z
M 1530 2432 
L 1530 3987 
L 2067 3987 
C 2720 3987 3066 3802 3066 3251 
C 3066 2707 2752 2432 2099 2432 
L 1530 2432 
z
" transform="scale(0.015625)"/>
      <path id="NotoSansCJKsc-Bold-6c" d="M 1395 -90 
C 1613 -90 1766 -51 1875 -6 
L 1760 691 
C 1696 678 1670 678 1632 678 
C 1542 678 1446 749 1446 966 
L 1446 5107 
L 506 5107 
L 506 1005 
C 506 339 736 -90 1395 -90 
z
" transform="scale(0.015625)"/>
      <path id="NotoSansCJKsc-Bold-61" d="M 1382 -90 
C 1798 -90 2157 109 2464 384 
L 2496 384 
L 2560 0 
L 3328 0 
L 3328 2093 
C 3328 3130 2861 3674 1952 3674 
C 1389 3674 877 3456 461 3200 
L 794 2573 
C 1126 2771 1446 2918 1779 2918 
C 2221 2918 2374 2650 2387 2298 
C 947 2144 326 1741 326 979 
C 326 365 742 -90 1382 -90 
z
M 1696 646 
C 1421 646 1222 768 1222 1050 
C 1222 1376 1510 1613 2387 1715 
L 2387 998 
C 2163 774 1965 646 1696 646 
z
" transform="scale(0.015625)"/>
      <path id="NotoSansCJKsc-Bold-6e" d="M 506 0 
L 1446 0 
L 1446 2464 
C 1709 2726 1901 2867 2189 2867 
C 2541 2867 2694 2675 2694 2118 
L 2694 0 
L 3635 0 
L 3635 2234 
C 3635 3136 3302 3674 2528 3674 
C 2042 3674 1677 3418 1363 3110 
L 1344 3110 
L 1274 3584 
L 506 3584 
L 506 0 
z
" transform="scale(0.015625)"/>
     </defs>
     <use xlink:href="#NotoSansCJKsc-Bold-5c4b"/>
     <use xlink:href="#NotoSansCJKsc-Bold-9876" transform="translate(99.999985 0)"/>
     <use xlink:href="#NotoSansCJKsc-Bold-5e73" transform="translate(199.999969 0)"/>
     <use xlink:href="#NotoSansCJKsc-Bold-9762" transform="translate(299.999954 0)"/>
     <use xlink:href="#NotoSansCJKsc-Bold-56fe" transform="translate(399.999939 0)"/>
     <use xlink:href="#NotoSansCJKsc-Bold-20" transform="translate(499.999924 0)"/>
     <use xlink:href="#NotoSansCJKsc-Bold-20" transform="translate(522.699921 0)"/>
     <use xlink:href="#NotoSansCJKsc-Bold-52" transform="translate(545.399918 0)"/>
     <use xlink:href="#NotoSansCJKsc-Bold-6f" transform="translate(613.599899 0)"/>
     <use xlink:href="#NotoSansCJKsc-Bold-6f" transform="translate(676.19989 0)"/>
     <use xlink:href="#NotoSansCJKsc-Bold-66" transform="translate(738.799881 0)"/>
     <use xlink:href="#NotoSansCJKsc-Bold-20" transform="translate(775.999878 0)"/>
     <use xlink:href="#NotoSansCJKsc-Bold-50" transform="translate(798.699875 0)"/>
     <use xlink:href="#NotoSansCJKsc-Bold-6c" transform="translate(865.399872 0)"/>
     <use xlink:href="#NotoSansCJKsc-Bold-61" transform="translate(896.899857 0)"/>
     <use xlink:href="#NotoSansCJKsc-Bold-6e" transform="translate(955.999847 0)"/>
    </g>
   </g>
   <g id="patch_4">
    <path d="M 443.2 418.3675 
L 482.88 418.3675 
L 482.88 378.6875 
L 443.2 378.6875 
L 443.2 418.3675 
z
" clip-path="url(#paeab10d7a9)" style="fill: none; stroke: #333333; stroke-width: 0.8; stroke-linejoin: miter"/>
   </g>
   <g id="patch_5">
    <path d="M 120.8 666.3675 
L 815.2 666.3675 
L 815.2 654.4635 
L 120.8 654.4635 
z
" clip-path="url(#paeab10d7a9)" style="fill: #1a1a1a; stroke: #1a1a1a; stroke-width: 0.5; stroke-linejoin: miter"/>
   </g>
   <g id="patch_6">
    <path d="M 120.8 132.6715 
L 815.2 132.6715 
L 815.2 120.7675 
L 120.8 120.7675 
z
" clip-path="url(#paeab10d7a9)" style="fill: #1a1a1a; stroke: #1a1a1a; stroke-width: 0.5; stroke-linejoin: miter"/>
   </g>
   <g id="patch_7">
    <path d="M 120.8 666.3675 
L 132.704 666.3675 
L 132.704 120.7675 
L 120.8 120.7675 
z
" clip-path="url(#paeab10d7a9)" style="fill: #1a1a1a; stroke: #1a1a1a; stroke-width: 0.5; stroke-linejoin: miter"/>
   </g>
   <g id="patch_8">
    <path d="M 803.296 666.3675 
L 815.2 666.3675 
L 815.2 120.7675 
L 803.296 120.7675 
z
" clip-path="url(#paeab10d7a9)" style="fill: #1a1a1a; stroke: #1a1a1a; stroke-width: 0.5; stroke-linejoin: miter"/>
   </g>
   <g id="patch_9">
    <path d="M 145.6 645.5355 
C 146.652326 645.5355 147.661693 645.117406 148.4058 644.3733 
C 149.149906 643.629193 149.568 642.619826 149.568 641.5675 
C 149.568 640.515174 149.149906 639.505807 148.4058 638.7617 
C 147.661693 638.017594 146.652326 637.5995 145.6 637.5995 
C 144.547674 637.5995 143.538307 638.017594 142.7942 638.7617 
C 142.050094 639.505807 141.632 640.515174 141.632 641.5675 
C 141.632 642.619826 142.050094 643.629193 142.7942 644.3733 
C 143.538307 645.117406 144.547674 645.5355 145.6 645.5355 
z
" clip-path="url(#paeab10d7a9)" style="fill: #1a1a1a; stroke: #1a1a1a; stroke-linejoin: miter"/>
   </g>
   <g id="patch_10">
    <path d="M 790.4 645.5355 
C 791.452326 645.5355 792.461693 645.117406 793.2058 644.3733 
C 793.949906 643.629193 794.368 642.619826 794.368 641.5675 
C 794.368 640.515174 793.949906 639.505807 793.2058 638.7617 
C 792.461693 638.017594 791.452326 637.5995 790.4 637.5995 
C 789.347674 637.5995 788.338307 638.017594 787.5942 638.7617 
C 786.850094 639.505807 786.432 640.515174 786.432 641.5675 
C 786.432 642.619826 786.850094 643.629193 787.5942 644.3733 
C 788.338307 645.117406 789.347674 645.5355 790.4 645.5355 
z
" clip-path="url(#paeab10d7a9)" style="fill: #1a1a1a; stroke: #1a1a1a; stroke-linejoin: miter"/>
   </g>
   <g id="patch_11">
    <path d="M 145.6 149.5355 
C 146.652326 149.5355 147.661693 149.117406 148.4058 148.3733 
C 149.149906 147.629193 149.568 146.619826 149.568 145.5675 
C 149.568 144.515174 149.149906 143.505807 148.4058 142.7617 
C 147.661693 142.017594 146.652326 141.5995 145.6 141.5995 
C 144.547674 141.5995 143.538307 142.017594 142.7942 142.7617 
C 142.050094 143.505807 141.632 144.515174 141.632 145.5675 
C 141.632 146.619826 142.050094 147.629193 142.7942 148.3733 
C 143.538307 149.117406 144.547674 149.5355 145.6 149.5355 
z
" clip-path="url(#paeab10d7a9)" style="fill: #1a1a1a; stroke: #1a1a1a; stroke-linejoin: miter"/>
   </g>
   <g id="patch_12">
    <path d="M 790.4 149.5355 
C 791.452326 149.5355 792.461693 149.117406 793.2058 148.3733 
C 793.949906 147.629193 794.368 146.619826 794.368 145.5675 
C 794.368 144.515174 793.949906 143.505807 793.2058 142.7617 
C 792.461693 142.017594 791.452326 141.5995 790.4 141.5995 
C 789.347674 141.5995 788.338307 142.017594 787.5942 142.7617 
C 786.850094 143.505807 786.432 144.515174 786.432 145.5675 
C 786.432 146.619826 786.850094 147.629193 787.5942 148.3733 
C 788.338307 149.117406 789.347674 149.5355 790.4 149.5355 
z
" clip-path="url(#paeab10d7a9)" style="fill: #1a1a1a; stroke: #1a1a1a; stroke-linejoin: miter"/>
   </g>
   <g id="patch_13">
    <path d="M 468 395.568574 
Q 468 443.166919 468 489.64723 
" style="fill: none; stroke: #cc0000; stroke-linecap: round"/>
    <path d="M 470 485.64723 
L 468 489.64723 
L 466 485.64723 
" style="fill: none; stroke: #cc0000; stroke-linecap: round"/>
   </g>
   <g id="text_2">
    <!-- i=3% -->
    <g style="fill: #cc0000" transform="translate(459.929219 509.631563) scale(0.07 -0.07)">
     <defs>
      <path id="NotoSansCJKsc-Regular-69" d="M 589 0 
L 1178 0 
L 1178 3475 
L 589 3475 
L 589 0 
z
M 883 4192 
C 1114 4192 1274 4346 1274 4582 
C 1274 4806 1114 4960 883 4960 
C 653 4960 499 4806 499 4582 
C 499 4346 653 4192 883 4192 
z
" transform="scale(0.015625)"/>
      <path id="NotoSansCJKsc-Regular-3d" d="M 243 2912 
L 3315 2912 
L 3315 3347 
L 243 3347 
L 243 2912 
z
M 243 1376 
L 3315 1376 
L 3315 1811 
L 243 1811 
L 243 1376 
z
" transform="scale(0.015625)"/>
      <path id="NotoSansCJKsc-Regular-33" d="M 1683 -83 
C 2522 -83 3194 416 3194 1254 
C 3194 1901 2752 2310 2202 2445 
L 2202 2477 
C 2701 2650 3034 3034 3034 3603 
C 3034 4346 2458 4774 1664 4774 
C 1126 4774 710 4538 358 4218 
L 672 3846 
C 941 4115 1267 4301 1645 4301 
C 2138 4301 2438 4006 2438 3558 
C 2438 3053 2112 2662 1139 2662 
L 1139 2214 
C 2227 2214 2598 1843 2598 1274 
C 2598 736 2208 403 1645 403 
C 1114 403 762 659 486 941 
L 186 563 
C 493 224 954 -83 1683 -83 
z
" transform="scale(0.015625)"/>
      <path id="NotoSansCJKsc-Regular-25" d="M 1312 1818 
C 1958 1818 2381 2362 2381 3309 
C 2381 4243 1958 4774 1312 4774 
C 672 4774 250 4243 250 3309 
C 250 2362 672 1818 1312 1818 
z
M 1312 2176 
C 941 2176 691 2560 691 3309 
C 691 4058 941 4416 1312 4416 
C 1683 4416 1933 4058 1933 3309 
C 1933 2560 1683 2176 1312 2176 
z
M 1446 -83 
L 1843 -83 
L 4435 4774 
L 4038 4774 
L 1446 -83 
z
M 4582 -83 
C 5222 -83 5645 454 5645 1402 
C 5645 2342 5222 2874 4582 2874 
C 3942 2874 3520 2342 3520 1402 
C 3520 454 3942 -83 4582 -83 
z
M 4582 275 
C 4211 275 3955 653 3955 1402 
C 3955 2150 4211 2515 4582 2515 
C 4947 2515 5210 2150 5210 1402 
C 5210 653 4947 275 4582 275 
z
" transform="scale(0.015625)"/>
     </defs>
     <use xlink:href="#NotoSansCJKsc-Regular-69"/>
     <use xlink:href="#NotoSansCJKsc-Regular-3d" transform="translate(27.499985 0)"/>
     <use xlink:href="#NotoSansCJKsc-Regular-33" transform="translate(82.999969 0)"/>
     <use xlink:href="#NotoSansCJKsc-Regular-25" transform="translate(138.499954 0)"/>
    </g>
   </g>
   <g id="patch_14">
    <path d="M 468 391.566426 
Q 468 343.968081 468 297.48777 
" style="fill: none; stroke: #cc0000; stroke-linecap: round"/>
    <path d="M 466 301.48777 
L 468 297.48777 
L 470 301.48777 
" style="fill: none; stroke: #cc0000; stroke-linecap: round"/>
   </g>
   <g id="text_3">
    <!-- i=3% -->
    <g style="fill: #cc0000" transform="translate(459.929219 281.471563) scale(0.07 -0.07)">
     <use xlink:href="#NotoSansCJKsc-Regular-69"/>
     <use xlink:href="#NotoSansCJKsc-Regular-3d" transform="translate(27.499985 0)"/>
     <use xlink:href="#NotoSansCJKsc-Regular-33" transform="translate(82.999969 0)"/>
     <use xlink:href="#NotoSansCJKsc-Regular-25" transform="translate(138.499954 0)"/>
    </g>
   </g>
   <g id="patch_15">
    <path d="M 465.998926 393.5675 
Q 418.400581 393.5675 371.92027 393.5675 
" style="fill: none; stroke: #cc0000; stroke-linecap: round"/>
    <path d="M 375.92027 395.5675 
L 371.92027 393.5675 
L 375.92027 391.5675 
" style="fill: none; stroke: #cc0000; stroke-linecap: round"/>
   </g>
   <g id="text_4">
    <!-- i=3% -->
    <g style="fill: #cc0000" transform="translate(355.904062 401.638281) rotate(-90) scale(0.07 -0.07)">
     <use xlink:href="#NotoSansCJKsc-Regular-69"/>
     <use xlink:href="#NotoSansCJKsc-Regular-3d" transform="translate(27.499985 0)"/>
     <use xlink:href="#NotoSansCJKsc-Regular-33" transform="translate(82.999969 0)"/>
     <use xlink:href="#NotoSansCJKsc-Regular-25" transform="translate(138.499954 0)"/>
    </g>
   </g>
   <g id="patch_16">
    <path d="M 470.001074 393.5675 
Q 517.599419 393.5675 564.07973 393.5675 
" style="fill: none; stroke: #cc0000; stroke-linecap: round"/>
    <path d="M 560.07973 391.5675 
L 564.07973 393.5675 
L 560.07973 395.5675 
" style="fill: none; stroke: #cc0000; stroke-linecap: round"/>
   </g>
   <g id="text_5">
    <!-- i=3% -->
    <g style="fill: #cc0000" transform="translate(584.064062 401.638281) rotate(-90) scale(0.07 -0.07)">
     <use xlink:href="#NotoSansCJKsc-Regular-69"/>
     <use xlink:href="#NotoSansCJKsc-Regular-3d" transform="translate(27.499985 0)"/>
     <use xlink:href="#NotoSansCJKsc-Regular-33" transform="translate(82.999969 0)"/>
     <use xlink:href="#NotoSansCJKsc-Regular-25" transform="translate(138.499954 0)"/>
    </g>
   </g>
   <g id="text_6">
    <!-- 落水管 -->
    <g style="fill: #666666" transform="translate(138.1 655.467188) scale(0.05 -0.05)">
     <defs>
      <path id="NotoSansCJKsc-Regular-843d" d="M 397 -115 
L 742 -486 
C 1139 -13 1600 614 1965 1152 
L 1670 1491 
C 1267 915 749 269 397 -115 
z
M 698 3706 
C 1056 3520 1542 3219 1779 3027 
L 2067 3392 
C 1824 3584 1331 3859 973 4032 
L 698 3706 
z
M 262 2464 
C 646 2291 1120 2003 1357 1805 
L 1645 2170 
C 1408 2374 915 2643 544 2797 
L 262 2464 
z
M 3328 4166 
C 3053 3686 2547 3078 1882 2637 
C 1990 2573 2138 2438 2221 2342 
C 2483 2534 2720 2746 2931 2963 
C 3162 2739 3437 2515 3738 2317 
C 3162 2003 2509 1766 1907 1632 
C 1997 1536 2106 1357 2150 1235 
L 2579 1363 
L 2579 -512 
L 3034 -512 
L 3034 -237 
L 5062 -237 
L 5062 -512 
L 5536 -512 
L 5536 1402 
L 2701 1402 
C 3194 1568 3686 1786 4147 2061 
C 4717 1722 5344 1453 5933 1286 
C 6003 1402 6131 1581 6234 1683 
C 5677 1824 5088 2048 4550 2323 
C 5024 2656 5427 3059 5702 3520 
L 5402 3706 
L 5318 3686 
L 3539 3686 
C 3635 3814 3725 3942 3802 4070 
L 3328 4166 
z
M 3034 147 
L 3034 1018 
L 5062 1018 
L 5062 147 
L 3034 147 
z
M 5018 3309 
C 4787 3034 4486 2778 4141 2554 
C 3776 2771 3450 3021 3213 3270 
L 3245 3309 
L 5018 3309 
z
M 390 4928 
L 390 4499 
L 1843 4499 
L 1843 3955 
L 2310 3955 
L 2310 4499 
L 4051 4499 
L 4051 3955 
L 4518 3955 
L 4518 4499 
L 6022 4499 
L 6022 4928 
L 4518 4928 
L 4518 5376 
L 4051 5376 
L 4051 4928 
L 2310 4928 
L 2310 5376 
L 1843 5376 
L 1843 4928 
L 390 4928 
z
" transform="scale(0.015625)"/>
      <path id="NotoSansCJKsc-Regular-6c34" d="M 454 3738 
L 454 3251 
L 2029 3251 
C 1722 1984 1062 1018 250 486 
C 365 416 557 230 640 115 
C 1542 755 2291 1958 2605 3635 
L 2291 3757 
L 2202 3738 
L 454 3738 
z
M 5229 4173 
C 4915 3738 4410 3168 3987 2771 
C 3789 3104 3610 3456 3469 3814 
L 3469 5363 
L 2957 5363 
L 2957 141 
C 2957 32 2918 6 2816 0 
C 2714 -6 2381 -6 2010 6 
C 2086 -141 2170 -378 2195 -518 
C 2688 -518 3002 -506 3200 -416 
C 3392 -333 3469 -179 3469 147 
L 3469 2848 
C 4051 1690 4883 678 5882 154 
C 5965 294 6125 493 6240 595 
C 5466 954 4768 1619 4224 2413 
C 4672 2790 5242 3373 5664 3866 
L 5229 4173 
z
" transform="scale(0.015625)"/>
      <path id="NotoSansCJKsc-Regular-7ba1" d="M 1350 2803 
L 1350 -518 
L 1837 -518 
L 1837 -301 
L 4934 -301 
L 4934 -506 
L 5408 -506 
L 5408 1075 
L 1837 1075 
L 1837 1517 
L 5069 1517 
L 5069 2803 
L 1350 2803 
z
M 4934 77 
L 1837 77 
L 1837 698 
L 4934 698 
L 4934 77 
z
M 2816 3987 
C 2886 3859 2957 3712 3014 3578 
L 646 3578 
L 646 2522 
L 1114 2522 
L 1114 3200 
L 5370 3200 
L 5370 2522 
L 5856 2522 
L 5856 3578 
L 3507 3578 
C 3450 3738 3341 3930 3245 4077 
L 2816 3987 
z
M 1837 2432 
L 4602 2432 
L 4602 1882 
L 1837 1882 
L 1837 2432 
z
M 1069 5402 
C 909 4845 627 4301 275 3942 
C 397 3885 595 3776 691 3712 
C 877 3923 1050 4198 1210 4499 
L 1651 4499 
C 1792 4262 1933 3974 1990 3789 
L 2400 3930 
C 2349 4083 2240 4301 2118 4499 
L 3098 4499 
L 3098 4851 
L 1370 4851 
C 1434 5005 1491 5158 1536 5312 
L 1069 5402 
z
M 3776 5389 
C 3661 4922 3437 4474 3149 4166 
C 3264 4109 3462 4006 3546 3942 
C 3680 4096 3808 4282 3917 4493 
L 4371 4493 
C 4563 4256 4749 3955 4832 3770 
L 5222 3942 
C 5152 4096 5018 4301 4870 4493 
L 6016 4493 
L 6016 4851 
L 4083 4851 
C 4147 4998 4198 5152 4243 5306 
L 3776 5389 
z
" transform="scale(0.015625)"/>
     </defs>
     <use xlink:href="#NotoSansCJKsc-Regular-843d"/>
     <use xlink:href="#NotoSansCJKsc-Regular-6c34" transform="translate(99.999985 0)"/>
     <use xlink:href="#NotoSansCJKsc-Regular-7ba1" transform="translate(199.999969 0)"/>
    </g>
    <!-- φ110 -->
    <g style="fill: #666666" transform="translate(139.5375 661.388125) scale(0.05 -0.05)">
     <defs>
      <path id="NotoSansCJKsc-Regular-3c6" d="M 2157 390 
C 1478 410 934 915 934 1741 
C 934 2566 1478 3066 2157 3091 
L 2157 390 
z
M 2157 -1280 
L 2701 -1280 
L 2701 -64 
C 3648 -26 4531 608 4531 1741 
C 4531 2874 3674 3507 2701 3546 
L 2701 4454 
L 2157 4454 
L 2157 3546 
C 1216 3507 333 2874 333 1741 
C 333 608 1216 -26 2157 -64 
L 2157 -1280 
z
M 2701 3091 
C 3411 3066 3930 2573 3930 1741 
C 3930 909 3373 410 2701 390 
L 2701 3091 
z
" transform="scale(0.015625)"/>
      <path id="NotoSansCJKsc-Regular-31" d="M 563 0 
L 3136 0 
L 3136 486 
L 2195 486 
L 2195 4691 
L 1747 4691 
C 1491 4544 1190 4435 774 4358 
L 774 3987 
L 1613 3987 
L 1613 486 
L 563 486 
L 563 0 
z
" transform="scale(0.015625)"/>
      <path id="NotoSansCJKsc-Regular-30" d="M 1779 -83 
C 2669 -83 3238 723 3238 2362 
C 3238 3987 2669 4774 1779 4774 
C 883 4774 320 3987 320 2362 
C 320 723 883 -83 1779 -83 
z
M 1779 390 
C 1248 390 883 986 883 2362 
C 883 3731 1248 4314 1779 4314 
C 2310 4314 2675 3731 2675 2362 
C 2675 986 2310 390 1779 390 
z
" transform="scale(0.015625)"/>
     </defs>
     <use xlink:href="#NotoSansCJKsc-Regular-3c6"/>
     <use xlink:href="#NotoSansCJKsc-Regular-31" transform="translate(75.999985 0)"/>
     <use xlink:href="#NotoSansCJKsc-Regular-31" transform="translate(131.499969 0)"/>
     <use xlink:href="#NotoSansCJKsc-Regular-30" transform="translate(186.999954 0)"/>
    </g>
   </g>
   <g id="text_7">
    <!-- 落水管 -->
    <g style="fill: #666666" transform="translate(782.9 655.467188) scale(0.05 -0.05)">
     <use xlink:href="#NotoSansCJKsc-Regular-843d"/>
     <use xlink:href="#NotoSansCJKsc-Regular-6c34" transform="translate(99.999985 0)"/>
     <use xlink:href="#NotoSansCJKsc-Regular-7ba1" transform="translate(199.999969 0)"/>
    </g>
    <!-- φ110 -->
    <g style="fill: #666666" transform="translate(784.3375 661.388125) scale(0.05 -0.05)">
     <use xlink:href="#NotoSansCJKsc-Regular-3c6"/>
     <use xlink:href="#NotoSansCJKsc-Regular-31" transform="translate(75.999985 0)"/>
     <use xlink:href="#NotoSansCJKsc-Regular-31" transform="translate(131.499969 0)"/>
     <use xlink:href="#NotoSansCJKsc-Regular-30" transform="translate(186.999954 0)"/>
    </g>
   </g>
   <g id="text_8">
    <!-- 落水管 -->
    <g style="fill: #666666" transform="translate(138.1 159.467188) scale(0.05 -0.05)">
     <use xlink:href="#NotoSansCJKsc-Regular-843d"/>
     <use xlink:href="#NotoSansCJKsc-Regular-6c34" transform="translate(99.999985 0)"/>
     <use xlink:href="#NotoSansCJKsc-Regular-7ba1" transform="translate(199.999969 0)"/>
    </g>
    <!-- φ110 -->
    <g style="fill: #666666" transform="translate(139.5375 165.388125) scale(0.05 -0.05)">
     <use xlink:href="#NotoSansCJKsc-Regular-3c6"/>
     <use xlink:href="#NotoSansCJKsc-Regular-31" transform="translate(75.999985 0)"/>
     <use xlink:href="#NotoSansCJKsc-Regular-31" transform="translate(131.499969 0)"/>
     <use xlink:href="#NotoSansCJKsc-Regular-30" transform="translate(186.999954 0)"/>
    </g>
   </g>
   <g id="text_9">
    <!-- 落水管 -->
    <g style="fill: #666666" transform="translate(782.9 159.467188) scale(0.05 -0.05)">
     <use xlink:href="#NotoSansCJKsc-Regular-843d"/>
     <use xlink:href="#NotoSansCJKsc-Regular-6c34" transform="translate(99.999985 0)"/>
     <use xlink:href="#NotoSansCJKsc-Regular-7ba1" transform="translate(199.999969 0)"/>
    </g>
    <!-- φ110 -->
    <g style="fill: #666666" transform="translate(784.3375 165.388125) scale(0.05 -0.05)">
     <use xlink:href="#NotoSansCJKsc-Regular-3c6"/>
     <use xlink:href="#NotoSansCJKsc-Regular-31" transform="translate(75.999985 0)"/>
     <use xlink:href="#NotoSansCJKsc-Regular-31" transform="translate(131.499969 0)"/>
     <use xlink:href="#NotoSansCJKsc-Regular-30" transform="translate(186.999954 0)"/>
    </g>
   </g>
   <g id="text_10">
    <!-- 检修口 -->
    <g style="fill: #666666" transform="translate(454.04 396.675563) scale(0.06 -0.06)">
     <defs>
      <path id="NotoSansCJKsc-Regular-68c0" d="M 2995 3392 
L 2995 2976 
L 5165 2976 
L 5165 3392 
L 2995 3392 
z
M 2541 2272 
C 2720 1786 2899 1146 2950 723 
L 3347 838 
C 3290 1248 3110 1882 2918 2368 
L 2541 2272 
z
M 3782 2451 
C 3898 1965 4006 1331 4038 909 
L 4442 979 
C 4403 1395 4288 2016 4160 2502 
L 3782 2451 
z
M 1146 5376 
L 1146 4160 
L 314 4160 
L 314 3712 
L 1101 3712 
C 928 2867 570 1875 211 1350 
C 288 1235 403 1024 454 883 
C 710 1280 954 1920 1146 2586 
L 1146 -506 
L 1587 -506 
L 1587 2829 
C 1754 2515 1939 2144 2022 1946 
L 2310 2285 
C 2214 2477 1734 3232 1587 3450 
L 1587 3712 
L 2253 3712 
L 2253 4160 
L 1587 4160 
L 1587 5376 
L 1146 5376 
z
M 3994 5421 
C 3558 4518 2797 3706 1990 3213 
C 2080 3117 2221 2912 2278 2816 
C 2931 3270 3571 3910 4058 4646 
C 4550 4006 5286 3315 5933 2886 
C 5984 3014 6093 3206 6182 3322 
C 5530 3706 4730 4410 4288 5030 
L 4416 5267 
L 3994 5421 
z
M 2195 224 
L 2195 -205 
L 6003 -205 
L 6003 224 
L 4826 224 
C 5158 826 5542 1696 5811 2387 
L 5389 2502 
C 5165 1818 4762 838 4416 224 
L 2195 224 
z
" transform="scale(0.015625)"/>
      <path id="NotoSansCJKsc-Regular-4fee" d="M 4467 2470 
C 4122 2138 3475 1837 2906 1664 
C 2995 1587 3110 1472 3174 1376 
C 3782 1581 4442 1914 4832 2317 
L 4467 2470 
z
M 5082 1837 
C 4646 1382 3802 1018 2989 832 
C 3085 742 3181 608 3238 512 
C 4102 749 4954 1146 5440 1683 
L 5082 1837 
z
M 5677 1146 
C 5107 486 3930 77 2643 -109 
C 2739 -211 2842 -378 2893 -493 
C 4250 -256 5453 205 6093 966 
L 5677 1146 
z
M 1958 3590 
L 1958 499 
L 2368 499 
L 2368 3590 
L 1958 3590 
z
M 3539 4275 
L 5325 4275 
C 5107 3923 4794 3622 4429 3379 
C 4032 3648 3738 3962 3539 4275 
z
M 3616 5382 
C 3347 4691 2886 4026 2368 3597 
C 2477 3533 2656 3392 2739 3315 
C 2931 3494 3123 3706 3309 3942 
C 3488 3674 3738 3405 4051 3162 
C 3546 2893 2957 2714 2374 2605 
C 2458 2515 2560 2342 2605 2240 
C 3245 2374 3872 2586 4416 2906 
C 4838 2637 5350 2419 5952 2278 
C 6010 2387 6131 2573 6221 2662 
C 5677 2765 5203 2938 4800 3149 
C 5293 3507 5696 3968 5939 4557 
L 5664 4698 
L 5574 4678 
L 3776 4678 
C 3885 4870 3974 5069 4058 5267 
L 3616 5382 
z
M 1504 5338 
C 1197 4346 685 3366 128 2726 
C 211 2605 339 2349 378 2234 
C 589 2483 787 2765 979 3078 
L 979 -512 
L 1434 -512 
L 1434 3930 
C 1632 4339 1805 4781 1946 5216 
L 1504 5338 
z
" transform="scale(0.015625)"/>
      <path id="NotoSansCJKsc-Regular-53e3" d="M 813 4704 
L 813 -352 
L 1312 -352 
L 1312 192 
L 5094 192 
L 5094 -326 
L 5606 -326 
L 5606 4704 
L 813 4704 
z
M 1312 685 
L 1312 4224 
L 5094 4224 
L 5094 685 
L 1312 685 
z
" transform="scale(0.015625)"/>
     </defs>
     <use xlink:href="#NotoSansCJKsc-Regular-68c0"/>
     <use xlink:href="#NotoSansCJKsc-Regular-4fee" transform="translate(99.999985 0)"/>
     <use xlink:href="#NotoSansCJKsc-Regular-53e3" transform="translate(199.999969 0)"/>
    </g>
    <!-- 800×800 -->
    <g style="fill: #666666" transform="translate(450.05 403.780688) scale(0.06 -0.06)">
     <defs>
      <path id="NotoSansCJKsc-Regular-38" d="M 1792 -83 
C 2669 -83 3258 448 3258 1126 
C 3258 1773 2880 2125 2470 2362 
L 2470 2394 
C 2746 2611 3091 3034 3091 3526 
C 3091 4250 2605 4762 1805 4762 
C 1075 4762 518 4282 518 3571 
C 518 3078 813 2726 1152 2490 
L 1152 2464 
C 723 2234 294 1792 294 1165 
C 294 442 922 -83 1792 -83 
z
M 2112 2547 
C 1555 2765 1050 3014 1050 3571 
C 1050 4026 1363 4326 1798 4326 
C 2298 4326 2592 3962 2592 3494 
C 2592 3149 2426 2829 2112 2547 
z
M 1798 352 
C 1235 352 813 717 813 1216 
C 813 1664 1082 2035 1459 2278 
C 2125 2010 2701 1779 2701 1146 
C 2701 678 2342 352 1798 352 
z
" transform="scale(0.015625)"/>
      <path id="NotoSansCJKsc-Regular-d7" d="M 4954 346 
L 5261 653 
L 3514 2406 
L 5261 4160 
L 4954 4467 
L 3200 2714 
L 1453 4467 
L 1139 4154 
L 2893 2406 
L 1139 653 
L 1453 346 
L 3200 2099 
L 4954 346 
z
" transform="scale(0.015625)"/>
     </defs>
     <use xlink:href="#NotoSansCJKsc-Regular-38"/>
     <use xlink:href="#NotoSansCJKsc-Regular-30" transform="translate(55.499985 0)"/>
     <use xlink:href="#NotoSansCJKsc-Regular-30" transform="translate(110.999969 0)"/>
     <use xlink:href="#NotoSansCJKsc-Regular-d7" transform="translate(166.499954 0)"/>
     <use xlink:href="#NotoSansCJKsc-Regular-38" transform="translate(266.499939 0)"/>
     <use xlink:href="#NotoSansCJKsc-Regular-30" transform="translate(321.999924 0)"/>
     <use xlink:href="#NotoSansCJKsc-Regular-30" transform="translate(377.499908 0)"/>
    </g>
   </g>
   <g id="text_11">
    <!-- 屋面找坡层 -->
    <g style="fill: #666666" transform="translate(440.5 411.565313) scale(0.11 -0.11)">
     <defs>
      <path id="NotoSansCJKsc-Regular-5c4b" d="M 1382 4646 
L 5184 4646 
L 5184 4013 
L 1382 4013 
L 1382 4646 
z
M 902 5050 
L 902 3264 
C 902 2221 845 768 218 -269 
C 339 -314 557 -429 646 -512 
C 1293 563 1382 2157 1382 3264 
L 1382 3610 
L 5664 3610 
L 5664 5050 
L 902 5050 
z
M 1811 1562 
C 1946 1613 2144 1638 3379 1722 
L 3379 1158 
L 1715 1158 
L 1715 762 
L 3379 762 
L 3379 64 
L 1229 64 
L 1229 -326 
L 6061 -326 
L 6061 64 
L 3846 64 
L 3846 762 
L 5568 762 
L 5568 1158 
L 3846 1158 
L 3846 1754 
L 5030 1824 
C 5197 1677 5338 1530 5440 1408 
L 5818 1664 
C 5536 1984 4973 2445 4512 2758 
L 5869 2758 
L 5869 3155 
L 1421 3155 
L 1421 2758 
L 2650 2758 
C 2387 2490 2125 2266 2022 2195 
C 1888 2086 1773 2022 1664 2003 
C 1715 1882 1786 1664 1811 1562 
z
M 4154 2547 
C 4307 2438 4467 2310 4627 2182 
L 2490 2067 
C 2758 2272 3021 2509 3258 2758 
L 4493 2758 
L 4154 2547 
z
" transform="scale(0.015625)"/>
      <path id="NotoSansCJKsc-Regular-9762" d="M 2490 2138 
L 3846 2138 
L 3846 1414 
L 2490 1414 
L 2490 2138 
z
M 2490 2528 
L 2490 3238 
L 3846 3238 
L 3846 2528 
L 2490 2528 
z
M 2490 1024 
L 3846 1024 
L 3846 275 
L 2490 275 
L 2490 1024 
z
M 371 4954 
L 371 4493 
L 2842 4493 
C 2797 4230 2726 3930 2662 3686 
L 666 3686 
L 666 -512 
L 1126 -512 
L 1126 -173 
L 5248 -173 
L 5248 -512 
L 5734 -512 
L 5734 3686 
L 3155 3686 
L 3405 4493 
L 6048 4493 
L 6048 4954 
L 371 4954 
z
M 1126 275 
L 1126 3238 
L 2048 3238 
L 2048 275 
L 1126 275 
z
M 5248 275 
L 4288 275 
L 4288 3238 
L 5248 3238 
L 5248 275 
z
" transform="scale(0.015625)"/>
      <path id="NotoSansCJKsc-Regular-627e" d="M 4326 4979 
C 4640 4704 5018 4294 5190 4026 
L 5574 4307 
C 5395 4570 5005 4954 4691 5222 
L 4326 4979 
z
M 1210 5376 
L 1210 4083 
L 294 4083 
L 294 3635 
L 1210 3635 
L 1210 2253 
C 838 2150 493 2061 218 1990 
L 358 1523 
L 1210 1773 
L 1210 96 
C 1210 6 1178 -19 1088 -26 
C 1005 -26 723 -32 429 -19 
C 486 -141 550 -339 570 -461 
C 1011 -461 1280 -454 1446 -378 
C 1613 -301 1677 -173 1677 96 
L 1677 1914 
L 2528 2170 
L 2470 2611 
L 1677 2381 
L 1677 3635 
L 2458 3635 
L 2458 4083 
L 1677 4083 
L 1677 5376 
L 1210 5376 
z
M 5306 2976 
C 5088 2490 4774 2010 4390 1574 
C 4250 2048 4134 2624 4051 3264 
L 6022 3475 
L 5971 3923 
L 4000 3718 
C 3942 4230 3904 4781 3885 5357 
L 3398 5357 
C 3424 4762 3469 4198 3520 3667 
L 2534 3565 
L 2586 3110 
L 3571 3213 
C 3667 2426 3808 1734 3994 1165 
C 3507 698 2938 320 2349 83 
C 2477 -13 2637 -160 2720 -288 
C 3232 -58 3731 282 4179 685 
C 4493 -13 4915 -435 5491 -480 
C 5818 -506 6074 -179 6214 864 
C 6112 902 5907 1024 5805 1126 
C 5747 416 5645 70 5472 83 
C 5107 122 4800 480 4563 1069 
C 5037 1574 5434 2150 5702 2739 
L 5306 2976 
z
" transform="scale(0.015625)"/>
      <path id="NotoSansCJKsc-Regular-5761" d="M 2547 4429 
L 2547 2765 
C 2547 1862 2451 685 1632 -141 
C 1734 -198 1920 -358 1997 -454 
C 2778 339 2970 1504 3002 2438 
L 3072 2438 
C 3302 1754 3635 1165 4070 678 
C 3648 320 3162 51 2656 -115 
C 2758 -211 2880 -390 2938 -506 
C 3462 -307 3962 -26 4390 352 
C 4806 -19 5299 -307 5869 -493 
C 5939 -371 6074 -186 6176 -90 
C 5619 70 5133 333 4723 672 
C 5222 1210 5613 1901 5830 2771 
L 5530 2880 
L 5446 2861 
L 4480 2861 
L 4480 3981 
L 5536 3981 
C 5459 3680 5370 3379 5293 3168 
L 5715 3072 
C 5850 3392 6003 3917 6131 4365 
L 5786 4448 
L 5702 4429 
L 4480 4429 
L 4480 5376 
L 4013 5376 
L 4013 4429 
L 2547 4429 
z
M 4013 3981 
L 4013 2861 
L 3008 2861 
L 3008 3981 
L 4013 3981 
z
M 5261 2438 
C 5069 1869 4768 1389 4390 986 
C 4013 1395 3718 1882 3514 2438 
L 5261 2438 
z
M 218 1043 
L 410 570 
C 954 813 1664 1133 2330 1440 
L 2221 1862 
L 1549 1574 
L 1549 3379 
L 2253 3379 
L 2253 3834 
L 1549 3834 
L 1549 5299 
L 1094 5299 
L 1094 3834 
L 301 3834 
L 301 3379 
L 1094 3379 
L 1094 1389 
C 762 1254 461 1133 218 1043 
z
" transform="scale(0.015625)"/>
      <path id="NotoSansCJKsc-Regular-5c42" d="M 1946 2918 
L 1946 2490 
L 5587 2490 
L 5587 2918 
L 1946 2918 
z
M 1338 4653 
L 5190 4653 
L 5190 3885 
L 1338 3885 
L 1338 4653 
z
M 851 5069 
L 851 3194 
C 851 2176 794 749 198 -256 
C 320 -301 531 -422 627 -499 
C 1248 550 1338 2118 1338 3194 
L 1338 3469 
L 5670 3469 
L 5670 5069 
L 851 5069 
z
M 1843 -410 
C 2042 -333 2349 -307 5139 -122 
C 5235 -288 5325 -448 5389 -570 
L 5830 -352 
C 5613 38 5158 717 4806 1210 
L 4390 1037 
C 4557 806 4736 531 4902 262 
L 2432 115 
C 2771 474 3117 928 3411 1395 
L 6035 1395 
L 6035 1818 
L 1530 1818 
L 1530 1395 
L 2803 1395 
C 2522 909 2163 461 2048 333 
C 1907 173 1779 58 1670 38 
C 1728 -83 1811 -314 1843 -410 
z
" transform="scale(0.015625)"/>
     </defs>
     <use xlink:href="#NotoSansCJKsc-Regular-5c4b"/>
     <use xlink:href="#NotoSansCJKsc-Regular-9762" transform="translate(99.999985 0)"/>
     <use xlink:href="#NotoSansCJKsc-Regular-627e" transform="translate(199.999969 0)"/>
     <use xlink:href="#NotoSansCJKsc-Regular-5761" transform="translate(299.999954 0)"/>
     <use xlink:href="#NotoSansCJKsc-Regular-5c42" transform="translate(399.999939 0)"/>
    </g>
   </g>
   <g id="patch_17">
    <path d="M 71.2 168.37127 
Q 71.2 153.010032 71.2 139.325846 
" style="fill: none; stroke: #1a1a1a; stroke-width: 1.5; stroke-linecap: round"/>
    <path d="M 69.2 143.325846 
L 71.2 139.325846 
L 73.2 143.325846 
z
" style="fill: #1a1a1a; stroke: #1a1a1a; stroke-width: 1.5; stroke-linecap: round"/>
   </g>
   <g id="text_12">
    <!-- N -->
    <g style="fill: #1a1a1a" transform="translate(67.454688 126.0575) scale(0.1 -0.1)">
     <defs>
      <path id="NotoSansCJKsc-Bold-4e" d="M 582 0 
L 1485 0 
L 1485 1901 
C 1485 2445 1402 3040 1363 3552 
L 1395 3552 
L 1875 2534 
L 3238 0 
L 4205 0 
L 4205 4742 
L 3309 4742 
L 3309 2848 
C 3309 2310 3386 1683 3437 1190 
L 3405 1190 
L 2925 2214 
L 1549 4742 
L 582 4742 
L 582 0 
z
" transform="scale(0.015625)"/>
     </defs>
     <use xlink:href="#NotoSansCJKsc-Bold-4e"/>
    </g>
   </g>
  </g>
 </g>
 <defs>
  <clipPath id="paeab10d7a9">
   <rect x="21.6" y="46.3675" width="892.8" height="694.4"/>
  </clipPath>
 </defs>
</svg>
